0
SECTION
2
HEADER
9
$INSUNITS
70
4
0
ENDSEC
0
SECTION
2
TABLES
0
TABLE
2
LTYPE
0
LTYPE
72
65
70
0
2
CONTINUOUS
3
______
73
0
40
0
0
LTYPE
72
65
70
0
2
DASHED
3
_ _ _ 
73
2
40
7.5
49
5
49
-2.5
0
LTYPE
72
65
70
0
2
DOTTED
3
. . . 
73
2
40
1.5
49
0.5
49
-1
0
ENDTAB
0
TABLE
2
LAYER
0
ENDTAB
0
ENDSEC
0
SECTION
2
ENTITIES
0
LINE
8
0
6
CONTINUOUS
10
160.7183701
20
-160.0495167
11
195.7211578
21
-167.9866048
0
LINE
8
0
6
CONTINUOUS
10
196.4373583
20
-168.3067769
11
212.6329069
21
-179.8151823
0
LINE
8
0
6
CONTINUOUS
10
213.0158643
20
-180.1711473
11
225.0980799
21
-194.785723
0
LINE
8
0
6
CONTINUOUS
10
225.369254
20
-195.2148327
11
232.8471144
21
-211.2511561
0
LINE
8
0
6
CONTINUOUS
10
235.5049665
20
-212.218535
11
250.0058911
21
-205.4566428
0
LINE
8
0
6
CONTINUOUS
10
250.97327
20
-202.7987907
11
245.0666452
21
-190.1319929
0
LINE
8
0
6
CONTINUOUS
10
244.9971487
20
-188.6102549
11
270.544242
21
-117.5350275
0
LINE
8
0
6
CONTINUOUS
10
269.3461701
20
-114.9791408
11
232.2821676
21
-101.4889472
0
LINE
8
0
6
CONTINUOUS
10
231.0592476
20
-100.2124737
11
230.1606191
21
-97.370186
0
LINE
8
0
6
CONTINUOUS
10
228.771297
20
-96.0412461
11
210.8641195
21
-91.2430324
0
LINE
8
0
6
CONTINUOUS
10
209.3941301
20
-89.5332997
11
208.6391857
21
-82.7776978
0
LINE
8
0
6
CONTINUOUS
10
206.9988546
20
-81.0302013
11
189.4671155
21
-77.9388827
0
LINE
8
0
6
CONTINUOUS
10
187.23151
20
-79.2494924
11
184.6561856
21
-86.6288026
0
LINE
8
0
6
CONTINUOUS
10
182.5935651
20
-87.9621862
11
165.054851
21
-86.4277476
0
LINE
8
0
6
CONTINUOUS
10
162.9098492
20
-88.078993
11
160.7871626
21
-100.341144
0
LINE
8
0
6
CONTINUOUS
10
158.8164722
20
-102
11
141.5
21
-102
0
LINE
8
0
6
CONTINUOUS
10
139.5
20
-104
11
139.5
21
-158
0
LINE
8
0
6
CONTINUOUS
10
141.5
20
-160
11
160.2760865
21
-160
0
ARC
8
0
6
CONTINUOUS
10
195.2788742
20
-169.9370881
40
2
50
54.6027523
51
77.2238952
0
ARC
8
0
6
CONTINUOUS
10
211.4744229
20
-181.4454936
40
2
50
39.5813472
51
54.6027523
0
ARC
8
0
6
CONTINUOUS
10
223.5566385
20
-196.0600693
40
2
50
25.0000017
51
39.5813472
0
ARC
8
0
6
CONTINUOUS
10
234.65973
20
-210.4059195
40
2
50
205.0000017
51
295.0000017
0
ARC
8
0
6
CONTINUOUS
10
249.1606545
20
-203.6440273
40
2
50
295.0000017
51
25.0000017
0
ARC
8
0
6
CONTINUOUS
10
246.8792608
20
-189.2867563
40
2
50
160.2296662
51
205.0000017
0
ARC
8
0
6
CONTINUOUS
10
268.6621299
20
-116.8585261
40
2
50
340.2296662
51
70.0000019
0
ARC
8
0
6
CONTINUOUS
10
232.9662078
20
-99.6095619
40
2
50
197.5450692
51
250.0000019
0
ARC
8
0
6
CONTINUOUS
10
228.2536589
20
-97.9730978
40
2
50
17.5450692
51
75.0000021
0
ARC
8
0
6
CONTINUOUS
10
211.3817576
20
-89.3111807
40
2
50
186.3763944
51
255.0000021
0
ARC
8
0
6
CONTINUOUS
10
206.6515582
20
-82.9998168
40
2
50
6.3763944
51
79.9999992
0
ARC
8
0
6
CONTINUOUS
10
189.1198191
20
-79.9084982
40
2
50
79.9999992
51
160.7613944
0
ARC
8
0
6
CONTINUOUS
10
182.7678765
20
-85.9697968
40
2
50
265.0000024
51
340.7613944
0
ARC
8
0
6
CONTINUOUS
10
164.8805396
20
-88.420137
40
2
50
85.0000024
51
170.1789219
0
ARC
8
0
6
CONTINUOUS
10
158.8164722
20
-100
40
2
50
270
51
350.1789219
0
ARC
8
0
6
CONTINUOUS
10
141.5
20
-104
40
2
50
90
51
180
0
ARC
8
0
6
CONTINUOUS
10
141.5
20
-158
40
2
50
180
51
270
0
ARC
8
0
6
CONTINUOUS
10
160.2760865
20
-162
40
2
50
77.2238952
51
90
0
LINE
8
0
6
CONTINUOUS
10
144
20
-159
11
156
21
-159
0
LINE
8
0
6
CONTINUOUS
10
159
20
-156
11
159
21
-144
0
LINE
8
0
6
CONTINUOUS
10
156
20
-141
11
144
21
-141
0
LINE
8
0
6
CONTINUOUS
10
141
20
-144
11
141
21
-156
0
LINE
8
0
6
CONTINUOUS
10
144
20
-140
11
156
21
-140
0
LINE
8
0
6
CONTINUOUS
10
159
20
-137
11
159
21
-125
0
LINE
8
0
6
CONTINUOUS
10
156
20
-122
11
144
21
-122
0
LINE
8
0
6
CONTINUOUS
10
141
20
-125
11
141
21
-137
0
LINE
8
0
6
CONTINUOUS
10
144
20
-121
11
156
21
-121
0
LINE
8
0
6
CONTINUOUS
10
159
20
-118
11
159
21
-106
0
LINE
8
0
6
CONTINUOUS
10
156
20
-103
11
144
21
-103
0
LINE
8
0
6
CONTINUOUS
10
141
20
-106
11
141
21
-118
0
LINE
8
0
6
CONTINUOUS
10
162.7384302
20
-143.4428178
11
174.6927666
21
-144.4886868
0
LINE
8
0
6
CONTINUOUS
10
177.9428178
20
-141.7615698
11
178.9886868
21
-129.8072334
0
LINE
8
0
6
CONTINUOUS
10
176.2615698
20
-126.5571822
11
164.3072334
21
-125.5113132
0
LINE
8
0
6
CONTINUOUS
10
161.0571822
20
-128.2384302
11
160.0113132
21
-140.1927666
0
LINE
8
0
6
CONTINUOUS
10
164.3943893
20
-124.5151185
11
176.3487257
21
-125.5609875
0
LINE
8
0
6
CONTINUOUS
10
179.5987769
20
-122.8338705
11
180.6446459
21
-110.8795341
0
LINE
8
0
6
CONTINUOUS
10
177.9175289
20
-107.6294829
11
165.9631925
21
-106.5836139
0
LINE
8
0
6
CONTINUOUS
10
162.7131413
20
-109.3107309
11
161.6672723
21
-121.2650673
0
LINE
8
0
6
CONTINUOUS
10
166.0503484
20
-105.5874192
11
178.0046848
21
-106.6332882
0
LINE
8
0
6
CONTINUOUS
10
181.254736
20
-103.9061712
11
182.300605
21
-91.9518348
0
LINE
8
0
6
CONTINUOUS
10
179.573488
20
-88.7017836
11
167.6191516
21
-87.6559146
0
LINE
8
0
6
CONTINUOUS
10
164.3691004
20
-90.3830316
11
163.3232314
21
-102.337368
0
LINE
8
0
6
CONTINUOUS
10
182.3256739
20
-134.5589707
11
194.1433669
21
-136.6427489
0
LINE
8
0
6
CONTINUOUS
10
197.6187347
20
-134.2092701
11
199.7025129
21
-122.3915771
0
LINE
8
0
6
CONTINUOUS
10
197.2690341
20
-118.9162093
11
185.4513411
21
-116.8324311
0
LINE
8
0
6
CONTINUOUS
10
181.9759733
20
-119.2659099
11
179.8921951
21
-131.0836029
0
LINE
8
0
6
CONTINUOUS
10
185.6249893
20
-115.8476234
11
197.4426823
21
-117.9314016
0
LINE
8
0
6
CONTINUOUS
10
200.9180501
20
-115.4979228
11
203.0018283
21
-103.6802298
0
LINE
8
0
6
CONTINUOUS
10
200.5683495
20
-100.204862
11
188.7506565
21
-98.1210838
0
LINE
8
0
6
CONTINUOUS
10
185.2752887
20
-100.5545626
11
183.1915105
21
-112.3722556
0
LINE
8
0
6
CONTINUOUS
10
188.9243047
20
-97.1362761
11
200.7419977
21
-99.2200543
0
LINE
8
0
6
CONTINUOUS
10
204.2173655
20
-96.7865755
11
206.3011437
21
-84.9688825
0
LINE
8
0
6
CONTINUOUS
10
203.8676649
20
-81.4935147
11
192.0499719
21
-79.4097365
0
LINE
8
0
6
CONTINUOUS
10
188.5746041
20
-81.8432153
11
186.4908259
21
-93.6609083
0
LINE
8
0
6
CONTINUOUS
10
199.1396972
20
-147.1122252
11
210.730807
21
-150.2180537
0
LINE
8
0
6
CONTINUOUS
10
214.4050416
20
-148.0967332
11
217.5108701
21
-136.5056234
0
LINE
8
0
6
CONTINUOUS
10
215.3895496
20
-132.8313888
11
203.7984398
21
-129.7255603
0
LINE
8
0
6
CONTINUOUS
10
200.1242052
20
-131.8468808
11
197.0183767
21
-143.4379906
0
LINE
8
0
6
CONTINUOUS
10
204.0572591
20
-128.7596345
11
215.6483689
21
-131.865463
0
LINE
8
0
6
CONTINUOUS
10
219.3226035
20
-129.7441425
11
222.428432
21
-118.1530327
0
LINE
8
0
6
CONTINUOUS
10
220.3071115
20
-114.4787981
11
208.7160017
21
-111.3729696
0
LINE
8
0
6
CONTINUOUS
10
205.0417671
20
-113.4942901
11
201.9359386
21
-125.0853999
0
LINE
8
0
6
CONTINUOUS
10
208.974821
20
-110.4070438
11
220.5659308
21
-113.5128723
0
LINE
8
0
6
CONTINUOUS
10
224.2401654
20
-111.3915518
11
227.3459939
21
-99.800442
0
LINE
8
0
6
CONTINUOUS
10
225.2246734
20
-96.1262074
11
213.6335636
21
-93.0203789
0
LINE
8
0
6
CONTINUOUS
10
209.959329
20
-95.1416994
11
206.8535005
21
-106.7328092
0
LINE
8
0
6
CONTINUOUS
10
216.0897449
20
-156.2535203
11
227.3660563
21
-160.357762
0
LINE
8
0
6
CONTINUOUS
10
231.2111946
20
-158.5647444
11
235.3154363
21
-147.288433
0
LINE
8
0
6
CONTINUOUS
10
233.5224187
20
-143.4432947
11
222.2461073
21
-139.339053
0
LINE
8
0
6
CONTINUOUS
10
218.400969
20
-141.1320706
11
214.2967273
21
-152.408382
0
LINE
8
0
6
CONTINUOUS
10
222.5881276
20
-138.3993605
11
233.864439
21
-142.5036022
0
LINE
8
0
6
CONTINUOUS
10
237.7095773
20
-140.7105846
11
241.813819
21
-129.4342732
0
LINE
8
0
6
CONTINUOUS
10
240.0208014
20
-125.5891349
11
228.74449
21
-121.4848932
0
LINE
8
0
6
CONTINUOUS
10
224.8993517
20
-123.2779108
11
220.79511
21
-134.5542222
0
LINE
8
0
6
CONTINUOUS
10
229.0865103
20
-120.5452007
11
240.3628217
21
-124.6494424
0
LINE
8
0
6
CONTINUOUS
10
244.20796
20
-122.8564248
11
248.3122017
21
-111.5801134
0
LINE
8
0
6
CONTINUOUS
10
246.5191841
20
-107.7349751
11
235.2428727
21
-103.6307334
0
LINE
8
0
6
CONTINUOUS
10
231.3977344
20
-105.423751
11
227.2934927
21
-116.7000624
0
LINE
8
0
6
CONTINUOUS
10
200.3710378
20
-169.8370086
11
210.2008624
21
-176.7199258
0
LINE
8
0
6
CONTINUOUS
10
214.3790478
20
-175.983199
11
221.261965
21
-166.1533744
0
LINE
8
0
6
CONTINUOUS
10
220.5252382
20
-161.975189
11
210.6954136
21
-155.0922718
0
LINE
8
0
6
CONTINUOUS
10
206.5172282
20
-155.8289986
11
199.634311
21
-165.6588232
0
LINE
8
0
6
CONTINUOUS
10
215.8315129
20
-181.9679855
11
223.5449643
21
-191.1605189
0
LINE
8
0
6
CONTINUOUS
10
227.7714604
20
-191.5302894
11
236.9639938
21
-183.816838
0
LINE
8
0
6
CONTINUOUS
10
237.3337643
20
-179.5903419
11
229.6203129
21
-170.3978085
0
LINE
8
0
6
CONTINUOUS
10
225.3938168
20
-170.028038
11
216.2012834
21
-177.7414894
0
LINE
8
0
6
CONTINUOUS
10
227.6254574
20
-197.687075
11
232.6968765
21
-208.5627683
0
LINE
8
0
6
CONTINUOUS
10
236.6836548
20
-210.0138368
11
247.5593481
21
-204.9424177
0
LINE
8
0
6
CONTINUOUS
10
249.0104166
20
-200.9556394
11
243.9389975
21
-190.0799461
0
LINE
8
0
6
CONTINUOUS
10
239.9522192
20
-188.6288776
11
229.0765259
21
-193.7002967
0
ARC
8
0
6
CONTINUOUS
10
194.6643114
20
-133.6883256
40
3
50
259.9999992
51
349.9999992
0
ARC
8
0
6
CONTINUOUS
10
196.7480896
20
-121.8706326
40
3
50
349.9999992
51
79.9999992
0
ARC
8
0
6
CONTINUOUS
10
184.9303966
20
-119.7868544
40
3
50
79.9999992
51
169.9999992
0
ARC
8
0
6
CONTINUOUS
10
182.8466184
20
-131.6045474
40
3
50
169.9999992
51
259.9999992
0
ARC
8
0
6
CONTINUOUS
10
197.9636268
20
-114.9769783
40
3
50
259.9999992
51
349.9999992
0
ARC
8
0
6
CONTINUOUS
10
200.047405
20
-103.1592853
40
3
50
349.9999992
51
79.9999992
0
ARC
8
0
6
CONTINUOUS
10
188.229712
20
-101.0755071
40
3
50
79.9999992
51
169.9999992
0
ARC
8
0
6
CONTINUOUS
10
186.1459338
20
-112.8932001
40
3
50
169.9999992
51
259.9999992
0
ARC
8
0
6
CONTINUOUS
10
201.2629422
20
-96.265631
40
3
50
259.9999992
51
349.9999992
0
ARC
8
0
6
CONTINUOUS
10
203.3467204
20
-84.447938
40
3
50
349.9999992
51
79.9999992
0
ARC
8
0
6
CONTINUOUS
10
191.5290274
20
-82.3641598
40
3
50
79.9999992
51
169.9999992
0
ARC
8
0
6
CONTINUOUS
10
189.4452492
20
-94.1818528
40
3
50
169.9999992
51
259.9999992
0
ARC
8
0
6
CONTINUOUS
10
174.9542337
20
-141.5001027
40
3
50
265.0000024
51
355.0000024
0
ARC
8
0
6
CONTINUOUS
10
176.0001027
20
-129.5457663
40
3
50
355.0000024
51
85.0000024
0
ARC
8
0
6
CONTINUOUS
10
164.0457663
20
-128.4998973
40
3
50
85.0000024
51
175.0000024
0
ARC
8
0
6
CONTINUOUS
10
162.9998973
20
-140.4542337
40
3
50
175.0000024
51
265.0000024
0
ARC
8
0
6
CONTINUOUS
10
176.6101928
20
-122.5724034
40
3
50
265.0000024
51
355.0000024
0
ARC
8
0
6
CONTINUOUS
10
177.6560618
20
-110.618067
40
3
50
355.0000024
51
85.0000024
0
ARC
8
0
6
CONTINUOUS
10
165.7017254
20
-109.572198
40
3
50
85.0000024
51
175.0000024
0
ARC
8
0
6
CONTINUOUS
10
164.6558564
20
-121.5265344
40
3
50
175.0000024
51
265.0000024
0
ARC
8
0
6
CONTINUOUS
10
178.2661519
20
-103.6447041
40
3
50
265.0000024
51
355.0000024
0
ARC
8
0
6
CONTINUOUS
10
179.3120209
20
-91.6903677
40
3
50
355.0000024
51
85.0000024
0
ARC
8
0
6
CONTINUOUS
10
167.3576845
20
-90.6444987
40
3
50
85.0000024
51
175.0000024
0
ARC
8
0
6
CONTINUOUS
10
166.3118155
20
-102.5988351
40
3
50
175.0000024
51
265.0000024
0
ARC
8
0
6
CONTINUOUS
10
225.8430976
20
-189.2321561
40
3
50
220.0000012
51
310.0000012
0
ARC
8
0
6
CONTINUOUS
10
235.035631
20
-181.5187047
40
3
50
310.0000012
51
40.0000012
0
ARC
8
0
6
CONTINUOUS
10
227.3221796
20
-172.3261713
40
3
50
40.0000012
51
130.0000012
0
ARC
8
0
6
CONTINUOUS
10
218.1296462
20
-180.0396227
40
3
50
130.0000012
51
220.0000012
0
ARC
8
0
6
CONTINUOUS
10
228.3921167
20
-157.5386841
40
3
50
250.0000019
51
340.0000019
0
ARC
8
0
6
CONTINUOUS
10
232.4963584
20
-146.2623726
40
3
50
340.0000019
51
70.0000019
0
ARC
8
0
6
CONTINUOUS
10
221.2200469
20
-142.1581309
40
3
50
70.0000019
51
160.0000019
0
ARC
8
0
6
CONTINUOUS
10
217.1158052
20
-153.4344424
40
3
50
160.0000019
51
250.0000019
0
ARC
8
0
6
CONTINUOUS
10
234.8904994
20
-139.6845243
40
3
50
250.0000019
51
340.0000019
0
ARC
8
0
6
CONTINUOUS
10
238.9947411
20
-128.4082128
40
3
50
340.0000019
51
70.0000019
0
ARC
8
0
6
CONTINUOUS
10
227.7184296
20
-124.3039711
40
3
50
70.0000019
51
160.0000019
0
ARC
8
0
6
CONTINUOUS
10
223.6141879
20
-135.5802826
40
3
50
160.0000019
51
250.0000019
0
ARC
8
0
6
CONTINUOUS
10
241.3888821
20
-121.8303645
40
3
50
250.0000019
51
340.0000019
0
ARC
8
0
6
CONTINUOUS
10
245.4931238
20
-110.554053
40
3
50
340.0000019
51
70.0000019
0
ARC
8
0
6
CONTINUOUS
10
234.2168123
20
-106.4498113
40
3
50
70.0000019
51
160.0000019
0
ARC
8
0
6
CONTINUOUS
10
230.1125706
20
-117.7261228
40
3
50
160.0000019
51
250.0000019
0
ARC
8
0
6
CONTINUOUS
10
156
20
-156
40
3
50
270
51
0
0
ARC
8
0
6
CONTINUOUS
10
156
20
-144
40
3
50
0
51
90
0
ARC
8
0
6
CONTINUOUS
10
144
20
-144
40
3
50
90
51
180
0
ARC
8
0
6
CONTINUOUS
10
144
20
-156
40
3
50
180
51
270
0
ARC
8
0
6
CONTINUOUS
10
156
20
-137
40
3
50
270
51
0
0
ARC
8
0
6
CONTINUOUS
10
156
20
-125
40
3
50
0
51
90
0
ARC
8
0
6
CONTINUOUS
10
144
20
-125
40
3
50
90
51
180
0
ARC
8
0
6
CONTINUOUS
10
144
20
-137
40
3
50
180
51
270
0
ARC
8
0
6
CONTINUOUS
10
156
20
-118
40
3
50
270
51
0
0
ARC
8
0
6
CONTINUOUS
10
156
20
-106
40
3
50
0
51
90
0
ARC
8
0
6
CONTINUOUS
10
144
20
-106
40
3
50
90
51
180
0
ARC
8
0
6
CONTINUOUS
10
144
20
-118
40
3
50
180
51
270
0
ARC
8
0
6
CONTINUOUS
10
211.9215917
20
-174.2624697
40
3
50
235.0000003
51
325.0000003
0
ARC
8
0
6
CONTINUOUS
10
218.8045089
20
-164.4326451
40
3
50
325.0000003
51
55.0000003
0
ARC
8
0
6
CONTINUOUS
10
208.9746843
20
-157.5497279
40
3
50
55.0000003
51
145.0000003
0
ARC
8
0
6
CONTINUOUS
10
202.0917671
20
-167.3795525
40
3
50
145.0000003
51
235.0000003
0
ARC
8
0
6
CONTINUOUS
10
235.4157999
20
-207.2949134
40
3
50
205.0000017
51
295.0000017
0
ARC
8
0
6
CONTINUOUS
10
246.2914932
20
-202.2234943
40
3
50
295.0000017
51
25.0000017
0
ARC
8
0
6
CONTINUOUS
10
241.2200741
20
-191.347801
40
3
50
25.0000017
51
115.0000017
0
ARC
8
0
6
CONTINUOUS
10
230.3443808
20
-196.4192201
40
3
50
115.0000017
51
205.0000017
0
ARC
8
0
6
CONTINUOUS
10
221.3423879
20
-110.6150948
40
3
50
255.0000021
51
345.0000021
0
ARC
8
0
6
CONTINUOUS
10
224.4482164
20
-99.0239849
40
3
50
345.0000021
51
75.0000021
0
ARC
8
0
6
CONTINUOUS
10
212.8571066
20
-95.9181564
40
3
50
75.0000021
51
165.0000021
0
ARC
8
0
6
CONTINUOUS
10
209.751278
20
-107.5092662
40
3
50
165.0000021
51
255.0000021
0
ARC
8
0
6
CONTINUOUS
10
211.507264
20
-147.3202762
40
3
50
255.0000021
51
345.0000021
0
ARC
8
0
6
CONTINUOUS
10
214.6130926
20
-135.7291664
40
3
50
345.0000021
51
75.0000021
0
ARC
8
0
6
CONTINUOUS
10
203.0219827
20
-132.6233378
40
3
50
75.0000021
51
165.0000021
0
ARC
8
0
6
CONTINUOUS
10
199.9161542
20
-144.2144476
40
3
50
165.0000021
51
255.0000021
0
ARC
8
0
6
CONTINUOUS
10
216.424826
20
-128.9676855
40
3
50
255.0000021
51
345.0000021
0
ARC
8
0
6
CONTINUOUS
10
219.5306545
20
-117.3765756
40
3
50
345.0000021
51
75.0000021
0
ARC
8
0
6
CONTINUOUS
10
207.9395447
20
-114.2707471
40
3
50
75.0000021
51
165.0000021
0
ARC
8
0
6
CONTINUOUS
10
204.8337161
20
-125.8618569
40
3
50
165.0000021
51
255.0000021
0
LINE
8
0
6
CONTINUOUS
10
242.084744
20
-140.7067486
11
256.9130936
21
-146.1038265
0
LINE
8
0
6
CONTINUOUS
10
258.1948063
20
-145.506154
11
268.7974309
21
-116.3756827
0
LINE
8
0
6
CONTINUOUS
10
268.1997584
20
-115.09397
11
253.3714088
21
-109.6968921
0
LINE
8
0
6
CONTINUOUS
10
252.0896961
20
-110.2945646
11
241.4870715
21
-139.4250359
0
ARC
8
0
6
CONTINUOUS
10
257.2551137
20
-145.1641339
40
1
50
250.0000019
51
340.0000019
0
ARC
8
0
6
CONTINUOUS
10
267.8577383
20
-116.0336626
40
1
50
340.0000019
51
70.0000019
0
ARC
8
0
6
CONTINUOUS
10
253.0293887
20
-110.6365847
40
1
50
70.0000019
51
160.0000019
0
ARC
8
0
6
CONTINUOUS
10
242.4267641
20
-139.767056
40
1
50
160.0000019
51
250.0000019
0
LINE
8
0
6
CONTINUOUS
10
254.4046929
20
-117.1497589
11
262.6176063
21
-120.139015
0
LINE
8
0
6
CONTINUOUS
10
262.7457776
20
-120.0792477
11
265.1912216
21
-113.3604456
0
LINE
8
0
6
CONTINUOUS
10
265.1314543
20
-113.2322743
11
256.9185409
21
-110.2430182
0
LINE
8
0
6
CONTINUOUS
10
256.7903696
20
-110.3027855
11
254.3449256
21
-117.0215876
0
ARC
8
0
6
CONTINUOUS
10
262.6518083
20
-120.0450457
40
0.1
50
250.0000019
51
340.0000019
0
ARC
8
0
6
CONTINUOUS
10
265.0972523
20
-113.3262436
40
0.1
50
340.0000019
51
70.0000019
0
ARC
8
0
6
CONTINUOUS
10
256.8843389
20
-110.3369875
40
0.1
50
70.0000019
51
160.0000019
0
ARC
8
0
6
CONTINUOUS
10
254.4388949
20
-117.0557896
40
0.1
50
160.0000019
51
250.0000019
0
CIRCLE
8
0
6
CONTINUOUS
10
161.5
20
-105.5
40
3
0
CIRCLE
8
0
6
CONTINUOUS
10
161.5
20
-156
40
3
0
CIRCLE
8
0
6
CONTINUOUS
10
228.7
20
-105
40
3
0
CIRCLE
8
0
6
CONTINUOUS
10
228.7
20
-165
40
3
0
ENDSEC
0
EOF