0
SECTION
2
HEADER
9
$INSUNITS
70
4
0
ENDSEC
0
SECTION
2
TABLES
0
TABLE
2
LTYPE
0
LTYPE
72
65
70
0
2
CONTINUOUS
3
______
73
0
40
0
0
LTYPE
72
65
70
0
2
DASHED
3
_ _ _ 
73
2
40
7.5
49
5
49
-2.5
0
LTYPE
72
65
70
0
2
DOTTED
3
. . . 
73
2
40
1.5
49
0.5
49
-1
0
ENDTAB
0
TABLE
2
LAYER
0
ENDTAB
0
ENDSEC
0
SECTION
2
ENTITIES
0
LINE
8
0
6
CONTINUOUS
10
160.7183701
20
-160.0495167
11
195.7211578
21
-167.9866048
0
LINE
8
0
6
CONTINUOUS
10
196.4373583
20
-168.3067769
11
212.6329069
21
-179.8151823
0
LINE
8
0
6
CONTINUOUS
10
213.0158643
20
-180.1711473
11
225.0980799
21
-194.785723
0
LINE
8
0
6
CONTINUOUS
10
225.369254
20
-195.2148327
11
232.8471144
21
-211.2511561
0
LINE
8
0
6
CONTINUOUS
10
235.5049665
20
-212.218535
11
250.0058911
21
-205.4566428
0
LINE
8
0
6
CONTINUOUS
10
250.97327
20
-202.7987907
11
245.0666452
21
-190.1319929
0
LINE
8
0
6
CONTINUOUS
10
244.9971487
20
-188.6102549
11
270.544242
21
-117.5350275
0
LINE
8
0
6
CONTINUOUS
10
269.3461701
20
-114.9791408
11
232.2821676
21
-101.4889472
0
LINE
8
0
6
CONTINUOUS
10
231.0592476
20
-100.2124737
11
230.1606191
21
-97.370186
0
LINE
8
0
6
CONTINUOUS
10
228.771297
20
-96.0412461
11
210.8641195
21
-91.2430324
0
LINE
8
0
6
CONTINUOUS
10
209.3941301
20
-89.5332997
11
208.6391857
21
-82.7776978
0
LINE
8
0
6
CONTINUOUS
10
206.9988546
20
-81.0302013
11
189.4671155
21
-77.9388827
0
LINE
8
0
6
CONTINUOUS
10
187.23151
20
-79.2494924
11
184.6561856
21
-86.6288026
0
LINE
8
0
6
CONTINUOUS
10
182.5935651
20
-87.9621862
11
165.054851
21
-86.4277476
0
LINE
8
0
6
CONTINUOUS
10
162.9098492
20
-88.078993
11
160.7871626
21
-100.341144
0
LINE
8
0
6
CONTINUOUS
10
158.8164722
20
-102
11
141.5
21
-102
0
LINE
8
0
6
CONTINUOUS
10
139.5
20
-104
11
139.5
21
-158
0
LINE
8
0
6
CONTINUOUS
10
141.5
20
-160
11
160.2760865
21
-160
0
ARC
8
0
6
CONTINUOUS
10
195.2788742
20
-169.9370881
40
2
50
54.6027523
51
77.2238952
0
ARC
8
0
6
CONTINUOUS
10
211.4744229
20
-181.4454936
40
2
50
39.5813472
51
54.6027523
0
ARC
8
0
6
CONTINUOUS
10
223.5566385
20
-196.0600693
40
2
50
25.0000017
51
39.5813472
0
ARC
8
0
6
CONTINUOUS
10
234.65973
20
-210.4059195
40
2
50
205.0000017
51
295.0000017
0
ARC
8
0
6
CONTINUOUS
10
249.1606545
20
-203.6440273
40
2
50
295.0000017
51
25.0000017
0
ARC
8
0
6
CONTINUOUS
10
246.8792608
20
-189.2867563
40
2
50
160.2296662
51
205.0000017
0
ARC
8
0
6
CONTINUOUS
10
268.6621299
20
-116.8585261
40
2
50
340.2296662
51
70.0000019
0
ARC
8
0
6
CONTINUOUS
10
232.9662078
20
-99.6095619
40
2
50
197.5450692
51
250.0000019
0
ARC
8
0
6
CONTINUOUS
10
228.2536589
20
-97.9730978
40
2
50
17.5450692
51
75.0000021
0
ARC
8
0
6
CONTINUOUS
10
211.3817576
20
-89.3111807
40
2
50
186.3763944
51
255.0000021
0
ARC
8
0
6
CONTINUOUS
10
206.6515582
20
-82.9998168
40
2
50
6.3763944
51
79.9999992
0
ARC
8
0
6
CONTINUOUS
10
189.1198191
20
-79.9084982
40
2
50
79.9999992
51
160.7613944
0
ARC
8
0
6
CONTINUOUS
10
182.7678765
20
-85.9697968
40
2
50
265.0000024
51
340.7613944
0
ARC
8
0
6
CONTINUOUS
10
164.8805396
20
-88.420137
40
2
50
85.0000024
51
170.1789219
0
ARC
8
0
6
CONTINUOUS
10
158.8164722
20
-100
40
2
50
270
51
350.1789219
0
ARC
8
0
6
CONTINUOUS
10
141.5
20
-104
40
2
50
90
51
180
0
ARC
8
0
6
CONTINUOUS
10
141.5
20
-158
40
2
50
180
51
270
0
ARC
8
0
6
CONTINUOUS
10
160.2760865
20
-162
40
2
50
77.2238952
51
90
0
ENDSEC
0
EOF