M48
; DRILL file KiCad 10.0.0 date 2026-04-11T19:43:25
; FORMAT={-:-/ absolute / metric / decimal}
; #@! TF.CreationDate,2026-04-11T19:43:25+02:00
; #@! TF.GenerationSoftware,Kicad,Pcbnew,10.0.0
; #@! TF.FileFunction,Plated,1,2,PTH
FMAT,2
METRIC
; #@! TA.AperFunction,Plated,PTH,ViaDrill
T1C0.300
; #@! TA.AperFunction,Plated,PTH,ComponentDrill
T2C0.400
; #@! TA.AperFunction,Plated,PTH,ComponentDrill
T3C0.750
; #@! TA.AperFunction,Plated,PTH,ComponentDrill
T4C1.000
%
G90
G05
T1
X129.17Y-124.502
X129.377Y-125.275
X134.088Y-142.855
X134.295Y-143.627
X137.418Y-119.287
X139.005Y-161.207
X139.212Y-161.98
X142.335Y-137.639
X147.098Y-104.307
X147.237Y-105.095
X147.253Y-155.992
X150.397Y-123.018
X150.536Y-123.806
X153.697Y-141.73
X153.836Y-142.517
X155.549Y-99.849
X158.648Y-118.578
X162.148Y-137.272
X167.586Y-90.675
X167.656Y-91.472
X169.242Y-109.603
X169.312Y-110.4
X170.898Y-128.53
X170.968Y-129.327
X176.357Y-87.092
X178.003Y-105.899
X179.659Y-124.826
X190.927Y-98.804
X190.927Y-117.804
X190.927Y-136.804
X190.927Y-137.604
X190.927Y-99.604
X190.927Y-118.604
X199.389Y-161.597
X199.663Y-160.846
X199.856Y-133.736
X200.04Y-114.719
X200.04Y-95.832
X209.094Y-160.921
X210.09Y-142.59
X210.159Y-141.793
X211.746Y-123.662
X211.815Y-122.865
X213.402Y-104.734
X213.471Y-103.937
X217.926Y-171.321
X218.385Y-170.665
X219.18Y-139.495
X220.836Y-120.567
X222.477Y-101.811
X227.426Y-173.416
X233.315Y-185.51
X233.928Y-184.996
X242.017Y-189.853
T2
X229.334Y-124.563
X229.555Y-122.033
X229.777Y-119.503
X229.998Y-116.972
X230.219Y-114.442
X230.441Y-111.912
X230.662Y-109.381
X230.884Y-106.851
X231.105Y-104.321
X231.326Y-101.79
X231.548Y-99.26
X231.769Y-96.73
X236.108Y-125.156
X236.329Y-122.626
X236.551Y-120.095
X236.772Y-117.565
X236.994Y-115.035
X237.215Y-112.504
X237.436Y-109.974
X237.658Y-107.444
X237.879Y-104.913
X238.1Y-102.383
X238.322Y-99.853
X238.543Y-97.322
T3
X224.897Y-133.972
X225.071Y-131.98
T4
X225.13Y-124.196
X225.351Y-121.665
X225.573Y-119.135
X225.794Y-116.605
X226.016Y-114.074
X226.237Y-111.544
X226.458Y-109.014
X226.68Y-106.483
X226.901Y-103.953
X227.122Y-101.423
X227.344Y-98.892
X227.565Y-96.362
X240.312Y-125.524
X240.533Y-122.993
X240.755Y-120.463
X240.976Y-117.933
X241.198Y-115.402
X241.419Y-112.872
X241.64Y-110.342
X241.862Y-107.811
X242.083Y-105.281
X242.304Y-102.751
X242.526Y-100.22
X242.747Y-97.69
M30
