%TF.GenerationSoftware,KiCad,Pcbnew,10.0.0*%
%TF.CreationDate,2026-04-11T19:43:27+02:00*%
%TF.ProjectId,rustboard_pcb,72757374-626f-4617-9264-5f7063622e6b,v1.0.0*%
%TF.SameCoordinates,Original*%
%TF.FileFunction,Legend,Bot*%
%TF.FilePolarity,Positive*%
%FSLAX46Y46*%
G04 Gerber Fmt 4.6, Leading zero omitted, Abs format (unit mm)*
G04 Created by KiCad (PCBNEW 10.0.0) date 2026-04-11 19:43:27*
%MOMM*%
%LPD*%
G01*
G04 APERTURE LIST*
%ADD10C,0.150000*%
%ADD11C,0.100000*%
%ADD12C,0.120000*%
G04 APERTURE END LIST*
D10*
X243450217Y-95653452D02*
X243924595Y-95694954D01*
X243924595Y-95694954D02*
X244011751Y-94698760D01*
X242359146Y-95557995D02*
X242446302Y-94561801D01*
X241932205Y-95520643D02*
X241977858Y-94998827D01*
X241977858Y-94998827D02*
X242033597Y-94908101D01*
X242033597Y-94908101D02*
X242132623Y-94868964D01*
X242132623Y-94868964D02*
X242274936Y-94881415D01*
X242274936Y-94881415D02*
X242365662Y-94937153D01*
X242365662Y-94937153D02*
X242408949Y-94988741D01*
X241030886Y-95441788D02*
X241076539Y-94919971D01*
X241076539Y-94919971D02*
X241132278Y-94829246D01*
X241132278Y-94829246D02*
X241231304Y-94790109D01*
X241231304Y-94790109D02*
X241421055Y-94806710D01*
X241421055Y-94806710D02*
X241511780Y-94862448D01*
X241035036Y-95394350D02*
X241125762Y-95450088D01*
X241125762Y-95450088D02*
X241362951Y-95470840D01*
X241362951Y-95470840D02*
X241461977Y-95431702D01*
X241461977Y-95431702D02*
X241517715Y-95340977D01*
X241517715Y-95340977D02*
X241526016Y-95246101D01*
X241526016Y-95246101D02*
X241486879Y-95147075D01*
X241486879Y-95147075D02*
X241396153Y-95091337D01*
X241396153Y-95091337D02*
X241158964Y-95070585D01*
X241158964Y-95070585D02*
X241068239Y-95014847D01*
X240614611Y-94736155D02*
X240556508Y-95400285D01*
X240606311Y-94831031D02*
X240563023Y-94779443D01*
X240563023Y-94779443D02*
X240472298Y-94723704D01*
X240472298Y-94723704D02*
X240329984Y-94711254D01*
X240329984Y-94711254D02*
X240230958Y-94750391D01*
X240230958Y-94750391D02*
X240175220Y-94841116D01*
X240175220Y-94841116D02*
X240129567Y-95362932D01*
X239228248Y-95284077D02*
X239315404Y-94287883D01*
X239232398Y-95236639D02*
X239323124Y-95292378D01*
X239323124Y-95292378D02*
X239512875Y-95308979D01*
X239512875Y-95308979D02*
X239611901Y-95269842D01*
X239611901Y-95269842D02*
X239663489Y-95226554D01*
X239663489Y-95226554D02*
X239719227Y-95135829D01*
X239719227Y-95135829D02*
X239744129Y-94851202D01*
X239744129Y-94851202D02*
X239704992Y-94752176D01*
X239704992Y-94752176D02*
X239661704Y-94700588D01*
X239661704Y-94700588D02*
X239570979Y-94644849D01*
X239570979Y-94644849D02*
X239381227Y-94628248D01*
X239381227Y-94628248D02*
X239282201Y-94667385D01*
X237994864Y-95176170D02*
X238082019Y-94179975D01*
X238048817Y-94559478D02*
X237958092Y-94503740D01*
X237958092Y-94503740D02*
X237768340Y-94487139D01*
X237768340Y-94487139D02*
X237669315Y-94526276D01*
X237669315Y-94526276D02*
X237617726Y-94569564D01*
X237617726Y-94569564D02*
X237561988Y-94660289D01*
X237561988Y-94660289D02*
X237537086Y-94944916D01*
X237537086Y-94944916D02*
X237576224Y-95043942D01*
X237576224Y-95043942D02*
X237619511Y-95095530D01*
X237619511Y-95095530D02*
X237710237Y-95151269D01*
X237710237Y-95151269D02*
X237899988Y-95167870D01*
X237899988Y-95167870D02*
X237999014Y-95128732D01*
X236666604Y-95059962D02*
X236712257Y-94538146D01*
X236712257Y-94538146D02*
X236767995Y-94447421D01*
X236767995Y-94447421D02*
X236867021Y-94408284D01*
X236867021Y-94408284D02*
X237056773Y-94424885D01*
X237056773Y-94424885D02*
X237147498Y-94480623D01*
X236670754Y-95012525D02*
X236761480Y-95068263D01*
X236761480Y-95068263D02*
X236998669Y-95089014D01*
X236998669Y-95089014D02*
X237097695Y-95049877D01*
X237097695Y-95049877D02*
X237153433Y-94959152D01*
X237153433Y-94959152D02*
X237161734Y-94864276D01*
X237161734Y-94864276D02*
X237122597Y-94765250D01*
X237122597Y-94765250D02*
X237031871Y-94709512D01*
X237031871Y-94709512D02*
X236794682Y-94688760D01*
X236794682Y-94688760D02*
X236703956Y-94633022D01*
X235769435Y-94933669D02*
X235860161Y-94989408D01*
X235860161Y-94989408D02*
X236049912Y-95006009D01*
X236049912Y-95006009D02*
X236148938Y-94966872D01*
X236148938Y-94966872D02*
X236200526Y-94923584D01*
X236200526Y-94923584D02*
X236256264Y-94832859D01*
X236256264Y-94832859D02*
X236281166Y-94548232D01*
X236281166Y-94548232D02*
X236242029Y-94449206D01*
X236242029Y-94449206D02*
X236198741Y-94397618D01*
X236198741Y-94397618D02*
X236108016Y-94341879D01*
X236108016Y-94341879D02*
X235918264Y-94325278D01*
X235918264Y-94325278D02*
X235819238Y-94364415D01*
X235338344Y-94943755D02*
X235425500Y-93947560D01*
X235276671Y-94555952D02*
X234958841Y-94910553D01*
X235016945Y-94246423D02*
X235363246Y-94659128D01*
X233824483Y-94763508D02*
X233725457Y-94802645D01*
X233725457Y-94802645D02*
X233535706Y-94786044D01*
X233535706Y-94786044D02*
X233444980Y-94730306D01*
X233444980Y-94730306D02*
X233405843Y-94631280D01*
X233405843Y-94631280D02*
X233409993Y-94583842D01*
X233409993Y-94583842D02*
X233465732Y-94493117D01*
X233465732Y-94493117D02*
X233564758Y-94453979D01*
X233564758Y-94453979D02*
X233707071Y-94466430D01*
X233707071Y-94466430D02*
X233806097Y-94427293D01*
X233806097Y-94427293D02*
X233861836Y-94336568D01*
X233861836Y-94336568D02*
X233865986Y-94289130D01*
X233865986Y-94289130D02*
X233826848Y-94190104D01*
X233826848Y-94190104D02*
X233736123Y-94134365D01*
X233736123Y-94134365D02*
X233593810Y-94121915D01*
X233593810Y-94121915D02*
X233494784Y-94161052D01*
X232966451Y-94736241D02*
X233024555Y-94072111D01*
X233053607Y-93740046D02*
X233096895Y-93791634D01*
X233096895Y-93791634D02*
X233045307Y-93834922D01*
X233045307Y-93834922D02*
X233002019Y-93783334D01*
X233002019Y-93783334D02*
X233053607Y-93740046D01*
X233053607Y-93740046D02*
X233045307Y-93834922D01*
X232065133Y-94657386D02*
X232152289Y-93661191D01*
X232069283Y-94609948D02*
X232160009Y-94665686D01*
X232160009Y-94665686D02*
X232349760Y-94682288D01*
X232349760Y-94682288D02*
X232448786Y-94643150D01*
X232448786Y-94643150D02*
X232500374Y-94599863D01*
X232500374Y-94599863D02*
X232556112Y-94509137D01*
X232556112Y-94509137D02*
X232581014Y-94224510D01*
X232581014Y-94224510D02*
X232541877Y-94125484D01*
X232541877Y-94125484D02*
X232498589Y-94073896D01*
X232498589Y-94073896D02*
X232407864Y-94018158D01*
X232407864Y-94018158D02*
X232218112Y-94001557D01*
X232218112Y-94001557D02*
X232119086Y-94040694D01*
X231215402Y-94535243D02*
X231306127Y-94590982D01*
X231306127Y-94590982D02*
X231495879Y-94607583D01*
X231495879Y-94607583D02*
X231594905Y-94568445D01*
X231594905Y-94568445D02*
X231650643Y-94477720D01*
X231650643Y-94477720D02*
X231683845Y-94098217D01*
X231683845Y-94098217D02*
X231644708Y-93999191D01*
X231644708Y-93999191D02*
X231553982Y-93943453D01*
X231553982Y-93943453D02*
X231364231Y-93926852D01*
X231364231Y-93926852D02*
X231265205Y-93965989D01*
X231265205Y-93965989D02*
X231209467Y-94056714D01*
X231209467Y-94056714D02*
X231201166Y-94151590D01*
X231201166Y-94151590D02*
X231667244Y-94287969D01*
X229660038Y-94829375D02*
X229711626Y-94786087D01*
X229711626Y-94786087D02*
X229818953Y-94652074D01*
X229818953Y-94652074D02*
X229874691Y-94561349D01*
X229874691Y-94561349D02*
X229934580Y-94423186D01*
X229934580Y-94423186D02*
X230002769Y-94190147D01*
X230002769Y-94190147D02*
X230019370Y-94000395D01*
X230019370Y-94000395D02*
X229992684Y-93759056D01*
X229992684Y-93759056D02*
X229957697Y-93612592D01*
X229957697Y-93612592D02*
X229918559Y-93513566D01*
X229918559Y-93513566D02*
X229836134Y-93362952D01*
X229836134Y-93362952D02*
X229792847Y-93311364D01*
X229313737Y-94416670D02*
X229400893Y-93420475D01*
X229400893Y-93420475D02*
X229006574Y-94102991D01*
X229006574Y-94102991D02*
X228736763Y-93362371D01*
X228736763Y-93362371D02*
X228649607Y-94358566D01*
X227862131Y-93524856D02*
X227795726Y-94283861D01*
X227622576Y-94077509D02*
X227795726Y-94283861D01*
X227795726Y-94283861D02*
X228002079Y-94110711D01*
X227003519Y-94596960D02*
X226960231Y-94545372D01*
X226960231Y-94545372D02*
X226877806Y-94394757D01*
X226877806Y-94394757D02*
X226838669Y-94295731D01*
X226838669Y-94295731D02*
X226803682Y-94149268D01*
X226803682Y-94149268D02*
X226776996Y-93907928D01*
X226776996Y-93907928D02*
X226793597Y-93718177D01*
X226793597Y-93718177D02*
X226861786Y-93485138D01*
X226861786Y-93485138D02*
X226921675Y-93346975D01*
X226921675Y-93346975D02*
X226977413Y-93256249D01*
X226977413Y-93256249D02*
X227084740Y-93122236D01*
X227084740Y-93122236D02*
X227136328Y-93078949D01*
X241447773Y-139018411D02*
X241258021Y-139001809D01*
X241258021Y-139001809D02*
X241158995Y-139040947D01*
X241158995Y-139040947D02*
X241055819Y-139127522D01*
X241055819Y-139127522D02*
X240991780Y-139313123D01*
X240991780Y-139313123D02*
X240962728Y-139645188D01*
X240962728Y-139645188D02*
X240993565Y-139839090D01*
X240993565Y-139839090D02*
X241080140Y-139942266D01*
X241080140Y-139942266D02*
X241170866Y-139998004D01*
X241170866Y-139998004D02*
X241360617Y-140014605D01*
X241360617Y-140014605D02*
X241459643Y-139975468D01*
X241459643Y-139975468D02*
X241562819Y-139888893D01*
X241562819Y-139888893D02*
X241626858Y-139703292D01*
X241626858Y-139703292D02*
X241655910Y-139371227D01*
X241655910Y-139371227D02*
X241625073Y-139177325D01*
X241625073Y-139177325D02*
X241538498Y-139074149D01*
X241538498Y-139074149D02*
X241447773Y-139018411D01*
X240220324Y-139389032D02*
X240552389Y-139418084D01*
X240506736Y-139939900D02*
X240593892Y-138943706D01*
X240593892Y-138943706D02*
X240119513Y-138902203D01*
X239366443Y-139314327D02*
X239698507Y-139343379D01*
X239652854Y-139865195D02*
X239740010Y-138869001D01*
X239740010Y-138869001D02*
X239265632Y-138827498D01*
X241893484Y-128877557D02*
X241703733Y-128860956D01*
X241703733Y-128860956D02*
X241604707Y-128900093D01*
X241604707Y-128900093D02*
X241501530Y-128986668D01*
X241501530Y-128986668D02*
X241437492Y-129172269D01*
X241437492Y-129172269D02*
X241408440Y-129504334D01*
X241408440Y-129504334D02*
X241439276Y-129698236D01*
X241439276Y-129698236D02*
X241525852Y-129801412D01*
X241525852Y-129801412D02*
X241616577Y-129857150D01*
X241616577Y-129857150D02*
X241806328Y-129873751D01*
X241806328Y-129873751D02*
X241905354Y-129834614D01*
X241905354Y-129834614D02*
X242008531Y-129748039D01*
X242008531Y-129748039D02*
X242072569Y-129562438D01*
X242072569Y-129562438D02*
X242101621Y-129230373D01*
X242101621Y-129230373D02*
X242070785Y-129036471D01*
X242070785Y-129036471D02*
X241984209Y-128933295D01*
X241984209Y-128933295D02*
X241893484Y-128877557D01*
X240952447Y-129799046D02*
X241039603Y-128802852D01*
X241039603Y-128802852D02*
X240383193Y-129749243D01*
X240383193Y-129749243D02*
X240470349Y-128753048D01*
%TO.C,D11*%
D11*
X196377386Y-114329434D02*
X196977384Y-114729432D01*
X196377386Y-114729432D02*
X195877388Y-114729432D01*
X196377386Y-115129432D02*
X196377386Y-114329434D01*
X196977384Y-114729432D02*
X196377386Y-115129432D01*
X196977384Y-114729432D02*
X196977386Y-115279428D01*
X196977384Y-114729432D02*
X196977388Y-114179431D01*
X197377386Y-114729432D02*
X196977384Y-114729432D01*
%TO.C,JST1*%
D12*
X223263062Y-135897339D02*
X224259257Y-135984495D01*
X223350219Y-134901145D02*
X223263062Y-135897339D01*
X223716272Y-130717127D02*
X223796455Y-129800628D01*
X223796455Y-129800628D02*
X224792649Y-129887784D01*
X231053305Y-136578897D02*
X230057108Y-136491738D01*
X231133488Y-135662396D02*
X231053305Y-136578897D01*
X231506515Y-131398685D02*
X231586698Y-130482186D01*
X231586698Y-130482186D02*
X230590502Y-130395029D01*
D11*
X231770788Y-134573808D02*
X232766988Y-134660953D01*
X232225309Y-135115475D02*
X232312466Y-134119281D01*
X232486778Y-132126892D02*
X232399614Y-133123086D01*
%TO.C,D10*%
X196377382Y-133329405D02*
X196977380Y-133729403D01*
X196377382Y-133729403D02*
X195877384Y-133729403D01*
X196377382Y-134129403D02*
X196377382Y-133329405D01*
X196977380Y-133729403D02*
X196377382Y-134129403D01*
X196977380Y-133729403D02*
X196977382Y-134279399D01*
X196977380Y-133729403D02*
X196977384Y-133179402D01*
X197377382Y-133729403D02*
X196977380Y-133729403D01*
%TO.C,D12*%
X196377381Y-95329421D02*
X196977379Y-95729419D01*
X196377381Y-95729419D02*
X195877383Y-95729419D01*
X196377381Y-96129419D02*
X196377381Y-95329421D01*
X196977379Y-95729419D02*
X196377381Y-96129419D01*
X196977379Y-95729419D02*
X196977381Y-96279415D01*
X196977379Y-95729419D02*
X196977383Y-95179418D01*
X197377381Y-95729419D02*
X196977379Y-95729419D01*
%TO.C,PWR1*%
D12*
X239381736Y-135641207D02*
X239364303Y-135840444D01*
X239643202Y-132652619D02*
X239495039Y-134346155D01*
X240850447Y-130901177D02*
X241637436Y-130970031D01*
X241036064Y-137843774D02*
X240249070Y-137774923D01*
X242591303Y-131655775D02*
X242094514Y-137334087D01*
%TO.C,D16*%
D11*
X205699234Y-160195946D02*
X205972854Y-159444192D01*
X205836044Y-159820070D02*
X205366199Y-159649058D01*
X205972854Y-159444192D02*
X206399862Y-160025282D01*
X206399862Y-160025282D02*
X205699234Y-160195946D01*
X206399862Y-160025282D02*
X206211751Y-160542114D01*
X206399862Y-160025282D02*
X206587971Y-159508449D01*
X206775739Y-160162092D02*
X206399862Y-160025282D01*
%TO.C,D3*%
X133535149Y-119734971D02*
X134218231Y-119966049D01*
X133638675Y-120121342D02*
X133155714Y-120250751D01*
X133742204Y-120507712D02*
X133535149Y-119734971D01*
X134218231Y-119966049D02*
X133742204Y-120507712D01*
X134218231Y-119966049D02*
X134075882Y-119434792D01*
X134218231Y-119966049D02*
X134360581Y-120497308D01*
X134604602Y-119862523D02*
X134218231Y-119966049D01*
%TO.C,D7*%
X176024425Y-124593526D02*
X176657004Y-124939706D01*
X176059287Y-124992002D02*
X175561191Y-125035580D01*
X176094150Y-125390480D02*
X176024425Y-124593526D01*
X176657004Y-124939706D02*
X176094150Y-125390480D01*
X176657004Y-124939706D02*
X176609070Y-124391803D01*
X176657004Y-124939706D02*
X176704939Y-125487612D01*
X177055483Y-124904846D02*
X176657004Y-124939706D01*
%TO.C,D2*%
X138452688Y-138087555D02*
X139135770Y-138318633D01*
X138556214Y-138473926D02*
X138073253Y-138603335D01*
X138659743Y-138860296D02*
X138452688Y-138087555D01*
X139135770Y-138318633D02*
X138659743Y-138860296D01*
X139135770Y-138318633D02*
X138993421Y-137787376D01*
X139135770Y-138318633D02*
X139278120Y-138849892D01*
X139522141Y-138215107D02*
X139135770Y-138318633D01*
%TO.C,D4*%
X158460504Y-137360916D02*
X159120848Y-137650650D01*
X158529962Y-137754839D02*
X158037559Y-137841665D01*
X158599422Y-138148762D02*
X158460504Y-137360916D01*
X159120848Y-137650650D02*
X158599422Y-138148762D01*
X159120848Y-137650650D02*
X159025342Y-137109007D01*
X159120848Y-137650650D02*
X159216352Y-138192291D01*
X159514771Y-137581189D02*
X159120848Y-137650650D01*
%TO.C,D1*%
X143370273Y-156440157D02*
X144053355Y-156671235D01*
X143473799Y-156826528D02*
X142990838Y-156955937D01*
X143577328Y-157212898D02*
X143370273Y-156440157D01*
X144053355Y-156671235D02*
X143577328Y-157212898D01*
X144053355Y-156671235D02*
X143911006Y-156139978D01*
X144053355Y-156671235D02*
X144195705Y-157202494D01*
X144439726Y-156567709D02*
X144053355Y-156671235D01*
%TO.C,D14*%
X217477732Y-120675179D02*
X217547462Y-119878227D01*
X217512600Y-120276703D02*
X217014505Y-120233125D01*
X217547462Y-119878227D02*
X218110318Y-120328998D01*
X218110318Y-120328998D02*
X217477732Y-120675179D01*
X218110318Y-120328998D02*
X218062382Y-120876900D01*
X218110318Y-120328998D02*
X218158254Y-119781091D01*
X218508795Y-120363859D02*
X218110318Y-120328998D01*
%TO.C,D6*%
X151861872Y-99938227D02*
X152522216Y-100227961D01*
X151931330Y-100332150D02*
X151438927Y-100418976D01*
X152000790Y-100726073D02*
X151861872Y-99938227D01*
X152522216Y-100227961D02*
X152000790Y-100726073D01*
X152522216Y-100227961D02*
X152426710Y-99686318D01*
X152522216Y-100227961D02*
X152617720Y-100769602D01*
X152916139Y-100158500D02*
X152522216Y-100227961D01*
%TO.C,D13*%
X215821780Y-139602898D02*
X215891510Y-138805946D01*
X215856648Y-139204422D02*
X215358553Y-139160844D01*
X215891510Y-138805946D02*
X216454366Y-139256717D01*
X216454366Y-139256717D02*
X215821780Y-139602898D01*
X216454366Y-139256717D02*
X216406430Y-139804619D01*
X216454366Y-139256717D02*
X216502302Y-138708810D01*
X216852843Y-139291578D02*
X216454366Y-139256717D01*
%TO.C,D15*%
X219133686Y-101747492D02*
X219203416Y-100950540D01*
X219168554Y-101349016D02*
X218670459Y-101305438D01*
X219203416Y-100950540D02*
X219766272Y-101401311D01*
X219766272Y-101401311D02*
X219133686Y-101747492D01*
X219766272Y-101401311D02*
X219718336Y-101949213D01*
X219766272Y-101401311D02*
X219814208Y-100853404D01*
X220164749Y-101436172D02*
X219766272Y-101401311D01*
%TO.C,D18*%
X239480139Y-187451542D02*
X240092978Y-186937314D01*
X239786558Y-187194427D02*
X239465166Y-186811407D01*
X240092978Y-186937314D02*
X240172234Y-187654055D01*
X240172234Y-187654055D02*
X239480139Y-187451542D01*
X240172234Y-187654055D02*
X239750907Y-188007588D01*
X240172234Y-187654055D02*
X240593556Y-187300525D01*
X240429346Y-187960473D02*
X240172234Y-187654055D01*
%TO.C,D17*%
X224383819Y-171600081D02*
X224842683Y-170944760D01*
X224613249Y-171272421D02*
X224203677Y-170985632D01*
X224842683Y-170944760D02*
X225104749Y-171616567D01*
X225104749Y-171616567D02*
X224383819Y-171600081D01*
X225104749Y-171616567D02*
X224789276Y-172067099D01*
X225104749Y-171616567D02*
X225420207Y-171166036D01*
X225432403Y-171845998D02*
X225104749Y-171616567D01*
%TO.C,D9*%
X172712511Y-86738120D02*
X173345090Y-87084300D01*
X172747373Y-87136596D02*
X172249277Y-87180174D01*
X172782236Y-87535074D02*
X172712511Y-86738120D01*
X173345090Y-87084300D02*
X172782236Y-87535074D01*
X173345090Y-87084300D02*
X173297156Y-86536397D01*
X173345090Y-87084300D02*
X173393025Y-87632206D01*
X173743569Y-87049440D02*
X173345090Y-87084300D01*
%TO.C,D8*%
X174368470Y-105665842D02*
X175001049Y-106012022D01*
X174403332Y-106064318D02*
X173905236Y-106107896D01*
X174438195Y-106462796D02*
X174368470Y-105665842D01*
X175001049Y-106012022D02*
X174438195Y-106462796D01*
X175001049Y-106012022D02*
X174953115Y-105464119D01*
X175001049Y-106012022D02*
X175048984Y-106559928D01*
X175399528Y-105977162D02*
X175001049Y-106012022D01*
%TO.C,D5*%
X155161190Y-118649563D02*
X155821534Y-118939297D01*
X155230648Y-119043486D02*
X154738245Y-119130312D01*
X155300108Y-119437409D02*
X155161190Y-118649563D01*
X155821534Y-118939297D02*
X155300108Y-119437409D01*
X155821534Y-118939297D02*
X155726028Y-118397654D01*
X155821534Y-118939297D02*
X155917038Y-119480938D01*
X156215457Y-118869836D02*
X155821534Y-118939297D01*
%TO.C,S12*%
D10*
X183927382Y-101929408D02*
X183927383Y-101329408D01*
X183927383Y-97229407D02*
X188427382Y-97229406D01*
X183927384Y-97729405D02*
X183927383Y-97229407D01*
X188407383Y-101929408D02*
X183927382Y-101929408D01*
X188427382Y-97229406D02*
X188427383Y-97929407D01*
X188927384Y-103429408D02*
X188927383Y-102509407D01*
X188927384Y-103429408D02*
X189427383Y-103929408D01*
X189427383Y-103929408D02*
X192427382Y-103929414D01*
X190127381Y-99429408D02*
X192427382Y-99429408D01*
X192427382Y-99429408D02*
X192927385Y-99929408D01*
X192427382Y-103929414D02*
X192927384Y-103429408D01*
X188407383Y-101929408D02*
G75*
G02*
X188927383Y-102509407I-30000J-550000D01*
G01*
X190127381Y-99429408D02*
G75*
G02*
X188427383Y-97949408I-109998J1590000D01*
G01*
%TO.C,S9*%
X160475486Y-89715995D02*
X164958361Y-89323792D01*
X160519063Y-90214093D02*
X160475486Y-89715995D01*
X160885117Y-94398110D02*
X160832824Y-93800394D01*
X164958361Y-89323792D02*
X165019369Y-90021131D01*
X165348070Y-94007652D02*
X160885117Y-94398110D01*
X165996826Y-95456623D02*
X165916641Y-94540124D01*
X165996826Y-95456623D02*
X166538500Y-95911143D01*
X166538500Y-95911143D02*
X169527084Y-95649676D01*
X166843633Y-91367258D02*
X169134882Y-91166800D01*
X169134882Y-91166800D02*
X169676561Y-91621319D01*
X169527084Y-95649676D02*
X169981605Y-95108001D01*
X165348070Y-94007652D02*
G75*
G02*
X165916642Y-94540124I18050J-550522D01*
G01*
X166843633Y-91367258D02*
G75*
G02*
X165021114Y-90041054I-248157J1574362D01*
G01*
%TO.C,S1*%
X131836243Y-161497696D02*
X136182909Y-160333011D01*
X131965653Y-161980660D02*
X131836243Y-161497696D01*
X133052694Y-166037547D02*
X132897400Y-165457993D01*
X136182909Y-160333011D02*
X136364081Y-161009160D01*
X137380040Y-164878039D02*
X133052694Y-166037547D01*
X138270551Y-166192342D02*
X138032437Y-165303690D01*
X138270551Y-166192342D02*
X138882922Y-166545897D01*
X138394383Y-162018056D02*
X140616014Y-161422774D01*
X138882922Y-166545897D02*
X141780700Y-165769438D01*
X140616014Y-161422774D02*
X141228389Y-161776325D01*
X141780700Y-165769438D02*
X142134254Y-165157066D01*
X137380040Y-164878039D02*
G75*
G02*
X138032437Y-165303690I113373J-539024D01*
G01*
X138394383Y-162018056D02*
G75*
G02*
X136369259Y-161028477I-517774J1507348D01*
G01*
%TO.C,S8*%
X162131449Y-108643688D02*
X166614324Y-108251485D01*
X162175026Y-109141786D02*
X162131449Y-108643688D01*
X162541080Y-113325803D02*
X162488787Y-112728087D01*
X166614324Y-108251485D02*
X166675332Y-108948824D01*
X167004033Y-112935345D02*
X162541080Y-113325803D01*
X167652789Y-114384316D02*
X167572604Y-113467817D01*
X167652789Y-114384316D02*
X168194463Y-114838836D01*
X168194463Y-114838836D02*
X171183047Y-114577369D01*
X168499596Y-110294951D02*
X170790845Y-110094493D01*
X170790845Y-110094493D02*
X171332524Y-110549012D01*
X171183047Y-114577369D02*
X171637568Y-114035694D01*
X167004033Y-112935345D02*
G75*
G02*
X167572605Y-113467817I18050J-550522D01*
G01*
X168499596Y-110294951D02*
G75*
G02*
X166677077Y-108968747I-248157J1574362D01*
G01*
%TO.C,S3*%
X122001112Y-124792524D02*
X126347778Y-123627839D01*
X122130522Y-125275488D02*
X122001112Y-124792524D01*
X123217563Y-129332375D02*
X123062269Y-128752821D01*
X126347778Y-123627839D02*
X126528950Y-124303988D01*
X127544909Y-128172867D02*
X123217563Y-129332375D01*
X128435420Y-129487170D02*
X128197306Y-128598518D01*
X128435420Y-129487170D02*
X129047791Y-129840725D01*
X128559252Y-125312884D02*
X130780883Y-124717602D01*
X129047791Y-129840725D02*
X131945569Y-129064266D01*
X130780883Y-124717602D02*
X131393258Y-125071153D01*
X131945569Y-129064266D02*
X132299123Y-128451894D01*
X127544909Y-128172867D02*
G75*
G02*
X128197306Y-128598518I113373J-539024D01*
G01*
X128559252Y-125312884D02*
G75*
G02*
X126534128Y-124323305I-517774J1507348D01*
G01*
%TO.C,S14*%
X204569600Y-125368037D02*
X204621894Y-124770321D01*
X204935656Y-121184016D02*
X204979232Y-120685923D01*
X204979232Y-120685923D02*
X209462109Y-121078123D01*
X209032553Y-125758495D02*
X204569600Y-125368037D01*
X209419841Y-127298109D02*
X209500024Y-126381608D01*
X209419841Y-127298109D02*
X209874360Y-127839783D01*
X209462109Y-121078123D02*
X209401099Y-121775458D01*
X209874360Y-127839783D02*
X212862944Y-128101250D01*
X210963898Y-123417917D02*
X213255144Y-123618374D01*
X212862944Y-128101250D02*
X213404619Y-127646730D01*
X213255144Y-123618374D02*
X213709664Y-124160048D01*
X209032553Y-125758495D02*
G75*
G02*
X209500023Y-126381608I-77822J-545292D01*
G01*
X210963898Y-123417917D02*
G75*
G02*
X209399355Y-121795382I28999J1593542D01*
G01*
%TO.C,S17*%
X210858632Y-169210126D02*
X211202784Y-168718633D01*
X213267658Y-165769688D02*
X213554447Y-165360109D01*
X213554447Y-165360109D02*
X217240632Y-167941199D01*
X214094034Y-173306734D02*
X214216821Y-174003099D01*
X214094034Y-173306734D02*
X214621726Y-172553114D01*
X214216821Y-174003099D02*
X216674278Y-175723828D01*
X214528439Y-171779747D02*
X210858632Y-169210126D01*
X216674278Y-175723828D02*
X217370641Y-175601039D01*
X217240632Y-167941199D02*
X216839124Y-168514607D01*
X217371321Y-170718418D02*
X219255372Y-172037642D01*
X219255372Y-172037642D02*
X219378162Y-172734006D01*
X214528439Y-171779747D02*
G75*
G02*
X214621724Y-172553112I-340042J-433325D01*
G01*
X217371321Y-170718418D02*
G75*
G02*
X216827655Y-168530992I821880J1365546D01*
G01*
%TO.C,S2*%
X126918690Y-143145097D02*
X131265356Y-141980412D01*
X127048100Y-143628061D02*
X126918690Y-143145097D01*
X128135141Y-147684948D02*
X127979847Y-147105394D01*
X131265356Y-141980412D02*
X131446528Y-142656561D01*
X132462487Y-146525440D02*
X128135141Y-147684948D01*
X133352998Y-147839743D02*
X133114884Y-146951091D01*
X133352998Y-147839743D02*
X133965369Y-148193298D01*
X133476830Y-143665457D02*
X135698461Y-143070175D01*
X133965369Y-148193298D02*
X136863147Y-147416839D01*
X135698461Y-143070175D02*
X136310836Y-143423726D01*
X136863147Y-147416839D02*
X137216701Y-146804467D01*
X132462487Y-146525440D02*
G75*
G02*
X133114884Y-146951091I113373J-539024D01*
G01*
X133476830Y-143665457D02*
G75*
G02*
X131451706Y-142675878I-517774J1507348D01*
G01*
%TO.C,S4*%
X146529578Y-141393967D02*
X150961213Y-140612551D01*
X146616403Y-141886372D02*
X146529578Y-141393967D01*
X147345725Y-146022564D02*
X147241535Y-145431680D01*
X150961213Y-140612551D02*
X151082765Y-141301917D01*
X151757663Y-145244620D02*
X147345725Y-146022564D01*
X152530236Y-146631535D02*
X152370480Y-145725512D01*
X152530236Y-146631535D02*
X153109463Y-147037116D01*
X153017410Y-142483926D02*
X155282470Y-142084537D01*
X153109463Y-147037116D02*
X156063887Y-146516170D01*
X155282470Y-142084537D02*
X155861700Y-142490115D01*
X156063887Y-146516170D02*
X156469467Y-145936943D01*
X151757663Y-145244620D02*
G75*
G02*
X152370479Y-145725512I65962J-546854D01*
G01*
X153017410Y-142483926D02*
G75*
G02*
X151086240Y-141321611I-384430J1546738D01*
G01*
%TO.C,S18*%
X227034386Y-181642465D02*
X227494015Y-181256793D01*
X229037626Y-187141289D02*
X230965994Y-189439417D01*
X229099260Y-186436866D02*
X229037626Y-187141289D01*
X229099260Y-186436866D02*
X229804020Y-185845503D01*
X229914077Y-185074343D02*
X227034386Y-181642465D01*
X230251776Y-178942755D02*
X230634797Y-178621362D01*
X230634797Y-178621362D02*
X233527342Y-182068563D01*
X230965994Y-189439417D02*
X231670412Y-189501046D01*
X232934782Y-184784970D02*
X234413194Y-186546873D01*
X233527342Y-182068563D02*
X232991110Y-182518515D01*
X234413194Y-186546873D02*
X234351567Y-187251294D01*
X229914077Y-185074343D02*
G75*
G02*
X229804020Y-185845503I-440608J-330552D01*
G01*
X232934782Y-184784970D02*
G75*
G02*
X232975790Y-182531368I1147305J1106297D01*
G01*
%TO.C,S15*%
X206225581Y-106440330D02*
X206277875Y-105842614D01*
X206591637Y-102256309D02*
X206635213Y-101758216D01*
X206635213Y-101758216D02*
X211118090Y-102150416D01*
X210688534Y-106830788D02*
X206225581Y-106440330D01*
X211075822Y-108370402D02*
X211156005Y-107453901D01*
X211075822Y-108370402D02*
X211530341Y-108912076D01*
X211118090Y-102150416D02*
X211057080Y-102847751D01*
X211530341Y-108912076D02*
X214518925Y-109173543D01*
X212619879Y-104490210D02*
X214911125Y-104690667D01*
X214518925Y-109173543D02*
X215060600Y-108719023D01*
X214911125Y-104690667D02*
X215365645Y-105232341D01*
X210688534Y-106830788D02*
G75*
G02*
X211156004Y-107453901I-77822J-545292D01*
G01*
X212619879Y-104490210D02*
G75*
G02*
X211055336Y-102867675I28999J1593542D01*
G01*
%TO.C,S10*%
X183927392Y-139929404D02*
X183927393Y-139329404D01*
X183927393Y-135229403D02*
X188427392Y-135229402D01*
X183927394Y-135729401D02*
X183927393Y-135229403D01*
X188407393Y-139929404D02*
X183927392Y-139929404D01*
X188427392Y-135229402D02*
X188427393Y-135929403D01*
X188927394Y-141429404D02*
X188927393Y-140509403D01*
X188927394Y-141429404D02*
X189427393Y-141929404D01*
X189427393Y-141929404D02*
X192427392Y-141929410D01*
X190127391Y-137429404D02*
X192427392Y-137429404D01*
X192427392Y-137429404D02*
X192927395Y-137929404D01*
X192427392Y-141929410D02*
X192927394Y-141429404D01*
X188407393Y-139929404D02*
G75*
G02*
X188927393Y-140509403I-30000J-550000D01*
G01*
X190127391Y-137429404D02*
G75*
G02*
X188427393Y-135949404I-109998J1590000D01*
G01*
%TO.C,S5*%
X143230278Y-122682603D02*
X147661913Y-121901187D01*
X143317103Y-123175008D02*
X143230278Y-122682603D01*
X144046425Y-127311200D02*
X143942235Y-126720316D01*
X147661913Y-121901187D02*
X147783465Y-122590553D01*
X148458363Y-126533256D02*
X144046425Y-127311200D01*
X149230936Y-127920171D02*
X149071180Y-127014148D01*
X149230936Y-127920171D02*
X149810163Y-128325752D01*
X149718110Y-123772562D02*
X151983170Y-123373173D01*
X149810163Y-128325752D02*
X152764587Y-127804806D01*
X151983170Y-123373173D02*
X152562400Y-123778751D01*
X152764587Y-127804806D02*
X153170167Y-127225579D01*
X148458363Y-126533256D02*
G75*
G02*
X149071179Y-127014148I65962J-546854D01*
G01*
X149718110Y-123772562D02*
G75*
G02*
X147786940Y-122610247I-384430J1546738D01*
G01*
%TO.C,S16*%
X192016342Y-161388012D02*
X192221555Y-160824193D01*
X193452831Y-157441296D02*
X193623839Y-156971452D01*
X193623839Y-156971452D02*
X197852456Y-158510543D01*
X196201778Y-164507646D02*
X196500614Y-165148503D01*
X196201778Y-164507646D02*
X196516438Y-163643130D01*
X196226168Y-162920257D02*
X192016342Y-161388012D01*
X196500614Y-165148503D02*
X199319688Y-166174569D01*
X197852456Y-158510543D02*
X197613043Y-159168327D01*
X198697491Y-161159300D02*
X200858782Y-161945947D01*
X199319688Y-166174569D02*
X199960548Y-165875727D01*
X200858782Y-161945947D02*
X201157619Y-162586803D01*
X196226168Y-162920257D02*
G75*
G02*
X196516437Y-163643130I-216302J-506571D01*
G01*
X198697491Y-161159300D02*
G75*
G02*
X197606202Y-159187122I440444J1531733D01*
G01*
%TO.C,S6*%
X139930950Y-103971277D02*
X144362585Y-103189861D01*
X140017775Y-104463682D02*
X139930950Y-103971277D01*
X140747097Y-108599874D02*
X140642907Y-108008990D01*
X144362585Y-103189861D02*
X144484137Y-103879227D01*
X145159035Y-107821930D02*
X140747097Y-108599874D01*
X145931608Y-109208845D02*
X145771852Y-108302822D01*
X145931608Y-109208845D02*
X146510835Y-109614426D01*
X146418782Y-105061236D02*
X148683842Y-104661847D01*
X146510835Y-109614426D02*
X149465259Y-109093480D01*
X148683842Y-104661847D02*
X149263072Y-105067425D01*
X149465259Y-109093480D02*
X149870839Y-108514253D01*
X145159035Y-107821930D02*
G75*
G02*
X145771851Y-108302822I65962J-546854D01*
G01*
X146418782Y-105061236D02*
G75*
G02*
X144487612Y-103898921I-384430J1546738D01*
G01*
%TO.C,S11*%
X183927376Y-120929413D02*
X183927377Y-120329413D01*
X183927377Y-116229412D02*
X188427376Y-116229411D01*
X183927378Y-116729410D02*
X183927377Y-116229412D01*
X188407377Y-120929413D02*
X183927376Y-120929413D01*
X188427376Y-116229411D02*
X188427377Y-116929412D01*
X188927378Y-122429413D02*
X188927377Y-121509412D01*
X188927378Y-122429413D02*
X189427377Y-122929413D01*
X189427377Y-122929413D02*
X192427376Y-122929419D01*
X190127375Y-118429413D02*
X192427376Y-118429413D01*
X192427376Y-118429413D02*
X192927379Y-118929413D01*
X192427376Y-122929419D02*
X192927378Y-122429413D01*
X188407377Y-120929413D02*
G75*
G02*
X188927377Y-121509412I-30000J-550000D01*
G01*
X190127375Y-118429413D02*
G75*
G02*
X188427377Y-116949413I-109998J1590000D01*
G01*
%TO.C,S13*%
X202913648Y-144295729D02*
X202965942Y-143698013D01*
X203279704Y-140111708D02*
X203323280Y-139613615D01*
X203323280Y-139613615D02*
X207806157Y-140005815D01*
X207376601Y-144686187D02*
X202913648Y-144295729D01*
X207763889Y-146225801D02*
X207844072Y-145309300D01*
X207763889Y-146225801D02*
X208218408Y-146767475D01*
X207806157Y-140005815D02*
X207745147Y-140703150D01*
X208218408Y-146767475D02*
X211206992Y-147028942D01*
X209307946Y-142345609D02*
X211599192Y-142546066D01*
X211206992Y-147028942D02*
X211748667Y-146574422D01*
X211599192Y-142546066D02*
X212053712Y-143087740D01*
X207376601Y-144686187D02*
G75*
G02*
X207844071Y-145309300I-77822J-545292D01*
G01*
X209307946Y-142345609D02*
G75*
G02*
X207743403Y-140723074I28999J1593542D01*
G01*
%TO.C,S7*%
X163787401Y-127571385D02*
X168270276Y-127179182D01*
X163830978Y-128069483D02*
X163787401Y-127571385D01*
X164197032Y-132253500D02*
X164144739Y-131655784D01*
X168270276Y-127179182D02*
X168331284Y-127876521D01*
X168659985Y-131863042D02*
X164197032Y-132253500D01*
X169308741Y-133312013D02*
X169228556Y-132395514D01*
X169308741Y-133312013D02*
X169850415Y-133766533D01*
X169850415Y-133766533D02*
X172838999Y-133505066D01*
X170155548Y-129222648D02*
X172446797Y-129022190D01*
X172446797Y-129022190D02*
X172988476Y-129476709D01*
X172838999Y-133505066D02*
X173293520Y-132963391D01*
X168659985Y-131863042D02*
G75*
G02*
X169228557Y-132395514I18050J-550522D01*
G01*
X170155548Y-129222648D02*
G75*
G02*
X168333029Y-127896444I-248157J1574362D01*
G01*
%TD*%
M02*
