%TF.GenerationSoftware,KiCad,Pcbnew,10.0.0*%
%TF.CreationDate,2026-04-11T19:43:27+02:00*%
%TF.ProjectId,rustboard_pcb,72757374-626f-4617-9264-5f7063622e6b,v1.0.0*%
%TF.SameCoordinates,Original*%
%TF.FileFunction,Paste,Bot*%
%TF.FilePolarity,Positive*%
%FSLAX46Y46*%
G04 Gerber Fmt 4.6, Leading zero omitted, Abs format (unit mm)*
G04 Created by KiCad (PCBNEW 10.0.0) date 2026-04-11 19:43:27*
%MOMM*%
%LPD*%
G01*
G04 APERTURE LIST*
G04 Aperture macros list*
%AMRotRect*
0 Rectangle, with rotation*
0 The origin of the aperture is its center*
0 $1 length*
0 $2 width*
0 $3 Rotation angle, in degrees counterclockwise*
0 Add horizontal line*
21,1,$1,$2,0,0,$3*%
%AMOutline5P*
0 Free polygon, 5 corners , with rotation*
0 The origin of the aperture is its center*
0 number of corners: always 5*
0 $1 to $10 corner X, Y*
0 $11 Rotation angle, in degrees counterclockwise*
0 create outline with 5 corners*
4,1,5,$1,$2,$3,$4,$5,$6,$7,$8,$9,$10,$1,$2,$11*%
%AMOutline6P*
0 Free polygon, 6 corners , with rotation*
0 The origin of the aperture is its center*
0 number of corners: always 6*
0 $1 to $12 corner X, Y*
0 $13 Rotation angle, in degrees counterclockwise*
0 create outline with 6 corners*
4,1,6,$1,$2,$3,$4,$5,$6,$7,$8,$9,$10,$11,$12,$1,$2,$13*%
%AMOutline7P*
0 Free polygon, 7 corners , with rotation*
0 The origin of the aperture is its center*
0 number of corners: always 7*
0 $1 to $14 corner X, Y*
0 $15 Rotation angle, in degrees counterclockwise*
0 create outline with 7 corners*
4,1,7,$1,$2,$3,$4,$5,$6,$7,$8,$9,$10,$11,$12,$13,$14,$1,$2,$15*%
%AMOutline8P*
0 Free polygon, 8 corners , with rotation*
0 The origin of the aperture is its center*
0 number of corners: always 8*
0 $1 to $16 corner X, Y*
0 $17 Rotation angle, in degrees counterclockwise*
0 create outline with 8 corners*
4,1,8,$1,$2,$3,$4,$5,$6,$7,$8,$9,$10,$11,$12,$13,$14,$15,$16,$1,$2,$17*%
%AMFreePoly0*
4,1,6,0.250000,0.000000,-0.250000,-0.625000,-0.500000,-0.625000,-0.500000,0.625000,-0.250000,0.625000,0.250000,0.000000,0.250000,0.000000,$1*%
%AMFreePoly1*
4,1,6,0.500000,-0.625000,-0.650000,-0.625000,-0.150000,0.000000,-0.650000,0.625000,0.500000,0.625000,0.500000,-0.625000,0.500000,-0.625000,$1*%
%AMFreePoly2*
4,1,6,0.600000,-1.000000,0.000000,-0.400000,-0.600000,-1.000000,-0.600000,0.250000,0.600000,0.250000,0.600000,-1.000000,0.600000,-1.000000,$1*%
%AMFreePoly3*
4,1,6,0.600000,-0.200000,0.600000,-0.400000,-0.600000,-0.400000,-0.600000,-0.200000,0.000000,0.400000,0.600000,-0.200000,0.600000,-0.200000,$1*%
G04 Aperture macros list end*
%ADD10R,0.900000X1.200000*%
%ADD11FreePoly0,175.000000*%
%ADD12FreePoly0,355.000000*%
%ADD13FreePoly1,355.000000*%
%ADD14FreePoly1,175.000000*%
%ADD15FreePoly2,265.000000*%
%ADD16FreePoly3,265.000000*%
%ADD17RotRect,1.000000X0.800000X265.000000*%
%ADD18RotRect,0.700000X1.500000X265.000000*%
%ADD19RotRect,0.900000X1.200000X160.000000*%
%ADD20RotRect,0.900000X1.200000X195.000000*%
%ADD21RotRect,0.900000X1.200000X185.000000*%
%ADD22RotRect,0.900000X1.200000X190.000000*%
%ADD23RotRect,0.900000X1.200000X175.000000*%
%ADD24RotRect,0.900000X1.200000X130.000000*%
%ADD25RotRect,0.900000X1.200000X145.000000*%
%ADD26Outline5P,-1.300000X1.300000X1.300000X1.300000X1.300000X-1.300000X-0.117000X-1.300000X-1.300000X-0.117000X180.000000*%
%ADD27R,2.600000X2.600000*%
%ADD28Outline5P,-1.300000X1.300000X1.300000X1.300000X1.300000X-1.300000X-0.117000X-1.300000X-1.300000X-0.117000X185.000000*%
%ADD29RotRect,2.600000X2.600000X185.000000*%
%ADD30Outline5P,-1.300000X1.300000X1.300000X1.300000X1.300000X-1.300000X-0.117000X-1.300000X-1.300000X-0.117000X195.000000*%
%ADD31RotRect,2.600000X2.600000X195.000000*%
%ADD32Outline5P,-1.300000X1.300000X1.300000X1.300000X1.300000X-1.300000X-0.117000X-1.300000X-1.300000X-0.117000X175.000000*%
%ADD33RotRect,2.600000X2.600000X175.000000*%
%ADD34Outline5P,-1.300000X1.300000X1.300000X1.300000X1.300000X-1.300000X-0.117000X-1.300000X-1.300000X-0.117000X145.000000*%
%ADD35RotRect,2.600000X2.600000X145.000000*%
%ADD36Outline5P,-1.300000X1.300000X1.300000X1.300000X1.300000X-1.300000X-0.117000X-1.300000X-1.300000X-0.117000X190.000000*%
%ADD37RotRect,2.600000X2.600000X190.000000*%
%ADD38Outline5P,-1.300000X1.300000X1.300000X1.300000X1.300000X-1.300000X-0.117000X-1.300000X-1.300000X-0.117000X130.000000*%
%ADD39RotRect,2.600000X2.600000X130.000000*%
%ADD40Outline5P,-1.300000X1.300000X1.300000X1.300000X1.300000X-1.300000X-0.117000X-1.300000X-1.300000X-0.117000X160.000000*%
%ADD41RotRect,2.600000X2.600000X160.000000*%
G04 APERTURE END LIST*
D10*
%TO.C,D11*%
X198277387Y-114729430D03*
X194977387Y-114729434D03*
%TD*%
D11*
%TO.C,MCU1*%
X240635242Y-97505340D03*
X240413873Y-100035668D03*
X240192494Y-102566008D03*
X239971120Y-105096342D03*
X239749743Y-107626678D03*
X239528367Y-110157012D03*
X239306993Y-112687346D03*
X239085616Y-115217680D03*
X238864241Y-117748016D03*
X238642864Y-120278349D03*
X238421490Y-122808685D03*
X238200111Y-125339019D03*
D12*
X227241974Y-124380305D03*
X227463350Y-121849970D03*
X227684719Y-119319642D03*
X227906098Y-116789302D03*
X228127472Y-114258968D03*
X228348849Y-111728632D03*
X228570225Y-109198298D03*
X228791599Y-106667964D03*
X229012976Y-104137630D03*
X229234351Y-101607294D03*
X229455728Y-99076961D03*
X229677102Y-96546625D03*
D13*
X230399346Y-96609812D03*
X230177967Y-99140147D03*
X229956593Y-101670483D03*
X229735219Y-104200819D03*
X229513843Y-106731152D03*
X229292466Y-109261486D03*
X229071091Y-111791821D03*
X228849712Y-114322155D03*
X228628340Y-116852490D03*
X228406964Y-119382825D03*
X228185585Y-121913159D03*
X227964213Y-124443492D03*
D14*
X237477872Y-125275831D03*
X237699246Y-122745498D03*
X237920625Y-120215163D03*
X238141999Y-117684827D03*
X238363373Y-115154491D03*
X238584749Y-112624158D03*
X238806126Y-110093824D03*
X239027501Y-107563489D03*
X239248880Y-105033155D03*
X239470252Y-102502820D03*
X239691628Y-99972485D03*
X239913007Y-97442151D03*
%TD*%
D15*
%TO.C,JST1*%
X227876644Y-132225466D03*
X227702331Y-134217856D03*
D16*
X226690197Y-134129305D03*
X226864510Y-132136917D03*
%TD*%
D10*
%TO.C,D10*%
X198277383Y-133729401D03*
X194977383Y-133729405D03*
%TD*%
%TO.C,D12*%
X198277382Y-95729417D03*
X194977382Y-95729421D03*
%TD*%
D17*
%TO.C,PWR1*%
X240160579Y-130640055D03*
X239524345Y-137912279D03*
X241725930Y-138104892D03*
X242362167Y-130832675D03*
D18*
X239391027Y-131978082D03*
X239129567Y-134966664D03*
X238998832Y-136460955D03*
%TD*%
D19*
%TO.C,D16*%
X207621462Y-160469907D03*
X204520476Y-159341243D03*
%TD*%
D20*
%TO.C,D3*%
X135473934Y-119629587D03*
X132286382Y-120483687D03*
%TD*%
D21*
%TO.C,D7*%
X177952056Y-124826404D03*
X174664618Y-125114022D03*
%TD*%
D20*
%TO.C,D2*%
X140391473Y-137982171D03*
X137203921Y-138836271D03*
%TD*%
D22*
%TO.C,D4*%
X160401098Y-137424909D03*
X157151232Y-137997945D03*
%TD*%
D20*
%TO.C,D1*%
X145309058Y-156334773D03*
X142121506Y-157188873D03*
%TD*%
D23*
%TO.C,D14*%
X219405371Y-120442297D03*
X216117929Y-120154687D03*
%TD*%
D22*
%TO.C,D6*%
X153802466Y-100002220D03*
X150552600Y-100575256D03*
%TD*%
D23*
%TO.C,D13*%
X217749419Y-139370016D03*
X214461977Y-139082406D03*
%TD*%
%TO.C,D15*%
X221061325Y-101514610D03*
X217773883Y-101227000D03*
%TD*%
D24*
%TO.C,D18*%
X241007855Y-188649911D03*
X238886657Y-186121969D03*
%TD*%
D25*
%TO.C,D17*%
X226169639Y-172362216D03*
X223466441Y-170469414D03*
%TD*%
D21*
%TO.C,D9*%
X174640142Y-86970998D03*
X171352704Y-87258616D03*
%TD*%
%TO.C,D8*%
X176296101Y-105898720D03*
X173008663Y-106186338D03*
%TD*%
D22*
%TO.C,D5*%
X157101784Y-118713556D03*
X153851918Y-119286592D03*
%TD*%
D26*
%TO.C,S12*%
X194202382Y-101679405D03*
D27*
X182652383Y-99479408D03*
%TD*%
D28*
%TO.C,S9*%
X171099227Y-93253535D03*
D29*
X159401438Y-92068557D03*
%TD*%
D30*
%TO.C,S1*%
X142912872Y-163136700D03*
D31*
X131187031Y-164001025D03*
%TD*%
D28*
%TO.C,S8*%
X172755190Y-112181228D03*
D29*
X161057401Y-110996250D03*
%TD*%
D30*
%TO.C,S3*%
X133077741Y-126431528D03*
D31*
X121351900Y-127295853D03*
%TD*%
D32*
%TO.C,S14*%
X214827288Y-126014511D03*
D33*
X203512993Y-122816235D03*
%TD*%
D34*
%TO.C,S17*%
X219418817Y-174898832D03*
D35*
X211219481Y-166471891D03*
%TD*%
D30*
%TO.C,S2*%
X137995319Y-144784101D03*
D31*
X126269478Y-145648426D03*
%TD*%
D36*
%TO.C,S4*%
X157421210Y-143992126D03*
D37*
X145664657Y-143831187D03*
%TD*%
D38*
%TO.C,S18*%
X233830540Y-189352875D03*
D39*
X228091643Y-179090928D03*
%TD*%
D32*
%TO.C,S15*%
X216483269Y-107086804D03*
D33*
X205168974Y-103888528D03*
%TD*%
D26*
%TO.C,S10*%
X194202392Y-139679401D03*
D27*
X182652393Y-137479404D03*
%TD*%
D36*
%TO.C,S5*%
X154121910Y-125280762D03*
D37*
X142365357Y-125119823D03*
%TD*%
D40*
%TO.C,S16*%
X201757188Y-164667339D03*
D41*
X191656186Y-158649685D03*
%TD*%
D36*
%TO.C,S6*%
X150822582Y-106569436D03*
D37*
X139066029Y-106408497D03*
%TD*%
D26*
%TO.C,S11*%
X194202376Y-120679410D03*
D27*
X182652377Y-118479413D03*
%TD*%
D32*
%TO.C,S13*%
X213171336Y-144942203D03*
D33*
X201857041Y-141743927D03*
%TD*%
D28*
%TO.C,S7*%
X174411142Y-131108925D03*
D29*
X162713353Y-129923947D03*
%TD*%
M02*
