%TF.GenerationSoftware,KiCad,Pcbnew,10.0.0*%
%TF.CreationDate,2026-04-11T19:43:27+02:00*%
%TF.ProjectId,rustboard_pcb,72757374-626f-4617-9264-5f7063622e6b,v1.0.0*%
%TF.SameCoordinates,Original*%
%TF.FileFunction,Copper,L2,Bot*%
%TF.FilePolarity,Positive*%
%FSLAX46Y46*%
G04 Gerber Fmt 4.6, Leading zero omitted, Abs format (unit mm)*
G04 Created by KiCad (PCBNEW 10.0.0) date 2026-04-11 19:43:27*
%MOMM*%
%LPD*%
G01*
G04 APERTURE LIST*
G04 Aperture macros list*
%AMHorizOval*
0 Thick line with rounded ends*
0 $1 width*
0 $2 $3 position (X,Y) of the first rounded end (center of the circle)*
0 $4 $5 position (X,Y) of the second rounded end (center of the circle)*
0 Add line between two ends*
20,1,$1,$2,$3,$4,$5,0*
0 Add two circle primitives to create the rounded ends*
1,1,$1,$2,$3*
1,1,$1,$4,$5*%
%AMRotRect*
0 Rectangle, with rotation*
0 The origin of the aperture is its center*
0 $1 length*
0 $2 width*
0 $3 Rotation angle, in degrees counterclockwise*
0 Add horizontal line*
21,1,$1,$2,0,0,$3*%
%AMOutline5P*
0 Free polygon, 5 corners , with rotation*
0 The origin of the aperture is its center*
0 number of corners: always 5*
0 $1 to $10 corner X, Y*
0 $11 Rotation angle, in degrees counterclockwise*
0 create outline with 5 corners*
4,1,5,$1,$2,$3,$4,$5,$6,$7,$8,$9,$10,$1,$2,$11*%
%AMOutline6P*
0 Free polygon, 6 corners , with rotation*
0 The origin of the aperture is its center*
0 number of corners: always 6*
0 $1 to $12 corner X, Y*
0 $13 Rotation angle, in degrees counterclockwise*
0 create outline with 6 corners*
4,1,6,$1,$2,$3,$4,$5,$6,$7,$8,$9,$10,$11,$12,$1,$2,$13*%
%AMOutline7P*
0 Free polygon, 7 corners , with rotation*
0 The origin of the aperture is its center*
0 number of corners: always 7*
0 $1 to $14 corner X, Y*
0 $15 Rotation angle, in degrees counterclockwise*
0 create outline with 7 corners*
4,1,7,$1,$2,$3,$4,$5,$6,$7,$8,$9,$10,$11,$12,$13,$14,$1,$2,$15*%
%AMOutline8P*
0 Free polygon, 8 corners , with rotation*
0 The origin of the aperture is its center*
0 number of corners: always 8*
0 $1 to $16 corner X, Y*
0 $17 Rotation angle, in degrees counterclockwise*
0 create outline with 8 corners*
4,1,8,$1,$2,$3,$4,$5,$6,$7,$8,$9,$10,$11,$12,$13,$14,$15,$16,$1,$2,$17*%
%AMFreePoly0*
4,1,6,0.250000,0.000000,-0.250000,-0.625000,-0.500000,-0.625000,-0.500000,0.625000,-0.250000,0.625000,0.250000,0.000000,0.250000,0.000000,$1*%
%AMFreePoly1*
4,1,6,0.500000,-0.625000,-0.650000,-0.625000,-0.150000,0.000000,-0.650000,0.625000,0.500000,0.625000,0.500000,-0.625000,0.500000,-0.625000,$1*%
%AMFreePoly2*
4,1,6,0.600000,-1.000000,0.000000,-0.400000,-0.600000,-1.000000,-0.600000,0.250000,0.600000,0.250000,0.600000,-1.000000,0.600000,-1.000000,$1*%
%AMFreePoly3*
4,1,6,0.600000,-0.200000,0.600000,-0.400000,-0.600000,-0.400000,-0.600000,-0.200000,0.000000,0.400000,0.600000,-0.200000,0.600000,-0.200000,$1*%
G04 Aperture macros list end*
%TA.AperFunction,SMDPad,CuDef*%
%ADD10R,0.900000X1.200000*%
%TD*%
%TA.AperFunction,SMDPad,CuDef*%
%ADD11FreePoly0,175.000000*%
%TD*%
%TA.AperFunction,ComponentPad*%
%ADD12C,1.700000*%
%TD*%
%TA.AperFunction,SMDPad,CuDef*%
%ADD13FreePoly0,355.000000*%
%TD*%
%TA.AperFunction,SMDPad,CuDef*%
%ADD14FreePoly1,355.000000*%
%TD*%
%TA.AperFunction,ComponentPad*%
%ADD15C,0.800000*%
%TD*%
%TA.AperFunction,SMDPad,CuDef*%
%ADD16FreePoly1,175.000000*%
%TD*%
%TA.AperFunction,SMDPad,CuDef*%
%ADD17FreePoly2,265.000000*%
%TD*%
%TA.AperFunction,ComponentPad*%
%ADD18HorizOval,1.200000X-0.273954X0.023968X0.273954X-0.023968X0*%
%TD*%
%TA.AperFunction,SMDPad,CuDef*%
%ADD19FreePoly3,265.000000*%
%TD*%
%TA.AperFunction,SMDPad,CuDef*%
%ADD20RotRect,1.000000X0.800000X265.000000*%
%TD*%
%TA.AperFunction,SMDPad,CuDef*%
%ADD21RotRect,0.700000X1.500000X265.000000*%
%TD*%
%TA.AperFunction,SMDPad,CuDef*%
%ADD22RotRect,0.900000X1.200000X160.000000*%
%TD*%
%TA.AperFunction,SMDPad,CuDef*%
%ADD23RotRect,0.900000X1.200000X195.000000*%
%TD*%
%TA.AperFunction,SMDPad,CuDef*%
%ADD24RotRect,0.900000X1.200000X185.000000*%
%TD*%
%TA.AperFunction,SMDPad,CuDef*%
%ADD25RotRect,0.900000X1.200000X190.000000*%
%TD*%
%TA.AperFunction,SMDPad,CuDef*%
%ADD26RotRect,0.900000X1.200000X175.000000*%
%TD*%
%TA.AperFunction,SMDPad,CuDef*%
%ADD27RotRect,0.900000X1.200000X130.000000*%
%TD*%
%TA.AperFunction,SMDPad,CuDef*%
%ADD28RotRect,0.900000X1.200000X145.000000*%
%TD*%
%TA.AperFunction,SMDPad,CuDef*%
%ADD29Outline5P,-1.300000X1.300000X1.300000X1.300000X1.300000X-1.300000X-0.117000X-1.300000X-1.300000X-0.117000X180.000000*%
%TD*%
%TA.AperFunction,SMDPad,CuDef*%
%ADD30R,2.600000X2.600000*%
%TD*%
%TA.AperFunction,SMDPad,CuDef*%
%ADD31Outline5P,-1.300000X1.300000X1.300000X1.300000X1.300000X-1.300000X-0.117000X-1.300000X-1.300000X-0.117000X185.000000*%
%TD*%
%TA.AperFunction,SMDPad,CuDef*%
%ADD32RotRect,2.600000X2.600000X185.000000*%
%TD*%
%TA.AperFunction,SMDPad,CuDef*%
%ADD33Outline5P,-1.300000X1.300000X1.300000X1.300000X1.300000X-1.300000X-0.117000X-1.300000X-1.300000X-0.117000X195.000000*%
%TD*%
%TA.AperFunction,SMDPad,CuDef*%
%ADD34RotRect,2.600000X2.600000X195.000000*%
%TD*%
%TA.AperFunction,SMDPad,CuDef*%
%ADD35Outline5P,-1.300000X1.300000X1.300000X1.300000X1.300000X-1.300000X-0.117000X-1.300000X-1.300000X-0.117000X175.000000*%
%TD*%
%TA.AperFunction,SMDPad,CuDef*%
%ADD36RotRect,2.600000X2.600000X175.000000*%
%TD*%
%TA.AperFunction,SMDPad,CuDef*%
%ADD37Outline5P,-1.300000X1.300000X1.300000X1.300000X1.300000X-1.300000X-0.117000X-1.300000X-1.300000X-0.117000X145.000000*%
%TD*%
%TA.AperFunction,SMDPad,CuDef*%
%ADD38RotRect,2.600000X2.600000X145.000000*%
%TD*%
%TA.AperFunction,SMDPad,CuDef*%
%ADD39Outline5P,-1.300000X1.300000X1.300000X1.300000X1.300000X-1.300000X-0.117000X-1.300000X-1.300000X-0.117000X190.000000*%
%TD*%
%TA.AperFunction,SMDPad,CuDef*%
%ADD40RotRect,2.600000X2.600000X190.000000*%
%TD*%
%TA.AperFunction,SMDPad,CuDef*%
%ADD41Outline5P,-1.300000X1.300000X1.300000X1.300000X1.300000X-1.300000X-0.117000X-1.300000X-1.300000X-0.117000X130.000000*%
%TD*%
%TA.AperFunction,SMDPad,CuDef*%
%ADD42RotRect,2.600000X2.600000X130.000000*%
%TD*%
%TA.AperFunction,SMDPad,CuDef*%
%ADD43Outline5P,-1.300000X1.300000X1.300000X1.300000X1.300000X-1.300000X-0.117000X-1.300000X-1.300000X-0.117000X160.000000*%
%TD*%
%TA.AperFunction,SMDPad,CuDef*%
%ADD44RotRect,2.600000X2.600000X160.000000*%
%TD*%
%TA.AperFunction,ViaPad*%
%ADD45C,0.600000*%
%TD*%
%TA.AperFunction,Conductor*%
%ADD46C,0.200000*%
%TD*%
%TA.AperFunction,Conductor*%
%ADD47C,0.250000*%
%TD*%
G04 APERTURE END LIST*
D10*
%TO.P,D11,1*%
%TO.N,P020*%
X198277387Y-114729430D03*
%TO.P,D11,2*%
%TO.N,c3_r1*%
X194977387Y-114729434D03*
%TD*%
D11*
%TO.P,MCU1,1*%
%TO.N,MCU1_1*%
X240635242Y-97505340D03*
D12*
X242747175Y-97690107D03*
D11*
%TO.P,MCU1,2*%
%TO.N,MCU1_2*%
X240413873Y-100035668D03*
D12*
X242525801Y-100220446D03*
D11*
%TO.P,MCU1,3*%
%TO.N,MCU1_3*%
X240192494Y-102566008D03*
D12*
X242304426Y-102750779D03*
D11*
%TO.P,MCU1,4*%
%TO.N,MCU1_4*%
X239971120Y-105096342D03*
D12*
X242083053Y-105281116D03*
D11*
%TO.P,MCU1,5*%
%TO.N,MCU1_5*%
X239749743Y-107626678D03*
D12*
X241861674Y-107811447D03*
D11*
%TO.P,MCU1,6*%
%TO.N,MCU1_6*%
X239528367Y-110157012D03*
D12*
X241640303Y-110341781D03*
D11*
%TO.P,MCU1,7*%
%TO.N,MCU1_7*%
X239306993Y-112687346D03*
D12*
X241418924Y-112872113D03*
D11*
%TO.P,MCU1,8*%
%TO.N,MCU1_8*%
X239085616Y-115217680D03*
D12*
X241197549Y-115402450D03*
D11*
%TO.P,MCU1,9*%
%TO.N,MCU1_9*%
X238864241Y-117748016D03*
D12*
X240976172Y-117932785D03*
D11*
%TO.P,MCU1,10*%
%TO.N,MCU1_10*%
X238642864Y-120278349D03*
D12*
X240754797Y-120463119D03*
D11*
%TO.P,MCU1,11*%
%TO.N,MCU1_11*%
X238421490Y-122808685D03*
D12*
X240533422Y-122993451D03*
D11*
%TO.P,MCU1,12*%
%TO.N,MCU1_12*%
X238200111Y-125339019D03*
D12*
X240312046Y-125523790D03*
%TO.P,MCU1,13*%
%TO.N,MCU1_13*%
X225130039Y-124195535D03*
D13*
X227241974Y-124380305D03*
D12*
%TO.P,MCU1,14*%
%TO.N,MCU1_14*%
X225351417Y-121665203D03*
D13*
X227463350Y-121849970D03*
D12*
%TO.P,MCU1,15*%
%TO.N,MCU1_15*%
X225572791Y-119134864D03*
D13*
X227684719Y-119319642D03*
D12*
%TO.P,MCU1,16*%
%TO.N,MCU1_16*%
X225794166Y-116604531D03*
D13*
X227906098Y-116789302D03*
D12*
%TO.P,MCU1,17*%
%TO.N,MCU1_17*%
X226015539Y-114074194D03*
D13*
X228127472Y-114258968D03*
D12*
%TO.P,MCU1,18*%
%TO.N,MCU1_18*%
X226236918Y-111543863D03*
D13*
X228348849Y-111728632D03*
D12*
%TO.P,MCU1,19*%
%TO.N,MCU1_19*%
X226458289Y-109013529D03*
D13*
X228570225Y-109198298D03*
D12*
%TO.P,MCU1,20*%
%TO.N,MCU1_20*%
X226679668Y-106483197D03*
D13*
X228791599Y-106667964D03*
D12*
%TO.P,MCU1,21*%
%TO.N,MCU1_21*%
X226901043Y-103952860D03*
D13*
X229012976Y-104137630D03*
D12*
%TO.P,MCU1,22*%
%TO.N,MCU1_22*%
X227122420Y-101422525D03*
D13*
X229234351Y-101607294D03*
D12*
%TO.P,MCU1,23*%
%TO.N,MCU1_23*%
X227343795Y-98892191D03*
D13*
X229455728Y-99076961D03*
D12*
%TO.P,MCU1,24*%
%TO.N,MCU1_24*%
X227565170Y-96361859D03*
D13*
X229677102Y-96546625D03*
D14*
%TO.P,MCU1,101*%
%TO.N,B+*%
X230399346Y-96609812D03*
D15*
X238543239Y-97322307D03*
D14*
%TO.P,MCU1,102*%
%TO.N,RAW*%
X230177967Y-99140147D03*
D15*
X238321861Y-99852646D03*
D14*
%TO.P,MCU1,103*%
%TO.N,GND*%
X229956593Y-101670483D03*
D15*
X238100485Y-102382981D03*
D14*
%TO.P,MCU1,104*%
%TO.N,RST*%
X229735219Y-104200819D03*
D15*
X237879109Y-104913316D03*
D14*
%TO.P,MCU1,105*%
%TO.N,VCC*%
X229513843Y-106731152D03*
D15*
X237657731Y-107443647D03*
D14*
%TO.P,MCU1,106*%
%TO.N,P031*%
X229292466Y-109261486D03*
D15*
X237436359Y-109973980D03*
D14*
%TO.P,MCU1,107*%
%TO.N,P029*%
X229071091Y-111791821D03*
D15*
X237214984Y-112504318D03*
D14*
%TO.P,MCU1,108*%
%TO.N,P002*%
X228849712Y-114322155D03*
D15*
X236993607Y-115034653D03*
D14*
%TO.P,MCU1,109*%
%TO.N,P115*%
X228628340Y-116852490D03*
D15*
X236772235Y-117564987D03*
D14*
%TO.P,MCU1,110*%
%TO.N,P113*%
X228406964Y-119382825D03*
D15*
X236550851Y-120095318D03*
D14*
%TO.P,MCU1,111*%
%TO.N,P111*%
X228185585Y-121913159D03*
D15*
X236329482Y-122625661D03*
D14*
%TO.P,MCU1,112*%
%TO.N,P010*%
X227964213Y-124443492D03*
D15*
X236108103Y-125155993D03*
%TO.P,MCU1,113*%
%TO.N,P104*%
X229333982Y-124563333D03*
D16*
X237477872Y-125275831D03*
D15*
%TO.P,MCU1,114*%
%TO.N,P011*%
X229555353Y-122033003D03*
D16*
X237699246Y-122745498D03*
D15*
%TO.P,MCU1,115*%
%TO.N,P100*%
X229776731Y-119502664D03*
D16*
X237920625Y-120215163D03*
D15*
%TO.P,MCU1,116*%
%TO.N,P024*%
X229998107Y-116972329D03*
D16*
X238141999Y-117684827D03*
D15*
%TO.P,MCU1,117*%
%TO.N,P022*%
X230219483Y-114441994D03*
D16*
X238363373Y-115154491D03*
D15*
%TO.P,MCU1,118*%
%TO.N,P020*%
X230440861Y-111911663D03*
D16*
X238584749Y-112624158D03*
D15*
%TO.P,MCU1,119*%
%TO.N,P017*%
X230662233Y-109381330D03*
D16*
X238806126Y-110093824D03*
D15*
%TO.P,MCU1,120*%
%TO.N,GND*%
X230883608Y-106850992D03*
D16*
X239027501Y-107563489D03*
D15*
%TO.P,MCU1,121*%
%TO.N,RAW*%
X231104985Y-104320657D03*
D16*
X239248880Y-105033155D03*
D15*
%TO.P,MCU1,122*%
X231326357Y-101790323D03*
D16*
X239470252Y-102502820D03*
D15*
%TO.P,MCU1,123*%
%TO.N,P006*%
X231547741Y-99259992D03*
D16*
X239691628Y-99972485D03*
D15*
%TO.P,MCU1,124*%
%TO.N,B-*%
X231769110Y-96729649D03*
D16*
X239913007Y-97442151D03*
%TD*%
D17*
%TO.P,JST1,1*%
%TO.N,B-*%
X227876644Y-132225466D03*
%TO.P,JST1,2*%
%TO.N,BAT_P*%
X227702331Y-134217856D03*
D18*
%TO.P,JST1,11*%
%TO.N,JST1_1*%
X224897043Y-133972424D03*
%TO.P,JST1,12*%
%TO.N,JST1_2*%
X225071363Y-131980038D03*
D19*
%TO.P,JST1,31*%
%TO.N,JST1_1*%
X226690197Y-134129305D03*
%TO.P,JST1,32*%
%TO.N,JST1_2*%
X226864510Y-132136917D03*
%TD*%
D10*
%TO.P,D10,1*%
%TO.N,P022*%
X198277383Y-133729401D03*
%TO.P,D10,2*%
%TO.N,c3_r2*%
X194977383Y-133729405D03*
%TD*%
%TO.P,D12,1*%
%TO.N,P017*%
X198277382Y-95729417D03*
%TO.P,D12,2*%
%TO.N,c3_r0*%
X194977382Y-95729421D03*
%TD*%
D20*
%TO.P,PWR1,*%
%TO.N,*%
X240160579Y-130640055D03*
X239524345Y-137912279D03*
X241725930Y-138104892D03*
X242362167Y-130832675D03*
D21*
%TO.P,PWR1,1*%
%TO.N,B+*%
X239391027Y-131978082D03*
%TO.P,PWR1,2*%
%TO.N,BAT_P*%
X239129567Y-134966664D03*
%TO.P,PWR1,3*%
%TO.N,N/C*%
X238998832Y-136460955D03*
%TD*%
D22*
%TO.P,D16,1*%
%TO.N,P024*%
X207621462Y-160469907D03*
%TO.P,D16,2*%
%TO.N,c2_r3*%
X204520476Y-159341243D03*
%TD*%
D23*
%TO.P,D3,1*%
%TO.N,P017*%
X135473934Y-119629587D03*
%TO.P,D3,2*%
%TO.N,c0_r0*%
X132286382Y-120483687D03*
%TD*%
D24*
%TO.P,D7,1*%
%TO.N,P022*%
X177952056Y-124826404D03*
%TO.P,D7,2*%
%TO.N,c2_r2*%
X174664618Y-125114022D03*
%TD*%
D23*
%TO.P,D2,1*%
%TO.N,P020*%
X140391473Y-137982171D03*
%TO.P,D2,2*%
%TO.N,c0_r1*%
X137203921Y-138836271D03*
%TD*%
D25*
%TO.P,D4,1*%
%TO.N,P022*%
X160401098Y-137424909D03*
%TO.P,D4,2*%
%TO.N,c1_r2*%
X157151232Y-137997945D03*
%TD*%
D23*
%TO.P,D1,1*%
%TO.N,P022*%
X145309058Y-156334773D03*
%TO.P,D1,2*%
%TO.N,c0_r2*%
X142121506Y-157188873D03*
%TD*%
D26*
%TO.P,D14,1*%
%TO.N,P020*%
X219405371Y-120442297D03*
%TO.P,D14,2*%
%TO.N,c4_r1*%
X216117929Y-120154687D03*
%TD*%
D25*
%TO.P,D6,1*%
%TO.N,P017*%
X153802466Y-100002220D03*
%TO.P,D6,2*%
%TO.N,c1_r0*%
X150552600Y-100575256D03*
%TD*%
D26*
%TO.P,D13,1*%
%TO.N,P022*%
X217749419Y-139370016D03*
%TO.P,D13,2*%
%TO.N,c4_r2*%
X214461977Y-139082406D03*
%TD*%
%TO.P,D15,1*%
%TO.N,P017*%
X221061325Y-101514610D03*
%TO.P,D15,2*%
%TO.N,c4_r0*%
X217773883Y-101227000D03*
%TD*%
D27*
%TO.P,D18,1*%
%TO.N,P024*%
X241007855Y-188649911D03*
%TO.P,D18,2*%
%TO.N,c4_r3*%
X238886657Y-186121969D03*
%TD*%
D28*
%TO.P,D17,1*%
%TO.N,P024*%
X226169639Y-172362216D03*
%TO.P,D17,2*%
%TO.N,c3_r3*%
X223466441Y-170469414D03*
%TD*%
D24*
%TO.P,D9,1*%
%TO.N,P017*%
X174640142Y-86970998D03*
%TO.P,D9,2*%
%TO.N,c2_r0*%
X171352704Y-87258616D03*
%TD*%
%TO.P,D8,1*%
%TO.N,P020*%
X176296101Y-105898720D03*
%TO.P,D8,2*%
%TO.N,c2_r1*%
X173008663Y-106186338D03*
%TD*%
D25*
%TO.P,D5,1*%
%TO.N,P020*%
X157101784Y-118713556D03*
%TO.P,D5,2*%
%TO.N,c1_r1*%
X153851918Y-119286592D03*
%TD*%
D29*
%TO.P,S12,1*%
%TO.N,c3_r0*%
X194202382Y-101679405D03*
D30*
%TO.P,S12,2*%
%TO.N,P115*%
X182652383Y-99479408D03*
%TD*%
D31*
%TO.P,S9,1*%
%TO.N,c2_r0*%
X171099227Y-93253535D03*
D32*
%TO.P,S9,2*%
%TO.N,P002*%
X159401438Y-92068557D03*
%TD*%
D33*
%TO.P,S1,1*%
%TO.N,c0_r2*%
X142912872Y-163136700D03*
D34*
%TO.P,S1,2*%
%TO.N,P031*%
X131187031Y-164001025D03*
%TD*%
D31*
%TO.P,S8,1*%
%TO.N,c2_r1*%
X172755190Y-112181228D03*
D32*
%TO.P,S8,2*%
%TO.N,P002*%
X161057401Y-110996250D03*
%TD*%
D33*
%TO.P,S3,1*%
%TO.N,c0_r0*%
X133077741Y-126431528D03*
D34*
%TO.P,S3,2*%
%TO.N,P031*%
X121351900Y-127295853D03*
%TD*%
D35*
%TO.P,S14,1*%
%TO.N,c4_r1*%
X214827288Y-126014511D03*
D36*
%TO.P,S14,2*%
%TO.N,P113*%
X203512993Y-122816235D03*
%TD*%
D37*
%TO.P,S17,1*%
%TO.N,c3_r3*%
X219418817Y-174898832D03*
D38*
%TO.P,S17,2*%
%TO.N,P115*%
X211219481Y-166471891D03*
%TD*%
D33*
%TO.P,S2,1*%
%TO.N,c0_r1*%
X137995319Y-144784101D03*
D34*
%TO.P,S2,2*%
%TO.N,P031*%
X126269478Y-145648426D03*
%TD*%
D39*
%TO.P,S4,1*%
%TO.N,c1_r2*%
X157421210Y-143992126D03*
D40*
%TO.P,S4,2*%
%TO.N,P029*%
X145664657Y-143831187D03*
%TD*%
D41*
%TO.P,S18,1*%
%TO.N,c4_r3*%
X233830540Y-189352875D03*
D42*
%TO.P,S18,2*%
%TO.N,P113*%
X228091643Y-179090928D03*
%TD*%
D35*
%TO.P,S15,1*%
%TO.N,c4_r0*%
X216483269Y-107086804D03*
D36*
%TO.P,S15,2*%
%TO.N,P113*%
X205168974Y-103888528D03*
%TD*%
D29*
%TO.P,S10,1*%
%TO.N,c3_r2*%
X194202392Y-139679401D03*
D30*
%TO.P,S10,2*%
%TO.N,P115*%
X182652393Y-137479404D03*
%TD*%
D39*
%TO.P,S5,1*%
%TO.N,c1_r1*%
X154121910Y-125280762D03*
D40*
%TO.P,S5,2*%
%TO.N,P029*%
X142365357Y-125119823D03*
%TD*%
D43*
%TO.P,S16,1*%
%TO.N,c2_r3*%
X201757188Y-164667339D03*
D44*
%TO.P,S16,2*%
%TO.N,P002*%
X191656186Y-158649685D03*
%TD*%
D39*
%TO.P,S6,1*%
%TO.N,c1_r0*%
X150822582Y-106569436D03*
D40*
%TO.P,S6,2*%
%TO.N,P029*%
X139066029Y-106408497D03*
%TD*%
D29*
%TO.P,S11,1*%
%TO.N,c3_r1*%
X194202376Y-120679410D03*
D30*
%TO.P,S11,2*%
%TO.N,P115*%
X182652377Y-118479413D03*
%TD*%
D35*
%TO.P,S13,1*%
%TO.N,c4_r2*%
X213171336Y-144942203D03*
D36*
%TO.P,S13,2*%
%TO.N,P113*%
X201857041Y-141743927D03*
%TD*%
D31*
%TO.P,S7,1*%
%TO.N,c2_r2*%
X174411142Y-131108925D03*
D32*
%TO.P,S7,2*%
%TO.N,P002*%
X162713353Y-129923947D03*
%TD*%
D45*
%TO.N,P020*%
X200039551Y-114718849D03*
X142335197Y-137639442D03*
X178002559Y-105898721D03*
X158647621Y-118578310D03*
X220836109Y-120567468D03*
%TO.N,c3_r1*%
X190927407Y-118604426D03*
%TO.N,P031*%
X134087800Y-142854714D03*
X139005351Y-161207298D03*
X129170242Y-124502122D03*
%TO.N,P029*%
X153696740Y-141729514D03*
X147098084Y-104306805D03*
X150397411Y-123018166D03*
%TO.N,P002*%
X199663009Y-160845607D03*
X169242057Y-109602613D03*
X170898030Y-128530296D03*
X167586120Y-90674890D03*
%TO.N,P115*%
X190927379Y-117804425D03*
X190927383Y-136804412D03*
X190927378Y-98804415D03*
X218385120Y-170665321D03*
%TO.N,P113*%
X233927804Y-184996067D03*
X210159371Y-141792717D03*
X211815339Y-122865016D03*
X213471296Y-103937313D03*
%TO.N,P024*%
X209093886Y-160921390D03*
X227425925Y-173416346D03*
X242017077Y-189852653D03*
%TO.N,P022*%
X147252766Y-155992050D03*
X199856364Y-133736426D03*
X179658511Y-124826411D03*
X162147694Y-137272098D03*
X219180150Y-139495183D03*
%TO.N,P017*%
X137417634Y-119286863D03*
X155549063Y-99849399D03*
X222477116Y-101810711D03*
X200039554Y-95832402D03*
X176357156Y-87091742D03*
%TO.N,c3_r2*%
X190927388Y-137604417D03*
%TO.N,c3_r0*%
X190927390Y-99604403D03*
%TO.N,c2_r3*%
X199389389Y-161597358D03*
%TO.N,c0_r0*%
X129377290Y-125274855D03*
%TO.N,c2_r2*%
X170967758Y-129327253D03*
%TO.N,c0_r1*%
X134294859Y-143627449D03*
%TO.N,c1_r2*%
X153835653Y-142517335D03*
%TO.N,c0_r2*%
X139212420Y-161980028D03*
%TO.N,c4_r1*%
X211745612Y-123661967D03*
%TO.N,c1_r0*%
X147237025Y-105094665D03*
%TO.N,c4_r2*%
X210089659Y-142589662D03*
%TO.N,c4_r0*%
X213401583Y-104734281D03*
%TO.N,c4_r3*%
X233314948Y-185510301D03*
%TO.N,c3_r3*%
X217926261Y-171320640D03*
%TO.N,c2_r0*%
X167655841Y-91471861D03*
%TO.N,c2_r1*%
X169311808Y-110399563D03*
%TO.N,c1_r1*%
X150536331Y-123806012D03*
%TD*%
%TO.N,P020*%
D46*
X223832897Y-110461785D02*
X224374566Y-110007279D01*
X178002559Y-105898721D02*
X199219429Y-105898722D01*
D47*
X236979025Y-111755897D02*
X236431920Y-112214960D01*
D46*
X142335197Y-137639442D02*
X160922983Y-134361915D01*
X199219429Y-105898722D02*
X200039553Y-106718848D01*
X157258468Y-118823257D02*
X157101785Y-118713558D01*
D47*
X237577333Y-111808245D02*
X236979025Y-111755897D01*
D46*
X158647621Y-118578310D02*
X178253285Y-116863030D01*
X178253285Y-116863030D02*
X178894909Y-116098390D01*
X222961326Y-120423736D02*
X223832897Y-110461785D01*
X220340636Y-116494965D02*
X221111984Y-117414220D01*
X224374566Y-110007279D02*
X230351729Y-110530211D01*
D47*
X236431920Y-112214960D02*
X230679205Y-111711673D01*
D46*
X176457229Y-106033921D02*
X176296101Y-105898720D01*
X160922983Y-134361915D02*
X161328551Y-133782692D01*
X230351729Y-110530211D02*
X230541892Y-110756838D01*
X220836109Y-120567468D02*
X219405375Y-120442300D01*
X222605549Y-120722271D02*
X222961326Y-120423736D01*
X230541892Y-110756838D02*
X230440858Y-111911671D01*
X200039551Y-114718849D02*
X198287959Y-114718852D01*
D47*
X238584762Y-112624160D02*
X238236399Y-112593683D01*
D46*
X178894909Y-116098390D02*
X178002559Y-105898721D01*
X178002559Y-105898721D02*
X176457229Y-106033921D01*
X219405375Y-120442300D02*
X219405373Y-120442298D01*
X220836109Y-120567468D02*
X222605549Y-120722271D01*
D47*
X238236399Y-112593683D02*
X237577333Y-111808245D01*
D46*
X221111984Y-117414220D02*
X220836109Y-120567468D01*
X142335197Y-137639442D02*
X140602156Y-138103813D01*
X140602156Y-138103813D02*
X140391469Y-137982170D01*
X200039553Y-106718848D02*
X200039551Y-114718849D01*
X200039551Y-114718849D02*
X220340636Y-116494965D01*
X161328551Y-133782692D02*
X158647621Y-118578310D01*
X198287959Y-114718852D02*
X198277376Y-114729429D01*
X158647621Y-118578310D02*
X157258468Y-118823257D01*
%TO.N,c3_r1*%
X194202385Y-120679410D02*
X192127375Y-118604411D01*
X190927407Y-118604426D02*
X192417261Y-118604427D01*
X194977384Y-114729422D02*
X194977375Y-114729423D01*
X192127375Y-118604411D02*
X190927407Y-118604426D01*
X192417261Y-118604427D02*
X194814336Y-116593041D01*
X194814336Y-116593041D02*
X194977384Y-114729422D01*
%TO.N,MCU1_1*%
D47*
X242747183Y-97690099D02*
X240635246Y-97505349D01*
%TO.N,MCU1_2*%
X242525821Y-100220449D02*
X240413879Y-100035668D01*
%TO.N,MCU1_3*%
X242304423Y-102750761D02*
X240192493Y-102565998D01*
%TO.N,MCU1_4*%
X242083060Y-105281103D02*
X239971121Y-105096350D01*
%TO.N,MCU1_5*%
X241861681Y-107811448D02*
X239749747Y-107626681D01*
%TO.N,MCU1_6*%
X241640308Y-110341768D02*
X239528387Y-110157010D01*
%TO.N,MCU1_7*%
X241418919Y-112872105D02*
X239306990Y-112687346D01*
%TO.N,MCU1_8*%
X241197544Y-115402455D02*
X239085628Y-115217662D01*
%TO.N,MCU1_9*%
X240976191Y-117932776D02*
X238864244Y-117748022D01*
%TO.N,MCU1_10*%
X240754812Y-120463110D02*
X238642877Y-120278349D01*
%TO.N,MCU1_11*%
X240533434Y-122993458D02*
X238421481Y-122808666D01*
%TO.N,MCU1_12*%
X240312054Y-125523782D02*
X238200114Y-125339015D01*
%TO.N,MCU1_13*%
X225130047Y-124195530D02*
X227241971Y-124380299D01*
%TO.N,MCU1_14*%
X225351409Y-121665191D02*
X227463342Y-121849955D01*
%TO.N,MCU1_15*%
X225572792Y-119134847D02*
X227684727Y-119319642D01*
%TO.N,MCU1_16*%
X225794165Y-116604537D02*
X227906105Y-116789303D01*
%TO.N,MCU1_17*%
X226015552Y-114074200D02*
X228127488Y-114258975D01*
%TO.N,MCU1_18*%
X226236922Y-111543860D02*
X228348849Y-111728628D01*
%TO.N,MCU1_19*%
X226458293Y-109013531D02*
X228570234Y-109198299D01*
%TO.N,MCU1_20*%
X226679676Y-106483196D02*
X228791599Y-106667976D01*
%TO.N,MCU1_21*%
X226901058Y-103952861D02*
X229012983Y-104137607D01*
%TO.N,MCU1_22*%
X227122427Y-101422527D02*
X229234346Y-101607288D01*
%TO.N,MCU1_23*%
X227343800Y-98892197D02*
X229455740Y-99076961D01*
%TO.N,MCU1_24*%
X227565171Y-96361839D02*
X229677113Y-96546624D01*
%TO.N,B+*%
D46*
X245058034Y-97077537D02*
X244148995Y-95994188D01*
D47*
X230399352Y-96609810D02*
X230747695Y-96640293D01*
D46*
X244148995Y-95994188D02*
X226217490Y-94425383D01*
X238066381Y-131097632D02*
X238284271Y-128607143D01*
X241814531Y-128414092D02*
X242356207Y-127959574D01*
D47*
X231406788Y-97425707D02*
X232005087Y-97478066D01*
D46*
X225956023Y-97413967D02*
X237910358Y-98459836D01*
X225675815Y-94879903D02*
X225501504Y-96872293D01*
X238758750Y-131922765D02*
X238066381Y-131097632D01*
X226217490Y-94425383D02*
X225675815Y-94879903D01*
D47*
X232005087Y-97478066D02*
X232541341Y-97028091D01*
D46*
X225501504Y-96872293D02*
X225956023Y-97413967D01*
X239391026Y-131978082D02*
X238758750Y-131922765D01*
X238485975Y-97976837D02*
X238543239Y-97322308D01*
D47*
X230747695Y-96640293D02*
X231406788Y-97425707D01*
D46*
X238284271Y-128607143D02*
X238825947Y-128152626D01*
X242356207Y-127959574D02*
X245058034Y-97077537D01*
X237910358Y-98459836D02*
X238485975Y-97976837D01*
D47*
X232541341Y-97028091D02*
X238294065Y-97531397D01*
D46*
X238825947Y-128152626D02*
X241814531Y-128414092D01*
%TO.N,RAW*%
D47*
X237864504Y-101634565D02*
X237317428Y-102093625D01*
X237643135Y-104164911D02*
X237096036Y-104623972D01*
X230526343Y-99170627D02*
X231185403Y-99956052D01*
X231185403Y-99956052D02*
X231783718Y-100008402D01*
X230177969Y-99140139D02*
X230526343Y-99170627D01*
X239470256Y-102502814D02*
X239121890Y-102472343D01*
X238900523Y-105002675D02*
X238241463Y-104217243D01*
X237317428Y-102093625D02*
X231564697Y-101590322D01*
X238462832Y-101686905D02*
X237864504Y-101634565D01*
X239248887Y-105033165D02*
X238900523Y-105002675D01*
X239121890Y-102472343D02*
X238462832Y-101686905D01*
X238241463Y-104217243D02*
X237643135Y-104164911D01*
X237096036Y-104623972D02*
X231343327Y-104120658D01*
X231783718Y-100008402D02*
X232319989Y-99558433D01*
X232319989Y-99558433D02*
X238072683Y-100061710D01*
%TO.N,GND*%
X230304960Y-101700956D02*
X230964014Y-102486395D01*
X236874684Y-107154306D02*
X231121946Y-106651003D01*
X229956608Y-101670479D02*
X230304960Y-101700956D01*
X237421752Y-106695234D02*
X236874684Y-107154306D01*
X238020086Y-106747578D02*
X237421752Y-106695234D01*
X237851315Y-102592056D02*
X237851316Y-102592055D01*
X230964014Y-102486395D02*
X231562353Y-102538740D01*
X238679139Y-107533010D02*
X238020086Y-106747578D01*
X232098619Y-102088760D02*
X237851315Y-102592056D01*
X239027501Y-107563489D02*
X238679139Y-107533010D01*
X231562353Y-102538740D02*
X232098619Y-102088760D01*
%TO.N,RST*%
X229735215Y-104200811D02*
X230083599Y-104231290D01*
X230742635Y-105016718D02*
X231340956Y-105069073D01*
X231340956Y-105069073D02*
X231877211Y-104619095D01*
X230083599Y-104231290D02*
X230742635Y-105016718D01*
X231877211Y-104619095D02*
X237629950Y-105122399D01*
%TO.N,VCC*%
X231119607Y-107599406D02*
X231655865Y-107149441D01*
X231655865Y-107149441D02*
X237408574Y-107652717D01*
X230521257Y-107547060D02*
X231119607Y-107599406D01*
X229862213Y-106761620D02*
X230521257Y-107547060D01*
X229513856Y-106731149D02*
X229862213Y-106761620D01*
%TO.N,P031*%
X231434481Y-109679756D02*
X237187196Y-110183057D01*
D46*
X136632969Y-160622384D02*
X138076960Y-161456072D01*
X133159382Y-143103477D02*
X134087800Y-142854714D01*
X122662886Y-125025171D02*
X126797844Y-123917211D01*
X128241819Y-124750895D02*
X129170242Y-124502122D01*
D47*
X230299890Y-110077376D02*
X230898201Y-110129734D01*
X229292480Y-109261487D02*
X229640838Y-109291948D01*
D46*
X126269457Y-145648455D02*
X127580443Y-143377758D01*
X131187033Y-164001034D02*
X132497999Y-161730352D01*
X127580443Y-143377758D02*
X131715411Y-142269812D01*
X131715411Y-142269812D02*
X133159382Y-143103477D01*
D47*
X229640838Y-109291948D02*
X230299890Y-110077376D01*
D46*
X121351893Y-127295854D02*
X122662886Y-125025171D01*
X138076960Y-161456072D02*
X139005351Y-161207298D01*
X132497999Y-161730352D02*
X136632969Y-160622384D01*
D47*
X230898201Y-110129734D02*
X231434481Y-109679756D01*
D46*
X126797844Y-123917211D02*
X128241819Y-124750895D01*
%TO.N,P029*%
X146151533Y-104473714D02*
X147098084Y-104306805D01*
X142365334Y-125119851D02*
X143869241Y-122972059D01*
X140569919Y-104260718D02*
X144785713Y-103517360D01*
X147168542Y-141683418D02*
X151384345Y-140940050D01*
D47*
X231213109Y-112210094D02*
X236965812Y-112713397D01*
X229071091Y-111791821D02*
X229419462Y-111822299D01*
D46*
X148085038Y-122228701D02*
X149450856Y-123185063D01*
D47*
X230078519Y-112607724D02*
X230676846Y-112660059D01*
D46*
X143869241Y-122972059D02*
X148085038Y-122228701D01*
X139066024Y-106408491D02*
X140569919Y-104260718D01*
D47*
X229419462Y-111822299D02*
X230078519Y-112607724D01*
X230676846Y-112660059D02*
X231213109Y-112210094D01*
D46*
X149450856Y-123185063D02*
X150397411Y-123018166D01*
X145664649Y-143831203D02*
X147168542Y-141683418D01*
X151384345Y-140940050D02*
X152750173Y-141896412D01*
X152750173Y-141896412D02*
X153696740Y-141729514D01*
X144785713Y-103517360D02*
X146151533Y-104473714D01*
%TO.N,P002*%
D47*
X228849741Y-114322152D02*
X229198072Y-114352621D01*
D46*
X162713352Y-129923946D02*
X164398712Y-127915425D01*
X165351333Y-89686932D02*
X166628621Y-90758689D01*
X168284565Y-109686364D02*
X169242057Y-109602613D01*
X168663266Y-127542311D02*
X169940521Y-128614063D01*
X167007306Y-108614627D02*
X168284565Y-109686364D01*
X169940521Y-128614063D02*
X170898030Y-128530296D01*
X191656166Y-158649695D02*
X194032461Y-157541607D01*
X198759811Y-160516878D02*
X199663009Y-160845607D01*
X166628621Y-90758689D02*
X167586120Y-90674890D01*
X161086803Y-90060008D02*
X165351333Y-89686932D01*
X194032461Y-157541607D02*
X198055148Y-159005737D01*
X164398712Y-127915425D02*
X168663266Y-127542311D01*
X159401434Y-92068556D02*
X161086803Y-90060008D01*
X198055148Y-159005737D02*
X198759811Y-160516878D01*
X161057396Y-110996247D02*
X162742766Y-108987710D01*
X162742766Y-108987710D02*
X167007306Y-108614627D01*
D47*
X229198072Y-114352621D02*
X229857135Y-115138052D01*
X230991731Y-114740437D02*
X236744433Y-115243725D01*
X230455460Y-115190413D02*
X230991731Y-114740437D01*
X229857135Y-115138052D02*
X230455460Y-115190413D01*
%TO.N,P115*%
D46*
X211219476Y-166471889D02*
X213801604Y-166016606D01*
X184506384Y-135625414D02*
X188787220Y-135625409D01*
X188787208Y-116625411D02*
X189966226Y-117804404D01*
X188787213Y-97625429D02*
X189966226Y-98804409D01*
D47*
X230234090Y-117720737D02*
X230770345Y-117270779D01*
D46*
X217308239Y-168471984D02*
X217597796Y-170114026D01*
D47*
X228628350Y-116852499D02*
X228976694Y-116882973D01*
D46*
X182652392Y-118479413D02*
X184506376Y-116625418D01*
X182652386Y-137479415D02*
X184506384Y-135625414D01*
X182652384Y-99479416D02*
X184506390Y-97625409D01*
X188787220Y-135625409D02*
X189966218Y-136804412D01*
D47*
X228976694Y-116882973D02*
X229635778Y-117668399D01*
D46*
X217597796Y-170114026D02*
X218385120Y-170665321D01*
X189966218Y-136804412D02*
X190927383Y-136804412D01*
X189966226Y-98804409D02*
X190927378Y-98804415D01*
D47*
X229635778Y-117668399D02*
X230234090Y-117720737D01*
D46*
X184506376Y-116625418D02*
X188787208Y-116625411D01*
X189966226Y-117804404D02*
X190927379Y-117804425D01*
D47*
X230770345Y-117270779D02*
X236523056Y-117774078D01*
D46*
X184506390Y-97625409D02*
X188787213Y-97625429D01*
X213801604Y-166016606D02*
X217308239Y-168471984D01*
%TO.N,P113*%
X205521514Y-121130881D02*
X209786075Y-121503978D01*
D47*
X229414402Y-120198728D02*
X230012716Y-120251063D01*
D46*
X209786075Y-121503978D02*
X210857832Y-122781236D01*
X201857029Y-141743934D02*
X203865570Y-140058577D01*
D47*
X230548977Y-119801097D02*
X236301701Y-120304406D01*
D46*
X228091646Y-179090933D02*
X230703624Y-179319438D01*
X212513808Y-103853551D02*
X213471296Y-103937313D01*
D47*
X228406962Y-119382814D02*
X228755341Y-119413293D01*
D46*
X203512992Y-122816247D02*
X205521514Y-121130881D01*
D47*
X228755341Y-119413293D02*
X229414402Y-120198728D01*
D46*
X233309972Y-184259770D02*
X233927804Y-184996067D01*
X233455285Y-182598758D02*
X233309972Y-184259770D01*
D47*
X230012716Y-120251063D02*
X230548977Y-119801097D01*
D46*
X205168941Y-103888539D02*
X207177502Y-102203179D01*
X208130102Y-140431684D02*
X209201860Y-141708941D01*
X211442036Y-102576268D02*
X212513808Y-103853551D01*
X230703624Y-179319438D02*
X233455285Y-182598758D01*
X207177502Y-102203179D02*
X211442036Y-102576268D01*
X209201860Y-141708941D02*
X210159371Y-141792717D01*
X203865570Y-140058577D02*
X208130102Y-140431684D01*
X210857832Y-122781236D02*
X211815339Y-122865016D01*
%TO.N,P111*%
D47*
X228185595Y-121913147D02*
X228533954Y-121943636D01*
X230327586Y-122331431D02*
X236080307Y-122834727D01*
X229791324Y-122781402D02*
X230327586Y-122331431D01*
X229193016Y-122729071D02*
X229791324Y-122781402D01*
X228533954Y-121943636D02*
X229193016Y-122729071D01*
%TO.N,P010*%
X227964211Y-124443491D02*
X228312578Y-124473961D01*
X228312578Y-124473961D02*
X228971634Y-125259407D01*
X230106205Y-124861777D02*
X235858946Y-125365066D01*
X228971634Y-125259407D02*
X229569952Y-125311754D01*
X229569952Y-125311754D02*
X230106205Y-124861777D01*
%TO.N,P104*%
X237477884Y-125275846D02*
X237129508Y-125245350D01*
X235325051Y-124866627D02*
X229572318Y-124363331D01*
X235872129Y-124407576D02*
X235325051Y-124866627D01*
X237129508Y-125245350D02*
X236470455Y-124459928D01*
X236470455Y-124459928D02*
X235872129Y-124407576D01*
%TO.N,P011*%
X235546409Y-122336312D02*
X229793693Y-121833011D01*
X236093513Y-121877241D02*
X235546409Y-122336312D01*
X237350898Y-122715005D02*
X236691843Y-121929594D01*
X237699265Y-122745475D02*
X237350898Y-122715005D01*
X236691843Y-121929594D02*
X236093513Y-121877241D01*
%TO.N,P100*%
X237572255Y-120184674D02*
X236913219Y-119399253D01*
X237920633Y-120215154D02*
X237572255Y-120184674D01*
X235767804Y-119805968D02*
X230015057Y-119302681D01*
X236314883Y-119346902D02*
X235767804Y-119805968D01*
X236913219Y-119399253D02*
X236314883Y-119346902D01*
%TO.N,P024*%
X236536252Y-116816579D02*
X235989164Y-117275641D01*
D46*
X224871691Y-115128510D02*
X224393304Y-115529926D01*
D47*
X235989164Y-117275641D02*
X230236459Y-116772325D01*
D46*
X227425925Y-173416346D02*
X226204741Y-172561278D01*
X226204741Y-172561278D02*
X226169637Y-172362207D01*
X242017077Y-189852653D02*
X241007852Y-188649910D01*
X224393304Y-115529926D02*
X221771492Y-145497369D01*
X237361073Y-179583018D02*
X235409105Y-179412238D01*
X242323969Y-188386385D02*
X239595930Y-185135233D01*
X217497832Y-165861235D02*
X217322349Y-165892171D01*
X221771492Y-145497369D02*
X218610189Y-148150028D01*
D47*
X237793629Y-117654346D02*
X237134587Y-116868894D01*
D46*
X227425925Y-173416346D02*
X227728894Y-172983652D01*
X217322349Y-165892171D02*
X215684041Y-164745016D01*
X241085804Y-189091961D02*
X241007854Y-188649913D01*
X227728894Y-172983652D02*
X227569613Y-172080319D01*
X208626393Y-162205801D02*
X209093886Y-160921390D01*
X239824802Y-182519167D02*
X237361073Y-179583018D01*
X235409105Y-179412238D02*
X233898943Y-180679417D01*
D47*
X237134587Y-116868894D02*
X236536252Y-116816579D01*
D46*
X242017077Y-189852653D02*
X242209837Y-189690906D01*
D47*
X238142018Y-117684835D02*
X237793629Y-117654346D01*
D46*
X209093886Y-160921390D02*
X207723157Y-160422491D01*
X220690202Y-164355504D02*
X218250995Y-164785597D01*
X218250995Y-164785597D02*
X217497832Y-165861235D01*
X227569613Y-172080319D02*
X224006071Y-169585096D01*
X215679144Y-164772794D02*
X208626393Y-162205801D01*
X207723157Y-160422491D02*
X207621464Y-160469907D01*
X215679144Y-164772794D02*
X218610189Y-148150028D01*
X233898943Y-180679417D02*
X233490360Y-180643665D01*
X242209837Y-189690906D02*
X242323969Y-188386385D01*
X223421126Y-166267717D02*
X220690202Y-164355504D01*
X230101021Y-115796010D02*
X229910858Y-115569387D01*
X229910858Y-115569387D02*
X224871691Y-115128510D01*
X239595930Y-185135233D02*
X239824802Y-182519167D01*
X229998105Y-116972336D02*
X230101021Y-115796010D01*
X233490360Y-180643665D02*
X227425925Y-173416346D01*
X224006071Y-169585096D02*
X223421126Y-166267717D01*
%TO.N,P022*%
X145519736Y-156456404D02*
X145309053Y-156334770D01*
X162147694Y-137272098D02*
X160578115Y-137548859D01*
X179658511Y-124826411D02*
X199147107Y-124826401D01*
X180563566Y-135171212D02*
X179658511Y-124826411D01*
X221803467Y-139395015D02*
X224113097Y-112995861D01*
X219180150Y-139495183D02*
X221447665Y-139693568D01*
D47*
X237355955Y-114338575D02*
X236757639Y-114286233D01*
D46*
X147252766Y-155992050D02*
X145519736Y-156456404D01*
X160578115Y-137548859D02*
X160401092Y-137424903D01*
X218736740Y-135372212D02*
X219464939Y-136240039D01*
X219464939Y-136240039D02*
X219180152Y-139495183D01*
X147252766Y-155992050D02*
X164307189Y-152984886D01*
X199147107Y-124826401D02*
X199868762Y-125548046D01*
X199868762Y-125548046D02*
X199868760Y-133724031D01*
X164307189Y-152984886D02*
X164795354Y-152287719D01*
X224634811Y-112558082D02*
X230132240Y-113039046D01*
X178113179Y-124961608D02*
X177952060Y-124826413D01*
D47*
X238015004Y-115124008D02*
X237355955Y-114338575D01*
X236757639Y-114286233D02*
X236210548Y-114745309D01*
D46*
X164795354Y-152287719D02*
X162147694Y-137272098D01*
X219180150Y-139495183D02*
X217749421Y-139370013D01*
X221447665Y-139693568D02*
X221803467Y-139395015D01*
X199856364Y-133736426D02*
X199849341Y-133729406D01*
X180241476Y-135555058D02*
X180563566Y-135171212D01*
X199868760Y-133724031D02*
X199856364Y-133736426D01*
X230132240Y-113039046D02*
X230322390Y-113265679D01*
X199849341Y-133729406D02*
X198277380Y-133729405D01*
X162147694Y-137272098D02*
X162269075Y-137127448D01*
X162269075Y-137127448D02*
X180241476Y-135555058D01*
X230322390Y-113265679D02*
X230219490Y-114442004D01*
X179658511Y-124826411D02*
X178113179Y-124961608D01*
X199838778Y-133718859D02*
X218736740Y-135372212D01*
D47*
X236210548Y-114745309D02*
X230457817Y-114242008D01*
D46*
X217749421Y-139370013D02*
X217749417Y-139370014D01*
X224113097Y-112995861D02*
X224634811Y-112558082D01*
X219180152Y-139495183D02*
X219180150Y-139495183D01*
D47*
X238363383Y-115154497D02*
X238015004Y-115124008D01*
%TO.N,P017*%
X237200379Y-109225569D02*
X236653302Y-109684626D01*
X236653302Y-109684626D02*
X230900582Y-109181334D01*
D46*
X224592447Y-107516782D02*
X230569623Y-108039718D01*
X135684617Y-119751228D02*
X135473932Y-119629590D01*
X222789734Y-98237474D02*
X222414198Y-97789930D01*
D47*
X238457775Y-110063338D02*
X237798706Y-109277914D01*
D46*
X137417634Y-119286863D02*
X158079004Y-115643703D01*
X230569623Y-108039718D02*
X230472069Y-109154715D01*
X221217298Y-101700493D02*
X221061323Y-101514607D01*
X153979489Y-100126172D02*
X153802462Y-100002213D01*
X158282727Y-115352767D02*
X155549063Y-99849399D01*
X222477116Y-101810711D02*
X222789734Y-98237474D01*
X199412457Y-87091751D02*
X200039555Y-87718840D01*
X176747237Y-97994808D02*
X177257813Y-97386325D01*
X155549063Y-99849399D02*
X153979489Y-100126172D01*
X174640139Y-86971007D02*
X174760893Y-87091751D01*
X200039554Y-95832402D02*
X198380362Y-95832399D01*
D47*
X237798706Y-109277914D02*
X237200379Y-109225569D01*
D46*
X174932579Y-87216377D02*
X174640139Y-86971005D01*
X176357156Y-87091742D02*
X174932579Y-87216377D01*
X200039555Y-87718840D02*
X200039554Y-95832402D01*
X224530137Y-102492236D02*
X224137938Y-106975122D01*
X198380362Y-95832399D02*
X198277389Y-95729418D01*
X177257813Y-97386325D02*
X176357156Y-87091742D01*
X137417634Y-119286863D02*
X135684617Y-119751228D01*
X224137938Y-106975122D02*
X224592447Y-107516782D01*
X176357156Y-87091742D02*
X199412457Y-87091751D01*
X224075614Y-101950567D02*
X224530137Y-102492236D01*
X222477116Y-101810711D02*
X224075614Y-101950567D01*
D47*
X238806124Y-110093827D02*
X238457775Y-110063338D01*
D46*
X222477116Y-101810711D02*
X221217298Y-101700493D01*
X158079004Y-115643703D02*
X158282727Y-115352767D01*
X155549063Y-99849399D02*
X155848299Y-99823240D01*
X155848299Y-99823240D02*
X176747237Y-97994808D01*
X222414198Y-97789930D02*
X200039554Y-95832402D01*
X230472069Y-109154715D02*
X230662233Y-109381332D01*
%TO.N,P006*%
D47*
X238684216Y-99156576D02*
X238085894Y-99104228D01*
X237538799Y-99563307D02*
X231786069Y-99060005D01*
X238085894Y-99104228D02*
X237538799Y-99563307D01*
X239691634Y-99972477D02*
X239343260Y-99942012D01*
X239343260Y-99942012D02*
X238684216Y-99156576D01*
%TO.N,B-*%
D46*
X244516359Y-97532058D02*
X243607321Y-96448706D01*
X231853923Y-95760246D02*
X231769110Y-96729648D01*
X232220677Y-95452504D02*
X231853923Y-95760246D01*
X237426966Y-132669336D02*
X237802091Y-128381649D01*
D47*
X239913005Y-97442134D02*
X239564647Y-97411665D01*
D46*
X238687606Y-127638613D02*
X241360011Y-127872417D01*
X243607321Y-96448706D02*
X232220677Y-95452504D01*
D47*
X237760183Y-97032958D02*
X232007448Y-96529666D01*
D46*
X227876645Y-132225466D02*
X237004261Y-133024030D01*
X241901686Y-127417897D02*
X244516359Y-97532058D01*
X237802091Y-128381649D02*
X238687606Y-127638613D01*
X237004261Y-133024030D02*
X237426966Y-132669336D01*
D47*
X238905588Y-96626243D02*
X238307275Y-96573886D01*
X238307275Y-96573886D02*
X237760183Y-97032958D01*
D46*
X239913005Y-97442153D02*
X239861176Y-98034573D01*
X241360011Y-127872417D02*
X241901686Y-127417897D01*
D47*
X239564647Y-97411665D02*
X238905588Y-96626243D01*
%TO.N,BAT_P*%
D46*
X236535658Y-134990672D02*
X236806487Y-134763420D01*
X227702330Y-134217857D02*
X236535658Y-134990672D01*
X236806487Y-134763420D02*
X239129567Y-134966663D01*
%TO.N,JST1_1*%
D47*
X226690192Y-134129300D02*
X224897044Y-133972417D01*
%TO.N,JST1_2*%
X226864507Y-132136923D02*
X225071362Y-131980048D01*
%TO.N,c3_r2*%
D46*
X192127378Y-137604431D02*
X190927388Y-137604417D01*
X194202377Y-139679427D02*
X192127378Y-137604431D01*
X192417272Y-137604410D02*
X194977384Y-135044305D01*
X190927388Y-137604417D02*
X192417272Y-137604410D01*
X194977384Y-135044305D02*
X194977378Y-133729412D01*
%TO.N,c3_r0*%
X191917278Y-99604423D02*
X194977382Y-96544295D01*
X190927390Y-99604403D02*
X191917278Y-99604423D01*
X192127372Y-99604431D02*
X190927390Y-99604403D01*
X194202389Y-101679410D02*
X192127372Y-99604431D01*
X194977382Y-96544295D02*
X194977385Y-95729414D01*
%TO.N,c2_r3*%
X204026813Y-160697558D02*
X204520479Y-159341258D01*
X200517023Y-162007796D02*
X199389389Y-161597358D01*
X201757188Y-164667349D02*
X200517023Y-162007796D01*
X199389389Y-161597358D02*
X200910178Y-162150888D01*
X200910178Y-162150888D02*
X204026813Y-160697558D01*
%TO.N,c0_r0*%
X130416518Y-124996408D02*
X132519540Y-121353862D01*
X129377290Y-125274855D02*
X130416518Y-124996408D01*
X132519540Y-121353862D02*
X132286372Y-120483685D01*
X133077755Y-126431533D02*
X130536410Y-124964280D01*
X130536410Y-124964280D02*
X129377290Y-125274855D01*
%TO.N,c2_r2*%
X174411142Y-131108917D02*
X172163196Y-129222664D01*
X174775838Y-126385271D02*
X174664622Y-125114019D01*
X172163196Y-129222664D02*
X170967758Y-129327253D01*
X172413327Y-129200776D02*
X174775838Y-126385271D01*
X170967758Y-129327253D02*
X172413327Y-129200776D01*
%TO.N,c0_r1*%
X134294859Y-143627449D02*
X135817039Y-143219578D01*
X137995302Y-144784120D02*
X135453974Y-143316856D01*
X137566501Y-140189423D02*
X137203926Y-138836264D01*
X135817039Y-143219578D02*
X137566501Y-140189423D01*
X135453974Y-143316856D02*
X134294859Y-143627449D01*
%TO.N,c1_r2*%
X153835653Y-142517335D02*
X155512256Y-142221709D01*
X157400806Y-139413346D02*
X157151227Y-137997956D01*
X155512256Y-142221709D02*
X157453070Y-139449943D01*
X157421219Y-143992135D02*
X155017417Y-142308970D01*
X157453070Y-139449943D02*
X157400806Y-139413346D01*
X155017417Y-142308970D02*
X153835653Y-142517335D01*
%TO.N,c0_r2*%
X142354657Y-158059056D02*
X142121502Y-157188866D01*
X140251653Y-161701573D02*
X142354657Y-158059056D01*
X140371525Y-161669451D02*
X139212420Y-161980028D01*
X139212420Y-161980028D02*
X140251653Y-161701573D01*
X142912872Y-163136721D02*
X140371525Y-161669451D01*
%TO.N,c4_r1*%
X216011924Y-121366292D02*
X216117917Y-120154683D01*
X213190464Y-123788375D02*
X216038806Y-121398336D01*
X216038806Y-121398336D02*
X216011924Y-121366292D01*
X211745612Y-123661967D02*
X213190464Y-123788375D01*
X214827299Y-126014515D02*
X212941049Y-123766556D01*
X212941049Y-123766556D02*
X211745612Y-123661967D01*
%TO.N,c1_r0*%
X150822573Y-106569434D02*
X148418787Y-104886278D01*
X148913607Y-104799042D02*
X150854438Y-102027249D01*
X147237025Y-105094665D02*
X148913607Y-104799042D01*
X148418787Y-104886278D02*
X147237025Y-105094665D01*
X150854438Y-102027249D02*
X150802166Y-101990647D01*
X150802166Y-101990647D02*
X150552604Y-100575260D01*
%TO.N,c4_r2*%
X214355974Y-140294019D02*
X214461979Y-139082408D01*
X214382844Y-140326038D02*
X214355974Y-140294019D01*
X210089659Y-142589662D02*
X211534506Y-142716074D01*
X211534506Y-142716074D02*
X214382844Y-140326038D01*
X213171353Y-144942218D02*
X211285084Y-142694259D01*
X211285084Y-142694259D02*
X210089659Y-142589662D01*
%TO.N,c4_r0*%
X214597018Y-104838862D02*
X213401583Y-104734281D01*
X216483273Y-107086810D02*
X214597018Y-104838862D01*
X214846414Y-104860687D02*
X217694756Y-102470640D01*
X213401583Y-104734281D02*
X214846414Y-104860687D01*
X217667881Y-102438599D02*
X217773889Y-101226992D01*
X217694756Y-102470640D02*
X217667881Y-102438599D01*
%TO.N,c4_r3*%
X234351375Y-186745464D02*
X237788475Y-187046167D01*
X237788475Y-187046167D02*
X237788731Y-187043239D01*
X233314948Y-185510301D02*
X234351375Y-186745464D01*
X234086298Y-186429547D02*
X233314948Y-185510301D01*
X237788731Y-187043239D02*
X238886661Y-186121979D01*
X233830531Y-189352870D02*
X234086298Y-186429547D01*
%TO.N,c3_r3*%
X222869425Y-171322035D02*
X223466444Y-170469406D01*
X219418825Y-174898837D02*
X218909237Y-172008924D01*
X217926261Y-171320640D02*
X218922246Y-172018030D01*
X218909237Y-172008924D02*
X217926261Y-171320640D01*
X218922246Y-172018030D02*
X222869425Y-171322035D01*
%TO.N,c2_r0*%
X169101402Y-91345395D02*
X171463927Y-88529856D01*
X171463927Y-88529856D02*
X171352713Y-87258613D01*
X171099218Y-93253535D02*
X168851278Y-91367266D01*
X167655841Y-91471861D02*
X169101402Y-91345395D01*
X168851278Y-91367266D02*
X167655841Y-91471861D01*
%TO.N,c2_r1*%
X170507238Y-110294971D02*
X169311808Y-110399563D01*
X170757369Y-110273081D02*
X173119874Y-107457564D01*
X172755186Y-112181238D02*
X170507238Y-110294971D01*
X169311808Y-110399563D02*
X170757369Y-110273081D01*
X173119874Y-107457564D02*
X173008659Y-106186344D01*
%TO.N,c1_r1*%
X154101497Y-120701992D02*
X153851916Y-119286587D01*
X150536331Y-123806012D02*
X152212927Y-123510377D01*
X154153751Y-120738589D02*
X154101497Y-120701992D01*
X154121898Y-125280776D02*
X151718100Y-123597641D01*
X152212927Y-123510377D02*
X154153751Y-120738589D01*
X151718100Y-123597641D02*
X150536331Y-123806012D01*
%TD*%
M02*
