M48
; DRILL file KiCad 10.0.0 date 2026-04-11T19:43:25
; FORMAT={-:-/ absolute / metric / decimal}
; #@! TF.CreationDate,2026-04-11T19:43:25+02:00
; #@! TF.GenerationSoftware,Kicad,Pcbnew,10.0.0
; #@! TF.FileFunction,NonPlated,1,2,NPTH
FMAT,2
METRIC
; #@! TA.AperFunction,NonPlated,NPTH,ComponentDrill
T1C0.900
; #@! TA.AperFunction,NonPlated,NPTH,ComponentDrill
T2C3.000
; #@! TA.AperFunction,NonPlated,NPTH,ComponentDrill
T3C5.000
%
G90
G05
T1
X240.818Y-135.867
X241.079Y-132.879
T2
X124.515Y-126.448
X129.433Y-144.801
X129.914Y-127.279
X134.175Y-123.86
X134.35Y-163.153
X134.832Y-145.632
X139.092Y-142.213
X139.749Y-163.984
X142.291Y-105.84
X144.01Y-160.565
X145.591Y-124.551
X147.597Y-107.138
X148.89Y-143.262
X150.897Y-125.849
X152.139Y-104.103
X154.196Y-144.561
X155.439Y-122.815
X158.738Y-141.526
X162.664Y-91.783
X164.32Y-110.711
X165.976Y-129.639
X167.837Y-93.539
X169.493Y-112.467
X171.149Y-131.394
X172.626Y-90.912
X174.282Y-109.839
X175.938Y-128.767
X185.927Y-118.479
X185.927Y-99.479
X185.927Y-137.479
X190.927Y-120.679
X190.927Y-101.679
X190.927Y-139.679
X194.734Y-159.77
X195.927Y-118.479
X195.927Y-99.479
X195.927Y-137.479
X198.68Y-163.547
X204.131Y-163.19
X205.12Y-142.029
X206.776Y-123.102
X208.431Y-104.174
X209.909Y-144.657
X211.565Y-125.729
X213.221Y-106.801
X213.902Y-168.35
X215.082Y-142.901
X216.736Y-173.02
X216.737Y-123.973
X218.393Y-105.046
X222.094Y-174.086
X230.197Y-181.6
X231.725Y-186.844
X236.625Y-189.26
T3
X128.374Y-121.532
X133.292Y-139.884
X138.209Y-158.237
X146.564Y-101.279
X149.863Y-119.99
X153.163Y-138.701
X167.318Y-87.612
X168.974Y-106.539
X170.63Y-125.467
X190.927Y-114.729
X190.927Y-95.729
X190.927Y-133.729
X200.715Y-157.956
X210.427Y-138.729
X212.083Y-119.802
X213.739Y-100.874
X220.149Y-168.146
X236.283Y-183.019
M30
