%TF.GenerationSoftware,KiCad,Pcbnew,10.0.0*%
%TF.CreationDate,2026-04-11T19:43:27+02:00*%
%TF.ProjectId,rustboard_pcb,72757374-626f-4617-9264-5f7063622e6b,v1.0.0*%
%TF.SameCoordinates,Original*%
%TF.FileFunction,Legend,Top*%
%TF.FilePolarity,Positive*%
%FSLAX46Y46*%
G04 Gerber Fmt 4.6, Leading zero omitted, Abs format (unit mm)*
G04 Created by KiCad (PCBNEW 10.0.0) date 2026-04-11 19:43:27*
%MOMM*%
%LPD*%
G01*
G04 APERTURE LIST*
%ADD10C,0.150000*%
%ADD11C,0.100000*%
%ADD12C,0.120000*%
G04 APERTURE END LIST*
D10*
X227226472Y-94234058D02*
X226935910Y-93730628D01*
X226657218Y-94184255D02*
X226744374Y-93188060D01*
X226744374Y-93188060D02*
X227123877Y-93221262D01*
X227123877Y-93221262D02*
X227214602Y-93277001D01*
X227214602Y-93277001D02*
X227257890Y-93328589D01*
X227257890Y-93328589D02*
X227297027Y-93427615D01*
X227297027Y-93427615D02*
X227284576Y-93569928D01*
X227284576Y-93569928D02*
X227228838Y-93660654D01*
X227228838Y-93660654D02*
X227177250Y-93703941D01*
X227177250Y-93703941D02*
X227078224Y-93743078D01*
X227078224Y-93743078D02*
X226698721Y-93709876D01*
X228412419Y-94337815D02*
X228499574Y-93341620D01*
X228839359Y-94375167D02*
X228885012Y-93853351D01*
X228885012Y-93853351D02*
X228845875Y-93754325D01*
X228845875Y-93754325D02*
X228755149Y-93698587D01*
X228755149Y-93698587D02*
X228612836Y-93686136D01*
X228612836Y-93686136D02*
X228513810Y-93725273D01*
X228513810Y-93725273D02*
X228462222Y-93768561D01*
X229740678Y-94454022D02*
X229786331Y-93932206D01*
X229786331Y-93932206D02*
X229747194Y-93833180D01*
X229747194Y-93833180D02*
X229656469Y-93777442D01*
X229656469Y-93777442D02*
X229466717Y-93760841D01*
X229466717Y-93760841D02*
X229367691Y-93799978D01*
X229744829Y-94406585D02*
X229645803Y-94445722D01*
X229645803Y-94445722D02*
X229408613Y-94424971D01*
X229408613Y-94424971D02*
X229317888Y-94369232D01*
X229317888Y-94369232D02*
X229278751Y-94270206D01*
X229278751Y-94270206D02*
X229287051Y-94175331D01*
X229287051Y-94175331D02*
X229342790Y-94084605D01*
X229342790Y-94084605D02*
X229441816Y-94045468D01*
X229441816Y-94045468D02*
X229679005Y-94066219D01*
X229679005Y-94066219D02*
X229778031Y-94027082D01*
X230273161Y-93831395D02*
X230215057Y-94495525D01*
X230264860Y-93926271D02*
X230316448Y-93882984D01*
X230316448Y-93882984D02*
X230415474Y-93843846D01*
X230415474Y-93843846D02*
X230557788Y-93856297D01*
X230557788Y-93856297D02*
X230648513Y-93912035D01*
X230648513Y-93912035D02*
X230687650Y-94011061D01*
X230687650Y-94011061D02*
X230641997Y-94532878D01*
X231543316Y-94611733D02*
X231630472Y-93615538D01*
X231547467Y-94564295D02*
X231448441Y-94603432D01*
X231448441Y-94603432D02*
X231258689Y-94586831D01*
X231258689Y-94586831D02*
X231167964Y-94531093D01*
X231167964Y-94531093D02*
X231124676Y-94479505D01*
X231124676Y-94479505D02*
X231085539Y-94380479D01*
X231085539Y-94380479D02*
X231110441Y-94095852D01*
X231110441Y-94095852D02*
X231166179Y-94005126D01*
X231166179Y-94005126D02*
X231217767Y-93961839D01*
X231217767Y-93961839D02*
X231316793Y-93922701D01*
X231316793Y-93922701D02*
X231506545Y-93939303D01*
X231506545Y-93939303D02*
X231597270Y-93995041D01*
X232776701Y-94719640D02*
X232863856Y-93723445D01*
X232830654Y-94102948D02*
X232929680Y-94063811D01*
X232929680Y-94063811D02*
X233119432Y-94080412D01*
X233119432Y-94080412D02*
X233210157Y-94136150D01*
X233210157Y-94136150D02*
X233253445Y-94187738D01*
X233253445Y-94187738D02*
X233292582Y-94286764D01*
X233292582Y-94286764D02*
X233267680Y-94571391D01*
X233267680Y-94571391D02*
X233211942Y-94662117D01*
X233211942Y-94662117D02*
X233160354Y-94705404D01*
X233160354Y-94705404D02*
X233061328Y-94744542D01*
X233061328Y-94744542D02*
X232871576Y-94727941D01*
X232871576Y-94727941D02*
X232780851Y-94672202D01*
X234104960Y-94835848D02*
X234150613Y-94314031D01*
X234150613Y-94314031D02*
X234111476Y-94215005D01*
X234111476Y-94215005D02*
X234020751Y-94159267D01*
X234020751Y-94159267D02*
X233830999Y-94142666D01*
X233830999Y-94142666D02*
X233731973Y-94181803D01*
X234109111Y-94788410D02*
X234010085Y-94827547D01*
X234010085Y-94827547D02*
X233772896Y-94806796D01*
X233772896Y-94806796D02*
X233682170Y-94751057D01*
X233682170Y-94751057D02*
X233643033Y-94652031D01*
X233643033Y-94652031D02*
X233651333Y-94557156D01*
X233651333Y-94557156D02*
X233707072Y-94466430D01*
X233707072Y-94466430D02*
X233806098Y-94427293D01*
X233806098Y-94427293D02*
X234043287Y-94448044D01*
X234043287Y-94448044D02*
X234142313Y-94408907D01*
X235010430Y-94867265D02*
X234911404Y-94906402D01*
X234911404Y-94906402D02*
X234721652Y-94889801D01*
X234721652Y-94889801D02*
X234630927Y-94834063D01*
X234630927Y-94834063D02*
X234587639Y-94782475D01*
X234587639Y-94782475D02*
X234548502Y-94683449D01*
X234548502Y-94683449D02*
X234573404Y-94398822D01*
X234573404Y-94398822D02*
X234629142Y-94308096D01*
X234629142Y-94308096D02*
X234680730Y-94264809D01*
X234680730Y-94264809D02*
X234779756Y-94225671D01*
X234779756Y-94225671D02*
X234969508Y-94242273D01*
X234969508Y-94242273D02*
X235060233Y-94298011D01*
X235433220Y-94952055D02*
X235520376Y-93955861D01*
X235561298Y-94580853D02*
X235812723Y-94985258D01*
X235870827Y-94321128D02*
X235458122Y-94667428D01*
X236955382Y-95037426D02*
X237046107Y-95093165D01*
X237046107Y-95093165D02*
X237235859Y-95109766D01*
X237235859Y-95109766D02*
X237334885Y-95070629D01*
X237334885Y-95070629D02*
X237390623Y-94979903D01*
X237390623Y-94979903D02*
X237394773Y-94932465D01*
X237394773Y-94932465D02*
X237355636Y-94833439D01*
X237355636Y-94833439D02*
X237264911Y-94777701D01*
X237264911Y-94777701D02*
X237122597Y-94765250D01*
X237122597Y-94765250D02*
X237031872Y-94709512D01*
X237031872Y-94709512D02*
X236992734Y-94610486D01*
X236992734Y-94610486D02*
X236996885Y-94563048D01*
X236996885Y-94563048D02*
X237052623Y-94472322D01*
X237052623Y-94472322D02*
X237151649Y-94433185D01*
X237151649Y-94433185D02*
X237293963Y-94445636D01*
X237293963Y-94445636D02*
X237384688Y-94501374D01*
X237805113Y-95159569D02*
X237863217Y-94495439D01*
X237892269Y-94163374D02*
X237840681Y-94206662D01*
X237840681Y-94206662D02*
X237883968Y-94258250D01*
X237883968Y-94258250D02*
X237935556Y-94214963D01*
X237935556Y-94214963D02*
X237892269Y-94163374D01*
X237892269Y-94163374D02*
X237883968Y-94258250D01*
X238706432Y-95238424D02*
X238793587Y-94242230D01*
X238710582Y-95190986D02*
X238611556Y-95230124D01*
X238611556Y-95230124D02*
X238421804Y-95213523D01*
X238421804Y-95213523D02*
X238331079Y-95157784D01*
X238331079Y-95157784D02*
X238287791Y-95106196D01*
X238287791Y-95106196D02*
X238248654Y-95007170D01*
X238248654Y-95007170D02*
X238273556Y-94722543D01*
X238273556Y-94722543D02*
X238329294Y-94631818D01*
X238329294Y-94631818D02*
X238380882Y-94588530D01*
X238380882Y-94588530D02*
X238479908Y-94549393D01*
X238479908Y-94549393D02*
X238669660Y-94565994D01*
X238669660Y-94565994D02*
X238760385Y-94621732D01*
X239564463Y-95265691D02*
X239465437Y-95304829D01*
X239465437Y-95304829D02*
X239275686Y-95288228D01*
X239275686Y-95288228D02*
X239184960Y-95232489D01*
X239184960Y-95232489D02*
X239145823Y-95133463D01*
X239145823Y-95133463D02*
X239179025Y-94753960D01*
X239179025Y-94753960D02*
X239234764Y-94663235D01*
X239234764Y-94663235D02*
X239333790Y-94624098D01*
X239333790Y-94624098D02*
X239523541Y-94640699D01*
X239523541Y-94640699D02*
X239614266Y-94696437D01*
X239614266Y-94696437D02*
X239653404Y-94795463D01*
X239653404Y-94795463D02*
X239645103Y-94890339D01*
X239645103Y-94890339D02*
X239162424Y-94943712D01*
X241045122Y-95825441D02*
X241001834Y-95773853D01*
X241001834Y-95773853D02*
X240919410Y-95623239D01*
X240919410Y-95623239D02*
X240880272Y-95524213D01*
X240880272Y-95524213D02*
X240845285Y-95377749D01*
X240845285Y-95377749D02*
X240818599Y-95136409D01*
X240818599Y-95136409D02*
X240835200Y-94946658D01*
X240835200Y-94946658D02*
X240903389Y-94713619D01*
X240903389Y-94713619D02*
X240963278Y-94575456D01*
X240963278Y-94575456D02*
X241019016Y-94484730D01*
X241019016Y-94484730D02*
X241126343Y-94350717D01*
X241126343Y-94350717D02*
X241177931Y-94307430D01*
X241457827Y-95479140D02*
X241544983Y-94482945D01*
X241544983Y-94482945D02*
X241814794Y-95223565D01*
X241814794Y-95223565D02*
X242209113Y-94541049D01*
X242209113Y-94541049D02*
X242121957Y-95537244D01*
X243042242Y-94852943D02*
X242975838Y-95611949D01*
X243182191Y-95438799D02*
X242975838Y-95611949D01*
X242975838Y-95611949D02*
X242802688Y-95405596D01*
X243701641Y-96057856D02*
X243753229Y-96014568D01*
X243753229Y-96014568D02*
X243860556Y-95880555D01*
X243860556Y-95880555D02*
X243916294Y-95789830D01*
X243916294Y-95789830D02*
X243976183Y-95651667D01*
X243976183Y-95651667D02*
X244044372Y-95418628D01*
X244044372Y-95418628D02*
X244060973Y-95228877D01*
X244060973Y-95228877D02*
X244034287Y-94987537D01*
X244034287Y-94987537D02*
X243999300Y-94841073D01*
X243999300Y-94841073D02*
X243960162Y-94742047D01*
X243960162Y-94742047D02*
X243877737Y-94591433D01*
X243877737Y-94591433D02*
X243834450Y-94539845D01*
X239538448Y-138879800D02*
X239728199Y-138896401D01*
X239728199Y-138896401D02*
X239818924Y-138952139D01*
X239818924Y-138952139D02*
X239905500Y-139055315D01*
X239905500Y-139055315D02*
X239936336Y-139249217D01*
X239936336Y-139249217D02*
X239907284Y-139581282D01*
X239907284Y-139581282D02*
X239843245Y-139766883D01*
X239843245Y-139766883D02*
X239740069Y-139853458D01*
X239740069Y-139853458D02*
X239641043Y-139892595D01*
X239641043Y-139892595D02*
X239451292Y-139875994D01*
X239451292Y-139875994D02*
X239360567Y-139820256D01*
X239360567Y-139820256D02*
X239273991Y-139717080D01*
X239273991Y-139717080D02*
X239243155Y-139523178D01*
X239243155Y-139523178D02*
X239272207Y-139191113D01*
X239272207Y-139191113D02*
X239336245Y-139005512D01*
X239336245Y-139005512D02*
X239439422Y-138918937D01*
X239439422Y-138918937D02*
X239538448Y-138879800D01*
X240682891Y-139457935D02*
X240350826Y-139428883D01*
X240305173Y-139950699D02*
X240392329Y-138954505D01*
X240392329Y-138954505D02*
X240866707Y-138996007D01*
X241536772Y-139532640D02*
X241204707Y-139503588D01*
X241159054Y-140025404D02*
X241246210Y-139029210D01*
X241246210Y-139029210D02*
X241720589Y-139070712D01*
X240790948Y-128781098D02*
X240980700Y-128797699D01*
X240980700Y-128797699D02*
X241071425Y-128853437D01*
X241071425Y-128853437D02*
X241158000Y-128956613D01*
X241158000Y-128956613D02*
X241188837Y-129150515D01*
X241188837Y-129150515D02*
X241159785Y-129482580D01*
X241159785Y-129482580D02*
X241095746Y-129668181D01*
X241095746Y-129668181D02*
X240992570Y-129754756D01*
X240992570Y-129754756D02*
X240893544Y-129793893D01*
X240893544Y-129793893D02*
X240703792Y-129777292D01*
X240703792Y-129777292D02*
X240613067Y-129721554D01*
X240613067Y-129721554D02*
X240526492Y-129618378D01*
X240526492Y-129618378D02*
X240495655Y-129424476D01*
X240495655Y-129424476D02*
X240524707Y-129092411D01*
X240524707Y-129092411D02*
X240588746Y-128906810D01*
X240588746Y-128906810D02*
X240691922Y-128820235D01*
X240691922Y-128820235D02*
X240790948Y-128781098D01*
X241557674Y-129851997D02*
X241644829Y-128855802D01*
X241644829Y-128855802D02*
X242126928Y-129901800D01*
X242126928Y-129901800D02*
X242214083Y-128905606D01*
%TO.C,D11*%
D11*
X196377386Y-114329434D02*
X196977384Y-114729432D01*
X196377386Y-114729432D02*
X195877388Y-114729432D01*
X196377386Y-115129432D02*
X196377386Y-114329434D01*
X196977384Y-114729432D02*
X196377386Y-115129432D01*
X196977384Y-114729432D02*
X196977386Y-115279428D01*
X196977384Y-114729432D02*
X196977388Y-114179431D01*
X197377386Y-114729432D02*
X196977384Y-114729432D01*
%TO.C,JST1*%
D12*
X223263062Y-135897339D02*
X224259257Y-135984495D01*
X223350219Y-134901145D02*
X223263062Y-135897339D01*
X223716272Y-130717127D02*
X223796455Y-129800628D01*
X223796455Y-129800628D02*
X224792649Y-129887784D01*
X231053305Y-136578897D02*
X230057108Y-136491738D01*
X231133488Y-135662396D02*
X231053305Y-136578897D01*
X231506515Y-131398685D02*
X231586698Y-130482186D01*
X231586698Y-130482186D02*
X230590502Y-130395029D01*
D11*
X231945102Y-132581407D02*
X232941296Y-132668567D01*
X232225309Y-135115475D02*
X232312466Y-134119281D01*
X232486778Y-132126892D02*
X232399614Y-133123086D01*
%TO.C,D10*%
X196377382Y-133329405D02*
X196977380Y-133729403D01*
X196377382Y-133729403D02*
X195877384Y-133729403D01*
X196377382Y-134129403D02*
X196377382Y-133329405D01*
X196977380Y-133729403D02*
X196377382Y-134129403D01*
X196977380Y-133729403D02*
X196977382Y-134279399D01*
X196977380Y-133729403D02*
X196977384Y-133179402D01*
X197377382Y-133729403D02*
X196977380Y-133729403D01*
%TO.C,D12*%
X196377381Y-95329421D02*
X196977379Y-95729419D01*
X196377381Y-95729419D02*
X195877383Y-95729419D01*
X196377381Y-96129419D02*
X196377381Y-95329421D01*
X196977379Y-95729419D02*
X196377381Y-96129419D01*
X196977379Y-95729419D02*
X196977381Y-96279415D01*
X196977379Y-95729419D02*
X196977383Y-95179418D01*
X197377381Y-95729419D02*
X196977379Y-95729419D01*
%TO.C,PWR1*%
D12*
X239364303Y-135840444D02*
X239512468Y-134146919D01*
X239625772Y-132851863D02*
X239643202Y-132652619D01*
X240249070Y-137774923D02*
X241036064Y-137843774D01*
X241637436Y-130970031D02*
X240850447Y-130901177D01*
X242094514Y-137334087D02*
X242591303Y-131655775D01*
%TO.C,D16*%
D11*
X205699234Y-160195946D02*
X205972854Y-159444192D01*
X205836044Y-159820070D02*
X205366199Y-159649058D01*
X205972854Y-159444192D02*
X206399862Y-160025282D01*
X206399862Y-160025282D02*
X205699234Y-160195946D01*
X206399862Y-160025282D02*
X206211751Y-160542114D01*
X206399862Y-160025282D02*
X206587971Y-159508449D01*
X206775739Y-160162092D02*
X206399862Y-160025282D01*
%TO.C,D3*%
X133535149Y-119734971D02*
X134218231Y-119966049D01*
X133638675Y-120121342D02*
X133155714Y-120250751D01*
X133742204Y-120507712D02*
X133535149Y-119734971D01*
X134218231Y-119966049D02*
X133742204Y-120507712D01*
X134218231Y-119966049D02*
X134075882Y-119434792D01*
X134218231Y-119966049D02*
X134360581Y-120497308D01*
X134604602Y-119862523D02*
X134218231Y-119966049D01*
%TO.C,D7*%
X176024425Y-124593526D02*
X176657004Y-124939706D01*
X176059287Y-124992002D02*
X175561191Y-125035580D01*
X176094150Y-125390480D02*
X176024425Y-124593526D01*
X176657004Y-124939706D02*
X176094150Y-125390480D01*
X176657004Y-124939706D02*
X176609070Y-124391803D01*
X176657004Y-124939706D02*
X176704939Y-125487612D01*
X177055483Y-124904846D02*
X176657004Y-124939706D01*
%TO.C,D2*%
X138452688Y-138087555D02*
X139135770Y-138318633D01*
X138556214Y-138473926D02*
X138073253Y-138603335D01*
X138659743Y-138860296D02*
X138452688Y-138087555D01*
X139135770Y-138318633D02*
X138659743Y-138860296D01*
X139135770Y-138318633D02*
X138993421Y-137787376D01*
X139135770Y-138318633D02*
X139278120Y-138849892D01*
X139522141Y-138215107D02*
X139135770Y-138318633D01*
%TO.C,D4*%
X158460504Y-137360916D02*
X159120848Y-137650650D01*
X158529962Y-137754839D02*
X158037559Y-137841665D01*
X158599422Y-138148762D02*
X158460504Y-137360916D01*
X159120848Y-137650650D02*
X158599422Y-138148762D01*
X159120848Y-137650650D02*
X159025342Y-137109007D01*
X159120848Y-137650650D02*
X159216352Y-138192291D01*
X159514771Y-137581189D02*
X159120848Y-137650650D01*
%TO.C,D1*%
X143370273Y-156440157D02*
X144053355Y-156671235D01*
X143473799Y-156826528D02*
X142990838Y-156955937D01*
X143577328Y-157212898D02*
X143370273Y-156440157D01*
X144053355Y-156671235D02*
X143577328Y-157212898D01*
X144053355Y-156671235D02*
X143911006Y-156139978D01*
X144053355Y-156671235D02*
X144195705Y-157202494D01*
X144439726Y-156567709D02*
X144053355Y-156671235D01*
%TO.C,D14*%
X217477732Y-120675179D02*
X217547462Y-119878227D01*
X217512600Y-120276703D02*
X217014505Y-120233125D01*
X217547462Y-119878227D02*
X218110318Y-120328998D01*
X218110318Y-120328998D02*
X217477732Y-120675179D01*
X218110318Y-120328998D02*
X218062382Y-120876900D01*
X218110318Y-120328998D02*
X218158254Y-119781091D01*
X218508795Y-120363859D02*
X218110318Y-120328998D01*
%TO.C,D6*%
X151861872Y-99938227D02*
X152522216Y-100227961D01*
X151931330Y-100332150D02*
X151438927Y-100418976D01*
X152000790Y-100726073D02*
X151861872Y-99938227D01*
X152522216Y-100227961D02*
X152000790Y-100726073D01*
X152522216Y-100227961D02*
X152426710Y-99686318D01*
X152522216Y-100227961D02*
X152617720Y-100769602D01*
X152916139Y-100158500D02*
X152522216Y-100227961D01*
%TO.C,D13*%
X215821780Y-139602898D02*
X215891510Y-138805946D01*
X215856648Y-139204422D02*
X215358553Y-139160844D01*
X215891510Y-138805946D02*
X216454366Y-139256717D01*
X216454366Y-139256717D02*
X215821780Y-139602898D01*
X216454366Y-139256717D02*
X216406430Y-139804619D01*
X216454366Y-139256717D02*
X216502302Y-138708810D01*
X216852843Y-139291578D02*
X216454366Y-139256717D01*
%TO.C,D15*%
X219133686Y-101747492D02*
X219203416Y-100950540D01*
X219168554Y-101349016D02*
X218670459Y-101305438D01*
X219203416Y-100950540D02*
X219766272Y-101401311D01*
X219766272Y-101401311D02*
X219133686Y-101747492D01*
X219766272Y-101401311D02*
X219718336Y-101949213D01*
X219766272Y-101401311D02*
X219814208Y-100853404D01*
X220164749Y-101436172D02*
X219766272Y-101401311D01*
%TO.C,D18*%
X239480139Y-187451542D02*
X240092978Y-186937314D01*
X239786558Y-187194427D02*
X239465166Y-186811407D01*
X240092978Y-186937314D02*
X240172234Y-187654055D01*
X240172234Y-187654055D02*
X239480139Y-187451542D01*
X240172234Y-187654055D02*
X239750907Y-188007588D01*
X240172234Y-187654055D02*
X240593556Y-187300525D01*
X240429346Y-187960473D02*
X240172234Y-187654055D01*
%TO.C,D17*%
X224383819Y-171600081D02*
X224842683Y-170944760D01*
X224613249Y-171272421D02*
X224203677Y-170985632D01*
X224842683Y-170944760D02*
X225104749Y-171616567D01*
X225104749Y-171616567D02*
X224383819Y-171600081D01*
X225104749Y-171616567D02*
X224789276Y-172067099D01*
X225104749Y-171616567D02*
X225420207Y-171166036D01*
X225432403Y-171845998D02*
X225104749Y-171616567D01*
%TO.C,D9*%
X172712511Y-86738120D02*
X173345090Y-87084300D01*
X172747373Y-87136596D02*
X172249277Y-87180174D01*
X172782236Y-87535074D02*
X172712511Y-86738120D01*
X173345090Y-87084300D02*
X172782236Y-87535074D01*
X173345090Y-87084300D02*
X173297156Y-86536397D01*
X173345090Y-87084300D02*
X173393025Y-87632206D01*
X173743569Y-87049440D02*
X173345090Y-87084300D01*
%TO.C,D8*%
X174368470Y-105665842D02*
X175001049Y-106012022D01*
X174403332Y-106064318D02*
X173905236Y-106107896D01*
X174438195Y-106462796D02*
X174368470Y-105665842D01*
X175001049Y-106012022D02*
X174438195Y-106462796D01*
X175001049Y-106012022D02*
X174953115Y-105464119D01*
X175001049Y-106012022D02*
X175048984Y-106559928D01*
X175399528Y-105977162D02*
X175001049Y-106012022D01*
%TO.C,D5*%
X155161190Y-118649563D02*
X155821534Y-118939297D01*
X155230648Y-119043486D02*
X154738245Y-119130312D01*
X155300108Y-119437409D02*
X155161190Y-118649563D01*
X155821534Y-118939297D02*
X155300108Y-119437409D01*
X155821534Y-118939297D02*
X155726028Y-118397654D01*
X155821534Y-118939297D02*
X155917038Y-119480938D01*
X156215457Y-118869836D02*
X155821534Y-118939297D01*
%TO.C,S12*%
D10*
X188927382Y-99929410D02*
X189427383Y-99429407D01*
X188927384Y-103429408D02*
X189427383Y-103929408D01*
X189427383Y-99429407D02*
X191727383Y-99429408D01*
X189427383Y-103929408D02*
X192427382Y-103929414D01*
X192427382Y-103929414D02*
X192927384Y-103429408D01*
X192927388Y-102509404D02*
X192927384Y-103429408D01*
X193427383Y-97229408D02*
X197927383Y-97229408D01*
X193427384Y-97929407D02*
X193427383Y-97229408D01*
X197927382Y-101329409D02*
X197927384Y-101929408D01*
X197927383Y-97229408D02*
X197927382Y-97729411D01*
X197927384Y-101929408D02*
X193447383Y-101929407D01*
X192927388Y-102509404D02*
G75*
G02*
X193447383Y-101929407I549992J30005D01*
G01*
X193427382Y-97949408D02*
G75*
G02*
X191727383Y-99429409I-1589998J109997D01*
G01*
%TO.C,S9*%
X165691783Y-91969948D02*
X166146299Y-91428266D01*
X165996826Y-95456623D02*
X166538500Y-95911143D01*
X166146299Y-91428266D02*
X168437547Y-91227809D01*
X166538500Y-95911143D02*
X169527084Y-95649676D01*
X169527084Y-95649676D02*
X169981605Y-95108001D01*
X169901429Y-94191503D02*
X169981605Y-95108001D01*
X169939335Y-88888016D02*
X174422212Y-88495815D01*
X170000346Y-89585352D02*
X169939335Y-88888016D01*
X174422212Y-88495815D02*
X174465787Y-88993908D01*
X174779549Y-92580214D02*
X174831844Y-93177930D01*
X174831844Y-93177930D02*
X170368891Y-93568387D01*
X169901429Y-94191503D02*
G75*
G02*
X170368891Y-93568387I545276J77837D01*
G01*
X170002086Y-89605276D02*
G75*
G02*
X168437547Y-91227808I-1593533J-28999D01*
G01*
%TO.C,S1*%
X137364692Y-162811607D02*
X137718236Y-162199229D01*
X137718236Y-162199229D02*
X139939866Y-161603945D01*
X138270551Y-166192342D02*
X138882922Y-166545897D01*
X138882922Y-166545897D02*
X141780700Y-165769438D01*
X141012538Y-159038917D02*
X145359205Y-157874230D01*
X141193711Y-159715065D02*
X141012538Y-159038917D01*
X141780700Y-165769438D02*
X142134254Y-165157066D01*
X141896140Y-164268415D02*
X142134254Y-165157066D01*
X145359205Y-157874230D02*
X145488606Y-158357192D01*
X146420362Y-161834526D02*
X146575653Y-162414082D01*
X146575653Y-162414082D02*
X142248306Y-163573591D01*
X141198883Y-159734389D02*
G75*
G02*
X139939866Y-161603946I-1564275J-305278D01*
G01*
X141896140Y-164268415D02*
G75*
G02*
X142248306Y-163573592I523494J171329D01*
G01*
%TO.C,S8*%
X167347746Y-110897641D02*
X167802262Y-110355959D01*
X167652789Y-114384316D02*
X168194463Y-114838836D01*
X167802262Y-110355959D02*
X170093510Y-110155502D01*
X168194463Y-114838836D02*
X171183047Y-114577369D01*
X171183047Y-114577369D02*
X171637568Y-114035694D01*
X171557392Y-113119196D02*
X171637568Y-114035694D01*
X171595298Y-107815709D02*
X176078175Y-107423508D01*
X171656309Y-108513045D02*
X171595298Y-107815709D01*
X176078175Y-107423508D02*
X176121750Y-107921601D01*
X176435512Y-111507907D02*
X176487807Y-112105623D01*
X176487807Y-112105623D02*
X172024854Y-112496080D01*
X171557392Y-113119196D02*
G75*
G02*
X172024854Y-112496080I545276J77837D01*
G01*
X171658049Y-108532969D02*
G75*
G02*
X170093510Y-110155501I-1593533J-28999D01*
G01*
%TO.C,S3*%
X127529561Y-126106435D02*
X127883105Y-125494057D01*
X127883105Y-125494057D02*
X130104735Y-124898773D01*
X128435420Y-129487170D02*
X129047791Y-129840725D01*
X129047791Y-129840725D02*
X131945569Y-129064266D01*
X131177407Y-122333745D02*
X135524074Y-121169058D01*
X131358580Y-123009893D02*
X131177407Y-122333745D01*
X131945569Y-129064266D02*
X132299123Y-128451894D01*
X132061009Y-127563243D02*
X132299123Y-128451894D01*
X135524074Y-121169058D02*
X135653475Y-121652020D01*
X136585231Y-125129354D02*
X136740522Y-125708910D01*
X136740522Y-125708910D02*
X132413175Y-126868419D01*
X131363752Y-123029217D02*
G75*
G02*
X130104735Y-124898774I-1564275J-305278D01*
G01*
X132061009Y-127563243D02*
G75*
G02*
X132413175Y-126868420I523494J171329D01*
G01*
%TO.C,S14*%
X209419841Y-127298109D02*
X209874360Y-127839783D01*
X209724885Y-123811425D02*
X210266560Y-123356905D01*
X209874360Y-127839783D02*
X212862944Y-128101250D01*
X210266560Y-123356905D02*
X212557810Y-123557365D01*
X212862944Y-128101250D02*
X213404619Y-127646730D01*
X213484801Y-126730234D02*
X213404619Y-127646730D01*
X214382074Y-122211238D02*
X214443082Y-121513901D01*
X214443082Y-121513901D02*
X218925958Y-121906102D01*
X218516326Y-126588217D02*
X214053374Y-126197759D01*
X218568620Y-125990501D02*
X218516326Y-126588217D01*
X218925958Y-121906102D02*
X218882379Y-122404203D01*
X213484801Y-126730234D02*
G75*
G02*
X214053374Y-126197759I550525J-18050D01*
G01*
X214380328Y-122231161D02*
G75*
G02*
X212557810Y-123557365I-1574357J248152D01*
G01*
%TO.C,S17*%
X214094034Y-173306734D02*
X214216821Y-174003099D01*
X214216821Y-174003099D02*
X216674278Y-175723828D01*
X216101552Y-170439700D02*
X216797915Y-170316913D01*
X216674278Y-175723828D02*
X217370641Y-175601039D01*
X216797915Y-170316913D02*
X218681965Y-171636140D01*
X217898333Y-174847423D02*
X217370641Y-175601039D01*
X220934888Y-171382492D02*
X221336391Y-170809086D01*
X221336391Y-170809086D02*
X225022576Y-173390179D01*
X222326766Y-177240192D02*
X218656966Y-174670572D01*
X222670913Y-176748704D02*
X222326766Y-177240192D01*
X225022576Y-173390179D02*
X224735785Y-173799756D01*
X217898333Y-174847423D02*
G75*
G02*
X218656966Y-174670572I467741J-290885D01*
G01*
X220923412Y-171398875D02*
G75*
G02*
X218681966Y-171636139I-1239355J1002088D01*
G01*
%TO.C,S2*%
X132447139Y-144459008D02*
X132800683Y-143846630D01*
X132800683Y-143846630D02*
X135022313Y-143251346D01*
X133352998Y-147839743D02*
X133965369Y-148193298D01*
X133965369Y-148193298D02*
X136863147Y-147416839D01*
X136094985Y-140686318D02*
X140441652Y-139521631D01*
X136276158Y-141362466D02*
X136094985Y-140686318D01*
X136863147Y-147416839D02*
X137216701Y-146804467D01*
X136978587Y-145915816D02*
X137216701Y-146804467D01*
X140441652Y-139521631D02*
X140571053Y-140004593D01*
X141502809Y-143481927D02*
X141658100Y-144061483D01*
X141658100Y-144061483D02*
X137330753Y-145220992D01*
X136281330Y-141381790D02*
G75*
G02*
X135022313Y-143251347I-1564275J-305278D01*
G01*
X136978587Y-145915816D02*
G75*
G02*
X137330753Y-145220993I523494J171329D01*
G01*
%TO.C,S4*%
X151922466Y-143184707D02*
X152328046Y-142605480D01*
X152328046Y-142605480D02*
X154593104Y-142206089D01*
X152530236Y-146631535D02*
X153109463Y-147037116D01*
X153109463Y-147037116D02*
X156063887Y-146516170D01*
X155885251Y-139744311D02*
X160316889Y-138962893D01*
X156006805Y-140433676D02*
X155885251Y-139744311D01*
X156063887Y-146516170D02*
X156469467Y-145936943D01*
X156309710Y-145030920D02*
X156469467Y-145936943D01*
X160316889Y-138962893D02*
X160403709Y-139455299D01*
X161028844Y-143000605D02*
X161133032Y-143591490D01*
X161133032Y-143591490D02*
X156721094Y-144369434D01*
X156010277Y-140453372D02*
G75*
G02*
X154593104Y-142206089I-1584942J-167774D01*
G01*
X156309710Y-145030920D02*
G75*
G02*
X156721094Y-144369434I536440J125048D01*
G01*
%TO.C,S18*%
X229037626Y-187141289D02*
X230965994Y-189439417D01*
X229099260Y-186436866D02*
X229037626Y-187141289D01*
X230965994Y-189439417D02*
X231670412Y-189501046D01*
X231780414Y-184187111D02*
X232484832Y-184248739D01*
X232375171Y-188909683D02*
X231670412Y-189501046D01*
X232484832Y-184248739D02*
X233963243Y-186010642D01*
X236033415Y-192367086D02*
X233153726Y-188935207D01*
X236205049Y-186348737D02*
X236741279Y-185898785D01*
X236493042Y-191981414D02*
X236033415Y-192367086D01*
X236741279Y-185898785D02*
X239633824Y-189345985D01*
X239633824Y-189345985D02*
X239250799Y-189667379D01*
X232375171Y-188909683D02*
G75*
G02*
X233153726Y-188935207I376516J-402032D01*
G01*
X236189723Y-186361591D02*
G75*
G02*
X233963244Y-186010641I-937765J1288713D01*
G01*
%TO.C,S15*%
X211075822Y-108370402D02*
X211530341Y-108912076D01*
X211380866Y-104883718D02*
X211922541Y-104429198D01*
X211530341Y-108912076D02*
X214518925Y-109173543D01*
X211922541Y-104429198D02*
X214213791Y-104629658D01*
X214518925Y-109173543D02*
X215060600Y-108719023D01*
X215140782Y-107802527D02*
X215060600Y-108719023D01*
X216038055Y-103283531D02*
X216099063Y-102586194D01*
X216099063Y-102586194D02*
X220581939Y-102978395D01*
X220172307Y-107660510D02*
X215709355Y-107270052D01*
X220224601Y-107062794D02*
X220172307Y-107660510D01*
X220581939Y-102978395D02*
X220538360Y-103476496D01*
X215140782Y-107802527D02*
G75*
G02*
X215709355Y-107270052I550525J-18050D01*
G01*
X216036309Y-103303454D02*
G75*
G02*
X214213791Y-104629658I-1574357J248152D01*
G01*
%TO.C,S10*%
X188927392Y-137929406D02*
X189427393Y-137429403D01*
X188927394Y-141429404D02*
X189427393Y-141929404D01*
X189427393Y-137429403D02*
X191727393Y-137429404D01*
X189427393Y-141929404D02*
X192427392Y-141929410D01*
X192427392Y-141929410D02*
X192927394Y-141429404D01*
X192927398Y-140509400D02*
X192927394Y-141429404D01*
X193427393Y-135229404D02*
X197927393Y-135229404D01*
X193427394Y-135929403D02*
X193427393Y-135229404D01*
X197927392Y-139329405D02*
X197927394Y-139929404D01*
X197927393Y-135229404D02*
X197927392Y-135729407D01*
X197927394Y-139929404D02*
X193447393Y-139929403D01*
X192927398Y-140509400D02*
G75*
G02*
X193447393Y-139929403I549992J30005D01*
G01*
X193427392Y-135949404D02*
G75*
G02*
X191727393Y-137429405I-1589998J109997D01*
G01*
%TO.C,S5*%
X148623166Y-124473343D02*
X149028746Y-123894116D01*
X149028746Y-123894116D02*
X151293804Y-123494725D01*
X149230936Y-127920171D02*
X149810163Y-128325752D01*
X149810163Y-128325752D02*
X152764587Y-127804806D01*
X152585951Y-121032947D02*
X157017589Y-120251529D01*
X152707505Y-121722312D02*
X152585951Y-121032947D01*
X152764587Y-127804806D02*
X153170167Y-127225579D01*
X153010410Y-126319556D02*
X153170167Y-127225579D01*
X157017589Y-120251529D02*
X157104409Y-120743935D01*
X157729544Y-124289241D02*
X157833732Y-124880126D01*
X157833732Y-124880126D02*
X153421794Y-125658070D01*
X152710977Y-121742008D02*
G75*
G02*
X151293804Y-123494725I-1584942J-167774D01*
G01*
X153010410Y-126319556D02*
G75*
G02*
X153421794Y-125658070I536440J125048D01*
G01*
%TO.C,S16*%
X196201778Y-164507646D02*
X196500614Y-165148503D01*
X196500614Y-165148503D02*
X199319688Y-166174569D01*
X197398847Y-161218720D02*
X198039705Y-160919886D01*
X198039705Y-160919886D02*
X200200998Y-161706532D01*
X199319688Y-166174569D02*
X199960548Y-165875727D01*
X200275207Y-165011208D02*
X199960548Y-165875727D01*
X202311504Y-160878421D02*
X202550919Y-160220643D01*
X202550919Y-160220643D02*
X206779536Y-161759734D01*
X205172041Y-166176292D02*
X200962219Y-164644038D01*
X205377254Y-165612474D02*
X205172041Y-166176292D01*
X206779536Y-161759734D02*
X206608524Y-162229582D01*
X200275207Y-165011208D02*
G75*
G02*
X200962219Y-164644038I527090J-159919D01*
G01*
X202304665Y-160897224D02*
G75*
G02*
X200200998Y-161706532I-1456486J647176D01*
G01*
%TO.C,S6*%
X145323838Y-105762017D02*
X145729418Y-105182790D01*
X145729418Y-105182790D02*
X147994476Y-104783399D01*
X145931608Y-109208845D02*
X146510835Y-109614426D01*
X146510835Y-109614426D02*
X149465259Y-109093480D01*
X149286623Y-102321621D02*
X153718261Y-101540203D01*
X149408177Y-103010986D02*
X149286623Y-102321621D01*
X149465259Y-109093480D02*
X149870839Y-108514253D01*
X149711082Y-107608230D02*
X149870839Y-108514253D01*
X153718261Y-101540203D02*
X153805081Y-102032609D01*
X154430216Y-105577915D02*
X154534404Y-106168800D01*
X154534404Y-106168800D02*
X150122466Y-106946744D01*
X149411649Y-103030682D02*
G75*
G02*
X147994476Y-104783399I-1584942J-167774D01*
G01*
X149711082Y-107608230D02*
G75*
G02*
X150122466Y-106946744I536440J125048D01*
G01*
%TO.C,S11*%
X188927376Y-118929415D02*
X189427377Y-118429412D01*
X188927378Y-122429413D02*
X189427377Y-122929413D01*
X189427377Y-118429412D02*
X191727377Y-118429413D01*
X189427377Y-122929413D02*
X192427376Y-122929419D01*
X192427376Y-122929419D02*
X192927378Y-122429413D01*
X192927382Y-121509409D02*
X192927378Y-122429413D01*
X193427377Y-116229413D02*
X197927377Y-116229413D01*
X193427378Y-116929412D02*
X193427377Y-116229413D01*
X197927376Y-120329414D02*
X197927378Y-120929413D01*
X197927377Y-116229413D02*
X197927376Y-116729416D01*
X197927378Y-120929413D02*
X193447377Y-120929412D01*
X192927382Y-121509409D02*
G75*
G02*
X193447377Y-120929412I549992J30005D01*
G01*
X193427376Y-116949413D02*
G75*
G02*
X191727377Y-118429414I-1589998J109997D01*
G01*
%TO.C,S13*%
X207763889Y-146225801D02*
X208218408Y-146767475D01*
X208068933Y-142739117D02*
X208610608Y-142284597D01*
X208218408Y-146767475D02*
X211206992Y-147028942D01*
X208610608Y-142284597D02*
X210901858Y-142485057D01*
X211206992Y-147028942D02*
X211748667Y-146574422D01*
X211828849Y-145657926D02*
X211748667Y-146574422D01*
X212726122Y-141138930D02*
X212787130Y-140441593D01*
X212787130Y-140441593D02*
X217270006Y-140833794D01*
X216860374Y-145515909D02*
X212397422Y-145125451D01*
X216912668Y-144918193D02*
X216860374Y-145515909D01*
X217270006Y-140833794D02*
X217226427Y-141331895D01*
X211828849Y-145657926D02*
G75*
G02*
X212397422Y-145125451I550525J-18050D01*
G01*
X212724376Y-141158853D02*
G75*
G02*
X210901858Y-142485057I-1574357J248152D01*
G01*
%TO.C,S7*%
X169003698Y-129825338D02*
X169458214Y-129283656D01*
X169308741Y-133312013D02*
X169850415Y-133766533D01*
X169458214Y-129283656D02*
X171749462Y-129083199D01*
X169850415Y-133766533D02*
X172838999Y-133505066D01*
X172838999Y-133505066D02*
X173293520Y-132963391D01*
X173213344Y-132046893D02*
X173293520Y-132963391D01*
X173251250Y-126743406D02*
X177734127Y-126351205D01*
X173312261Y-127440742D02*
X173251250Y-126743406D01*
X177734127Y-126351205D02*
X177777702Y-126849298D01*
X178091464Y-130435604D02*
X178143759Y-131033320D01*
X178143759Y-131033320D02*
X173680806Y-131423777D01*
X173213344Y-132046893D02*
G75*
G02*
X173680806Y-131423777I545276J77837D01*
G01*
X173314001Y-127460666D02*
G75*
G02*
X171749462Y-129083198I-1593533J-28999D01*
G01*
%TD*%
M02*
