%TF.GenerationSoftware,KiCad,Pcbnew,10.0.0*%
%TF.CreationDate,2026-04-11T19:43:27+02:00*%
%TF.ProjectId,rustboard_pcb,72757374-626f-4617-9264-5f7063622e6b,v1.0.0*%
%TF.SameCoordinates,Original*%
%TF.FileFunction,Soldermask,Bot*%
%TF.FilePolarity,Negative*%
%FSLAX46Y46*%
G04 Gerber Fmt 4.6, Leading zero omitted, Abs format (unit mm)*
G04 Created by KiCad (PCBNEW 10.0.0) date 2026-04-11 19:43:27*
%MOMM*%
%LPD*%
G01*
G04 APERTURE LIST*
G04 Aperture macros list*
%AMRoundRect*
0 Rectangle with rounded corners*
0 $1 Rounding radius*
0 $2 $3 $4 $5 $6 $7 $8 $9 X,Y pos of 4 corners*
0 Add a 4 corners polygon primitive as box body*
4,1,4,$2,$3,$4,$5,$6,$7,$8,$9,$2,$3,0*
0 Add four circle primitives for the rounded corners*
1,1,$1+$1,$2,$3*
1,1,$1+$1,$4,$5*
1,1,$1+$1,$6,$7*
1,1,$1+$1,$8,$9*
0 Add four rect primitives between the rounded corners*
20,1,$1+$1,$2,$3,$4,$5,0*
20,1,$1+$1,$4,$5,$6,$7,0*
20,1,$1+$1,$6,$7,$8,$9,0*
20,1,$1+$1,$8,$9,$2,$3,0*%
%AMHorizOval*
0 Thick line with rounded ends*
0 $1 width*
0 $2 $3 position (X,Y) of the first rounded end (center of the circle)*
0 $4 $5 position (X,Y) of the second rounded end (center of the circle)*
0 Add line between two ends*
20,1,$1,$2,$3,$4,$5,0*
0 Add two circle primitives to create the rounded ends*
1,1,$1,$2,$3*
1,1,$1,$4,$5*%
%AMFreePoly0*
4,1,16,-0.214645,0.660355,-0.210957,0.656235,0.289043,0.031235,0.299694,-0.005522,0.289043,-0.031235,-0.210957,-0.656235,-0.244478,-0.674694,-0.250000,-0.675000,-0.499999,-0.675000,-0.535355,-0.660355,-0.550000,-0.625000,-0.550000,0.625000,-0.535355,0.660355,-0.500000,0.675000,-0.250000,0.675000,-0.214645,0.660355,-0.214645,0.660355,$1*%
%AMFreePoly1*
4,1,16,0.535355,0.660355,0.550000,0.625000,0.550000,-0.625000,0.535355,-0.660355,0.500000,-0.675000,-0.650000,-0.675000,-0.685355,-0.660355,-0.700000,-0.625000,-0.689043,-0.593765,-0.214031,0.000000,-0.689043,0.593765,-0.699694,0.630522,-0.681235,0.664043,-0.650000,0.675000,0.499999,0.675000,0.535355,0.660355,0.535355,0.660355,$1*%
%AMFreePoly2*
4,1,16,0.635355,0.285355,0.650000,0.250000,0.650000,-1.000000,0.635355,-1.035355,0.600000,-1.050000,0.564645,-1.035355,0.000000,-0.470710,-0.564645,-1.035355,-0.600000,-1.050000,-0.635355,-1.035355,-0.650000,-1.000000,-0.650000,0.250000,-0.635355,0.285355,-0.600000,0.300000,0.600000,0.300000,0.635355,0.285355,0.635355,0.285355,$1*%
%AMFreePoly3*
4,1,14,0.035355,0.435355,0.635355,-0.164645,0.650000,-0.200000,0.650000,-0.400000,0.635355,-0.435355,0.600000,-0.450000,-0.600000,-0.450000,-0.635355,-0.435355,-0.650000,-0.400000,-0.650000,-0.200000,-0.635355,-0.164645,-0.035355,0.435355,0.000000,0.450000,0.035355,0.435355,0.035355,0.435355,$1*%
%AMFreePoly4*
4,1,14,1.335355,1.335355,1.350000,1.300000,1.350000,-1.300000,1.335355,-1.335355,1.300000,-1.350000,-0.117000,-1.350000,-0.152355,-1.335355,-1.335355,-0.152355,-1.350000,-0.117000,-1.350000,1.300000,-1.335355,1.335355,-1.300000,1.350000,1.300000,1.350000,1.335355,1.335355,1.335355,1.335355,$1*%
G04 Aperture macros list end*
%ADD10RoundRect,0.050000X0.450000X0.600000X-0.450000X0.600000X-0.450000X-0.600000X0.450000X-0.600000X0*%
%ADD11FreePoly0,175.000000*%
%ADD12C,1.800000*%
%ADD13FreePoly0,355.000000*%
%ADD14FreePoly1,355.000000*%
%ADD15C,0.900000*%
%ADD16FreePoly1,175.000000*%
%ADD17FreePoly2,265.000000*%
%ADD18HorizOval,1.300000X-0.273954X0.023968X0.273954X-0.023968X0*%
%ADD19FreePoly3,265.000000*%
%ADD20RoundRect,0.050000X-0.354900X0.532960X-0.442056X-0.463235X0.354900X-0.532960X0.442056X0.463235X0*%
%ADD21C,1.000000*%
%ADD22RoundRect,0.050000X-0.716642X0.414035X-0.777651X-0.283301X0.716642X-0.414035X0.777651X0.283301X0*%
%ADD23RoundRect,0.050000X0.628074X0.409907X-0.217650X0.717725X-0.628074X-0.409907X0.217650X-0.717725X0*%
%ADD24RoundRect,0.050000X0.279375X0.696024X-0.589958X0.463087X-0.279375X-0.696024X0.589958X-0.463087X0*%
%ADD25RoundRect,0.050000X0.395994X0.636937X-0.500581X0.558497X-0.395994X-0.636937X0.500581X-0.558497X0*%
%ADD26RoundRect,0.050000X0.338975X0.669026X-0.547352X0.512743X-0.338975X-0.669026X0.547352X-0.512743X0*%
%ADD27RoundRect,0.050000X0.500581X0.558497X-0.395994X0.636937X-0.500581X-0.558497X0.395994X-0.636937X0*%
%ADD28RoundRect,0.050000X0.748881X0.040953X0.170372X0.730393X-0.748881X-0.040953X-0.170372X-0.730393X0*%
%ADD29RoundRect,0.050000X0.712764X0.233382X-0.024473X0.749601X-0.712764X-0.233382X0.024473X-0.749601X0*%
%ADD30C,3.100000*%
%ADD31C,5.100000*%
%ADD32FreePoly4,180.000000*%
%ADD33RoundRect,0.050000X1.300000X1.300000X-1.300000X1.300000X-1.300000X-1.300000X1.300000X-1.300000X0*%
%ADD34FreePoly4,185.000000*%
%ADD35RoundRect,0.050000X1.181751X1.408356X-1.408356X1.181751X-1.181751X-1.408356X1.408356X-1.181751X0*%
%ADD36FreePoly4,195.000000*%
%ADD37RoundRect,0.050000X0.919239X1.592168X-1.592168X0.919239X-0.919239X-1.592168X1.592168X-0.919239X0*%
%ADD38FreePoly4,175.000000*%
%ADD39RoundRect,0.050000X1.408356X1.181751X-1.181751X1.408356X-1.408356X-1.181751X1.181751X-1.408356X0*%
%ADD40FreePoly4,145.000000*%
%ADD41RoundRect,0.050000X1.810547X0.319248X-0.319248X1.810547X-1.810547X-0.319248X0.319248X-1.810547X0*%
%ADD42FreePoly4,190.000000*%
%ADD43RoundRect,0.050000X1.054507X1.505993X-1.505993X1.054507X-1.054507X-1.505993X1.505993X-1.054507X0*%
%ADD44FreePoly4,130.000000*%
%ADD45RoundRect,0.050000X1.831482X-0.160234X0.160234X1.831482X-1.831482X0.160234X-0.160234X-1.831482X0*%
%ADD46FreePoly4,160.000000*%
%ADD47RoundRect,0.050000X1.666227X0.776974X-0.776974X1.666227X-1.666227X-0.776974X0.776974X-1.666227X0*%
G04 APERTURE END LIST*
D10*
%TO.C,D11*%
X198277387Y-114729430D03*
X194977387Y-114729434D03*
%TD*%
D11*
%TO.C,MCU1*%
X240635242Y-97505340D03*
D12*
X242747175Y-97690107D03*
D11*
X240413873Y-100035668D03*
D12*
X242525801Y-100220446D03*
D11*
X240192494Y-102566008D03*
D12*
X242304426Y-102750779D03*
D11*
X239971120Y-105096342D03*
D12*
X242083053Y-105281116D03*
D11*
X239749743Y-107626678D03*
D12*
X241861674Y-107811447D03*
D11*
X239528367Y-110157012D03*
D12*
X241640303Y-110341781D03*
D11*
X239306993Y-112687346D03*
D12*
X241418924Y-112872113D03*
D11*
X239085616Y-115217680D03*
D12*
X241197549Y-115402450D03*
D11*
X238864241Y-117748016D03*
D12*
X240976172Y-117932785D03*
D11*
X238642864Y-120278349D03*
D12*
X240754797Y-120463119D03*
D11*
X238421490Y-122808685D03*
D12*
X240533422Y-122993451D03*
D11*
X238200111Y-125339019D03*
D12*
X240312046Y-125523790D03*
X225130039Y-124195535D03*
D13*
X227241974Y-124380305D03*
D12*
X225351417Y-121665203D03*
D13*
X227463350Y-121849970D03*
D12*
X225572791Y-119134864D03*
D13*
X227684719Y-119319642D03*
D12*
X225794166Y-116604531D03*
D13*
X227906098Y-116789302D03*
D12*
X226015539Y-114074194D03*
D13*
X228127472Y-114258968D03*
D12*
X226236918Y-111543863D03*
D13*
X228348849Y-111728632D03*
D12*
X226458289Y-109013529D03*
D13*
X228570225Y-109198298D03*
D12*
X226679668Y-106483197D03*
D13*
X228791599Y-106667964D03*
D12*
X226901043Y-103952860D03*
D13*
X229012976Y-104137630D03*
D12*
X227122420Y-101422525D03*
D13*
X229234351Y-101607294D03*
D12*
X227343795Y-98892191D03*
D13*
X229455728Y-99076961D03*
D12*
X227565170Y-96361859D03*
D13*
X229677102Y-96546625D03*
D14*
X230399346Y-96609812D03*
D15*
X238543239Y-97322307D03*
D14*
X230177967Y-99140147D03*
D15*
X238321861Y-99852646D03*
D14*
X229956593Y-101670483D03*
D15*
X238100485Y-102382981D03*
D14*
X229735219Y-104200819D03*
D15*
X237879109Y-104913316D03*
D14*
X229513843Y-106731152D03*
D15*
X237657731Y-107443647D03*
D14*
X229292466Y-109261486D03*
D15*
X237436359Y-109973980D03*
D14*
X229071091Y-111791821D03*
D15*
X237214984Y-112504318D03*
D14*
X228849712Y-114322155D03*
D15*
X236993607Y-115034653D03*
D14*
X228628340Y-116852490D03*
D15*
X236772235Y-117564987D03*
D14*
X228406964Y-119382825D03*
D15*
X236550851Y-120095318D03*
D14*
X228185585Y-121913159D03*
D15*
X236329482Y-122625661D03*
D14*
X227964213Y-124443492D03*
D15*
X236108103Y-125155993D03*
X229333982Y-124563333D03*
D16*
X237477872Y-125275831D03*
D15*
X229555353Y-122033003D03*
D16*
X237699246Y-122745498D03*
D15*
X229776731Y-119502664D03*
D16*
X237920625Y-120215163D03*
D15*
X229998107Y-116972329D03*
D16*
X238141999Y-117684827D03*
D15*
X230219483Y-114441994D03*
D16*
X238363373Y-115154491D03*
D15*
X230440861Y-111911663D03*
D16*
X238584749Y-112624158D03*
D15*
X230662233Y-109381330D03*
D16*
X238806126Y-110093824D03*
D15*
X230883608Y-106850992D03*
D16*
X239027501Y-107563489D03*
D15*
X231104985Y-104320657D03*
D16*
X239248880Y-105033155D03*
D15*
X231326357Y-101790323D03*
D16*
X239470252Y-102502820D03*
D15*
X231547741Y-99259992D03*
D16*
X239691628Y-99972485D03*
D15*
X231769110Y-96729649D03*
D16*
X239913007Y-97442151D03*
%TD*%
D17*
%TO.C,JST1*%
X227876644Y-132225466D03*
X227702331Y-134217856D03*
D18*
X224897043Y-133972424D03*
X225071363Y-131980038D03*
D19*
X226690197Y-134129305D03*
X226864510Y-132136917D03*
%TD*%
D10*
%TO.C,D10*%
X198277383Y-133729401D03*
X194977383Y-133729405D03*
%TD*%
%TO.C,D12*%
X198277382Y-95729417D03*
X194977382Y-95729421D03*
%TD*%
D20*
%TO.C,PWR1*%
X240160579Y-130640055D03*
X239524345Y-137912279D03*
D21*
X241078969Y-132878622D03*
X240817502Y-135867203D03*
D20*
X241725930Y-138104892D03*
X242362167Y-130832675D03*
D22*
X239391027Y-131978082D03*
X239129567Y-134966664D03*
X238998832Y-136460955D03*
%TD*%
D23*
%TO.C,D16*%
X207621462Y-160469907D03*
X204520476Y-159341243D03*
%TD*%
D24*
%TO.C,D3*%
X135473934Y-119629587D03*
X132286382Y-120483687D03*
%TD*%
D25*
%TO.C,D7*%
X177952056Y-124826404D03*
X174664618Y-125114022D03*
%TD*%
D24*
%TO.C,D2*%
X140391473Y-137982171D03*
X137203921Y-138836271D03*
%TD*%
D26*
%TO.C,D4*%
X160401098Y-137424909D03*
X157151232Y-137997945D03*
%TD*%
D24*
%TO.C,D1*%
X145309058Y-156334773D03*
X142121506Y-157188873D03*
%TD*%
D27*
%TO.C,D14*%
X219405371Y-120442297D03*
X216117929Y-120154687D03*
%TD*%
D26*
%TO.C,D6*%
X153802466Y-100002220D03*
X150552600Y-100575256D03*
%TD*%
D27*
%TO.C,D13*%
X217749419Y-139370016D03*
X214461977Y-139082406D03*
%TD*%
%TO.C,D15*%
X221061325Y-101514610D03*
X217773883Y-101227000D03*
%TD*%
D28*
%TO.C,D18*%
X241007855Y-188649911D03*
X238886657Y-186121969D03*
%TD*%
D29*
%TO.C,D17*%
X226169639Y-172362216D03*
X223466441Y-170469414D03*
%TD*%
D25*
%TO.C,D9*%
X174640142Y-86970998D03*
X171352704Y-87258616D03*
%TD*%
%TO.C,D8*%
X176296101Y-105898720D03*
X173008663Y-106186338D03*
%TD*%
D26*
%TO.C,D5*%
X157101784Y-118713556D03*
X153851918Y-119286592D03*
%TD*%
D30*
%TO.C,S12*%
X195927386Y-99479408D03*
X190927386Y-101679408D03*
D31*
X190927383Y-95729408D03*
D30*
X185927380Y-99479409D03*
D32*
X194202382Y-101679405D03*
D33*
X182652383Y-99479408D03*
%TD*%
D30*
%TO.C,S9*%
X172625926Y-90911564D03*
X167836695Y-93538972D03*
D31*
X167318115Y-87611613D03*
D30*
X162663973Y-91783123D03*
D34*
X171099227Y-93253535D03*
D35*
X159401438Y-92068557D03*
%TD*%
D30*
%TO.C,S1*%
X144009699Y-160565200D03*
X139749472Y-163984333D03*
D31*
X138209495Y-158237075D03*
D30*
X134350434Y-163153397D03*
D36*
X142912872Y-163136700D03*
D37*
X131187031Y-164001025D03*
%TD*%
D30*
%TO.C,S8*%
X174281889Y-109839257D03*
X169492658Y-112466665D03*
D31*
X168974078Y-106539306D03*
D30*
X164319936Y-110710816D03*
D34*
X172755190Y-112181228D03*
D35*
X161057401Y-110996250D03*
%TD*%
D30*
%TO.C,S3*%
X134174568Y-123860028D03*
X129914341Y-127279161D03*
D31*
X128374364Y-121531903D03*
D30*
X124515303Y-126448225D03*
D36*
X133077741Y-126431528D03*
D37*
X121351900Y-127295853D03*
%TD*%
D30*
%TO.C,S14*%
X216737471Y-123973229D03*
X211564756Y-125729082D03*
D31*
X212083329Y-119801720D03*
D30*
X206775518Y-123101671D03*
D38*
X214827288Y-126014511D03*
D39*
X203512993Y-122816235D03*
%TD*%
D30*
%TO.C,S17*%
X222093725Y-174086119D03*
X216736098Y-173020374D03*
D31*
X220148876Y-168146416D03*
D30*
X213902201Y-168350351D03*
D40*
X219418817Y-174898832D03*
D41*
X211219481Y-166471891D03*
%TD*%
D30*
%TO.C,S2*%
X139092146Y-142212601D03*
X134831919Y-145631734D03*
D31*
X133291942Y-139884476D03*
D30*
X129432881Y-144800798D03*
D36*
X137995319Y-144784101D03*
D37*
X126269478Y-145648426D03*
%TD*%
D30*
%TO.C,S4*%
X158737983Y-141526006D03*
X154195970Y-144560825D03*
D31*
X153162760Y-138701219D03*
D30*
X148889898Y-143262490D03*
D42*
X157421210Y-143992126D03*
D43*
X145664657Y-143831187D03*
%TD*%
D30*
%TO.C,S18*%
X236624651Y-189260171D03*
X231725415Y-186844081D03*
D31*
X236283377Y-183019492D03*
D30*
X230196771Y-181599720D03*
D44*
X233830540Y-189352875D03*
D45*
X228091643Y-179090928D03*
%TD*%
D30*
%TO.C,S15*%
X218393452Y-105045522D03*
X213220737Y-106801375D03*
D31*
X213739310Y-100874013D03*
D30*
X208431499Y-104173964D03*
D38*
X216483269Y-107086804D03*
D39*
X205168974Y-103888528D03*
%TD*%
D30*
%TO.C,S10*%
X195927396Y-137479404D03*
X190927396Y-139679404D03*
D31*
X190927393Y-133729404D03*
D30*
X185927390Y-137479405D03*
D32*
X194202392Y-139679401D03*
D33*
X182652393Y-137479404D03*
%TD*%
D30*
%TO.C,S5*%
X155438683Y-122814642D03*
X150896670Y-125849461D03*
D31*
X149863460Y-119989855D03*
D30*
X145590598Y-124551126D03*
D42*
X154121910Y-125280762D03*
D43*
X142365357Y-125119823D03*
%TD*%
D30*
%TO.C,S16*%
X204130605Y-163190003D03*
X198679704Y-163547225D03*
D31*
X200714718Y-157956054D03*
D30*
X194733680Y-159769801D03*
D46*
X201757188Y-164667339D03*
D47*
X191656186Y-158649685D03*
%TD*%
D30*
%TO.C,S6*%
X152139355Y-104103316D03*
X147597342Y-107138135D03*
D31*
X146564132Y-101278529D03*
D30*
X142291270Y-105839800D03*
D42*
X150822582Y-106569436D03*
D43*
X139066029Y-106408497D03*
%TD*%
D30*
%TO.C,S11*%
X195927380Y-118479413D03*
X190927380Y-120679413D03*
D31*
X190927377Y-114729413D03*
D30*
X185927374Y-118479414D03*
D32*
X194202376Y-120679410D03*
D33*
X182652377Y-118479413D03*
%TD*%
D30*
%TO.C,S13*%
X215081519Y-142900921D03*
X209908804Y-144656774D03*
D31*
X210427377Y-138729412D03*
D30*
X205119566Y-142029363D03*
D38*
X213171336Y-144942203D03*
D39*
X201857041Y-141743927D03*
%TD*%
D30*
%TO.C,S7*%
X175937841Y-128766954D03*
X171148610Y-131394362D03*
D31*
X170630030Y-125467003D03*
D30*
X165975888Y-129638513D03*
D34*
X174411142Y-131108925D03*
D35*
X162713353Y-129923947D03*
%TD*%
M02*
